<?xml version="1.0" encoding="utf-8"?>
<!-- Generator: Adobe Illustrator 25.4.0, SVG Export Plug-In . SVG Version: 6.00 Build 0)  -->
<svg version="1.1"
	 id="svg2" xmlns:cc="http://creativecommons.org/ns#" xmlns:dc="http://purl.org/dc/elements/1.1/" xmlns:rdf="http://www.w3.org/1999/02/22-rdf-syntax-ns#" xmlns:svg="http://www.w3.org/2000/svg"
	 xmlns="http://www.w3.org/2000/svg" xmlns:xlink="http://www.w3.org/1999/xlink" x="0px" y="0px" viewBox="0 0 168.57 168.57"
	 style="enable-background:new 0 0 168.57 168.57;" xml:space="preserve">
<style type="text/css">
	.st0{fill:#8CD024;}
</style>
<g>
	<path id="path3941" class="st0" d="M132.11,15.12c11.78,0,21.34,9.55,21.34,21.34s-9.56,21.34-21.34,21.34
		c-11.79,0-21.34-9.55-21.34-21.34C110.77,24.67,120.32,15.12,132.11,15.12 M132.11,63.91c15.16,0,27.45-12.29,27.45-27.46
		C159.56,21.29,147.27,9,132.11,9c-15.17,0-27.46,12.29-27.46,27.45C104.64,51.62,116.95,63.91,132.11,63.91"/>
	<path id="path3945" class="st0" d="M63.27,84.29c0-11.6,9.4-21,21.01-21v-6.01c-14.93,0-27.03,12.08-27.03,27.01
		c0,14.93,12.1,27.03,27.03,27.03s27-12.1,27-27.03h-5.95c0,11.61-9.45,21.01-21.05,21.01C72.67,105.3,63.27,95.89,63.27,84.29"/>
	<path id="path3949" class="st0" d="M45.27,84.28c0,21.54,17.47,39.01,39.01,39.01s39.05-17.47,39.05-39.01h-5.98
		c0,18.23-14.84,33.02-33.07,33.02c-18.24,0-33.02-14.78-33.02-33.02s14.78-33.01,33.02-33.01v-6
		C62.73,45.28,45.27,62.74,45.27,84.28"/>
	<path id="path3953" class="st0" d="M33.17,84.28c0,28.23,22.89,51.11,51.11,51.11c28.23,0,51.06-22.88,51.06-51.11h-6.02
		c0,24.85-20.18,45-45.04,45c-24.85,0-44.99-20.15-44.99-45s20.14-44.99,44.99-44.99l0.01-6.06C56.06,33.23,33.17,56.05,33.17,84.28
		"/>
	<path id="path3957" class="st0" d="M84.27,21.05c-34.92,0-63.23,28.31-63.23,63.23s28.31,63.23,63.23,63.23s63.19-28.3,63.19-63.23
		l-6.01-0.01c0,31.56-25.63,57.14-57.18,57.14c-31.56,0-57.14-25.58-57.14-57.14c0-31.55,25.58-57.14,57.14-57.14V21.05L84.27,21.05
		z"/>
	<path id="path3961" class="st0" d="M84.29,153.57c-38.27,0-69.29-31.02-69.29-69.28c0-38.27,31.02-69.28,69.29-69.28v-6
		c-41.58,0-75.28,33.7-75.28,75.28s33.7,75.28,75.28,75.28s75.28-33.7,75.28-75.28h-5.95C153.61,122.55,122.55,153.57,84.29,153.57"
		/>
</g>
</svg>
