<?xml version="1.0" encoding="utf-8"?>
<!-- Generator: Adobe Illustrator 25.4.0, SVG Export Plug-In . SVG Version: 6.00 Build 0)  -->
<svg version="1.1" id="Layer_1" xmlns="http://www.w3.org/2000/svg" xmlns:xlink="http://www.w3.org/1999/xlink" x="0px" y="0px"
	 viewBox="0 0 265 82.3" style="enable-background:new 0 0 265 82.3;" xml:space="preserve">
<g>
	<path d="M224.6,64.5c-0.9,0.4-1.8,0.6-2.4,1.5c-0.2,0.4-2.6,0.4-3.2,0.1c-0.2-0.1-0.3-0.2-0.6-0.4c-0.1,0.5,0,1-0.5,1.2
		c-0.3,0.1-0.3,0.5-0.2,0.8c0.1,0.3,0.4,0.5,0.8,0.4c0.6-0.1,1.3-0.2,1.9,0.1c-11.3,1.1-22.6,1.8-33.9,3c0,0.2,0,0.5,0.1,0.8
		c11.1-0.9,22.2-1.6,33.4-1.9c-0.5,0.3-1,0.6-1.7,0.6c-4,0.3-8,0.4-11.9,0.9c-4.3,0.5-8.7,0.7-13,1.1c-2.2,0.2-4.5,0.3-6.8,0.2
		c-1.1-0.1-1.8,0.5-1.7,1.8c1.1-0.4,2.2,0.1,3.3-0.4c0.2-0.1,0.7,0,0.9,0.2c0.3,0.3-0.1,0.6-0.3,0.9c0.9-0.1,1.8,0.1,2.4-0.9
		c0.2-0.4,0.4,0,0.7,0.2c0.5,0.4,1,1,1.4-0.2c0.2-0.6,0.9-0.2,1.3-0.2c0.7,0.1,1.7,1.2,2.1-0.5c0.1-0.4,0.6,0,0.8,0.4
		c0.1,0.3-0.2,1,0.6,0.9c0.5,0,0.7,0,0.8-0.8c0-0.7,1.2-1.1,2.1-0.7c1.1,0.6,2.1,0.2,3.1-0.4c0.4-0.2,0.6-0.1,0.6,0.3
		c0.3,1.2,1.4,1.8,2.7,1.3c0.3-0.1,0.4-0.5,0.8-0.2c-0.6,0.8-1.3,1.1-2.2,0.8c-0.5-0.1-1.1,0.1-1,0.6c0.5,1.4-0.7,1.4-1.3,1.4
		c-0.6,0-0.8,0-1.1,0.6c-0.3,0.6-0.9,0.6-1.5,0.6c-1,0-2.1,0-3.1,0.3c-1.3,0.4-2.7,0.1-4,0c-1-0.1-2.3,1-3.2-0.4
		c-0.1-0.2-0.1,0.5-0.4,0.5c0-0.1-0.1-0.2,0-0.2c0.1-0.4,0.2-0.9-0.3-1c-0.4-0.1-0.2,0.7-0.6,0.8c0.5,1.1-0.3,0.7-0.8,0.7
		c-0.4,0-0.8,0.1-1.1,0.2c-0.4,0.1-0.4-0.3-0.5-0.4c-0.2-0.2,0-0.5,0.2-0.5c0.8,0,0.9-0.3,0.4-0.9c-0.5-0.6-0.8-0.3-1.2,0.1
		c-0.1,0.1-0.2,0.2-0.2,0.2c-0.5-2-2.4-0.5-3.3-1.3c0.4-0.6,0.9,0,1.3-0.1c-0.8-0.8-1.9-0.7-2.5,0.3c-0.4,0.7-0.8,1.1-1.6,1
		c-0.1,0-0.3,0-0.4,0.1c0.3,1.1-0.3,1.2-1.2,1.4c-0.5,0.2-0.5,0.5-0.8-0.2c-0.1-0.2-0.2-0.5-0.4-0.4c-0.3,0-0.2,0.3-0.1,0.5
		c0.1,0.2,0,0.3-0.2,0.1c-1.3-0.8-2.8-0.8-4.3-1.1c-1.5-0.3-3,0.4-4.6,0c-0.8-0.2-2.1,0.1-3.1,0.6c-0.5,0.3-0.6-0.1-0.7-0.6
		c-0.1-0.7-0.7-0.9-1.1-0.4c-0.8,0.9-1.9,1.1-2.9,1.3c-1.2,0.2-2.5-0.2-3.9,0.1c-0.6,0.1-1.7-0.4-2.6-0.3c-1.7,0.3-3.4,0.1-5.1,0.2
		c-2.6,0.1-5.1,0.8-7.7,0.3c-0.9-0.2-1.9,0.4-2.8-0.6c0,1.9-1.9,0.1-2.3,1.3c0.1,0.2,0.4,0.2,0.6,0.2c0.3,0,0.7-0.2,0.8,0.2
		c0.1,0.6-0.5,0.1-0.6,0.3c-0.4,0.7-0.8,1.4-2,1c0.6-0.5,0.5-1.2,0.3-1.8c-0.1-0.3-1.4-0.1-2.3,0.2c0.4,0.5,1.1,0.9,1,1.7
		c-0.8,0.6-0.7-1.4-1.8-0.3c0.6-1,0.9-1.8-0.6-1.6c-0.4,0.1-0.9-0.6-1.3-1c-0.2-0.2-0.1-0.4,0-0.6c0.2-0.3,0.4-0.2,0.7,0
		c0.9,0.6,1.1,0.1,1-0.7c-0.1-0.3-0.1-0.6,0.2-0.8c-0.6-0.4,0.9-1.1-0.1-1.2c-0.5-0.1-1.7-0.8-1.8,0.8c0,0.6-1.2,0.7-1.4,0.2
		c-0.7-1.7-2.1-1-3.2-1c-1.1,0-2.3,0.5-3.4,1c0.2,0.3,0.5,0.3,0.7,0.2c0.4-0.2,0.8-0.4,1.2,0c0.5,0.5-0.1,0.8-0.3,1.1
		c-0.2,0.4-0.9,1.1,0.4,0.7c0.3-0.1,0.9,0.9,1.5,0.2c0.1-0.1,0.3-0.2,0.2-0.4c-0.1-0.3-0.3,0-0.4-0.1c-0.4-0.2-0.8-0.3-0.3-0.9
		c0.4-0.5,1-0.5,1.4-0.6c0.2,0,0.3,0.6,0.5,1c0.3,0.7,0.6,1.6,1.7,1.2c-0.2,0.6-0.3,1.5-1.3,0.8c-0.2-0.1-0.7,0-1,0.1
		c-0.8,0.2-1.6,0.6-2.3-0.2c-0.3-0.4-0.4,0.2-0.5,0.2c-0.4-0.1-0.3,0.8-0.7,0.4c-1.1-1-2.5-0.3-3.7-0.6c-0.9-0.2-2-0.5-3.1-0.3
		c-0.6,0.1-0.9,0.5-1.4,1c-0.1-0.7-0.7-1.4,0.2-1.7c0.5-0.2,1.2,0.4,1.7,0c-0.7-0.7-2.7-1-3.5-0.6c-0.6,0.3-0.4,1.1-0.8,1.6
		c-0.1,0.2-0.1,0.7-0.3,0.6c-1.3-0.6-2.8,0.6-3.7-0.2c-0.8-0.7-0.9,0-1.3,0.1c-0.5,0.1-1.2,0.7-1.8-0.1c-0.2-0.3-0.6,0.1-0.7,0
		c-0.7-0.4-1.5,1.1-2.1-0.2c-0.1-0.2-0.5-0.1-0.7,0.1c-0.3,0.7-0.9,0.4-1.4,0.4c-0.5-0.1-1-0.3-1.4,0.3c-0.1,0.1-0.4,0.2-0.4,0.2
		c-1.2-0.6-2.5-0.3-3.8-0.6c-1.1-0.3-2.2-0.3-3.3-0.2c-0.6,0-1.2,0.4-1.9,0.5c-0.5,0-0.1,0.7-0.3,1c-0.2,0.2-0.3,0.9-0.8,0.2
		c-1-1.3-2.7-1.5-4.1-0.5c-0.5,0.4-1.1,0.6-1.7,0.6c0.1-0.2,0.1-0.3,0.1-0.3c0.3-0.2,0.9,0.1,1.1-0.4c0.1-0.4-0.1-0.7-0.4-0.9
		c-0.4-0.4-0.9-0.1-1.3,0.1c-0.5,0.3-1.2,0.3-1.2,1.1c0,0.2,0.1,0.5-0.2,0.5c-0.2,0-0.4-0.2-0.5-0.4c-0.5-1.2-1.1-2.2-2.6-1.2
		c-0.2,0.1-0.4-0.1-0.2-0.4c0.3-0.5-0.3-0.6-0.4-1c-0.1-0.4-0.6-0.7-1.2-0.6c-0.2,0.1-0.4,0.2-0.4,0.4c0.1,0.4-0.1,1.1,0.7,1.2
		c0.4,0,0.6,0.2,0.1,0.5c-0.1,0-0.2,0.1-0.2,0.1c0,0.5,0.4,1.4-0.6,1.3c-0.8-0.1-0.4-0.9-0.5-1.4c-0.3-0.8-0.4-0.9-1.1-0.4
		c-0.1,0.1-0.4,0.1-0.6,0.1c-1.3-0.4-2.1,0.2-2.7,1.3c-0.1,0.3-0.4,0.4-0.6,0.1c-0.2-0.4-0.6-0.4-1-0.5c-0.2,0-0.6,0-0.6-0.4
		c0-0.4,0.4-0.2,0.6-0.5c-0.4-0.3-1.2-0.2-1.3-1c0-0.3-0.1-0.2-0.4-0.1c-0.8,0.3-1.4,0.8-1.6,1.6c-0.2-0.1-0.3-0.1-0.4-0.2
		c-0.5-0.6-0.7-2.5-1.6-0.2c-0.2,0.5-1.4,0.7-1.8,0.2c-0.6-0.9-0.8-0.2-1.1,0.1c-0.3,0.3-0.7,0.5-0.3,1c0.4,0.6,0.7,0.4,1.1,0
		c0.2-0.2,0.5-0.2,0.7,0c0.1,0.1,0.3,0.3,0.1,0.4c-0.4,0.2-0.7,0.9-1,0.5c-0.6-0.8-1,0.2-1.4,0.1c0.2-1.1-0.1-2.1-0.8-2.9
		C59,78.8,59,79.9,59,79.9c0.3,0.5-0.2,0.5-0.3,0.7c-0.4-0.6-0.9,0.3-1.2-0.1c-0.2-0.3-0.1-0.6,0-1c0.2-0.5,1.5-1.1,2.1-1.2
		c1.6-0.3,3.2-0.3,4.7-0.2c1.5,0.1,2.7-0.1,4-0.7c0.3-0.2,0.7,0.3,1.1,0.4c1.1,0.2,2.3-1,3.5,0.1c0.6,0.5,1.7,0.3,2.4-0.1
		c1-0.6,1.9-0.8,2.9-0.3c0.5,0.3,1.1,0.6,1.5-0.2c0.2-0.4,0.7-0.3,0.9-0.2c0.7,0.5,1.4,0.2,1.9,0c1.2-0.6,2.5,0.3,3.6-0.6
		c0,0,0.1,0,0.1,0c0.6,1.3,2,0.2,2.9,0.9c0.4,0.3,1.2,0.6,1.9-0.1c0.4-0.4,1.6-0.5,2.2,0c0.9,0.7,1.7,0.1,2.4-0.1
		c0.9-0.3-0.4-0.7-0.2-1.2c0.8,0.1,0.9,0.8,1.1,1.4c0.9-1,2.3-0.5,3.2-1.2c0.1,0.4,0,1.1,0.4,1.1c1-0.1,2,0.8,3.1,0
		c-0.2-0.3-0.7,0-0.8-0.6c1.8,0,3.7,0.1,5.5-0.1c0.1,0,0.2,0.1,0.2,0.2c0.1,1.2,1.1,0.7,1.7,0.9c0.3,0.1,1.1,0,0.4-0.7
		c-0.1-0.1-0.2-0.5,0-0.7c0.1-0.1,0.2,0,0.4,0c-0.5,0.7,0.4,0.7,0.6,1.1c0.2,0.5,0.5,0.5,0.5,0.2c0.1-0.8,0.9-0.5,1.3-0.9
		c-0.4-0.2-0.8-0.4-1.4-0.7c0.6,0,0.8-0.1,1,0c0.4,0.2,0.8,0.1,0.8-0.3c0-0.3-0.4-0.3-0.7-0.4c-0.5-0.1-1,0-1.5,0.1
		c-1.8,0.2-3.7,0.7-5.4-0.3c-0.1-0.1-0.2-0.1-0.4,0c-1,0.8-2,1-3.1,0.3c-0.2-0.1-0.7-0.5-0.7-0.1c-0.2,1.1-1,0.5-1.5,0.7
		c0.2-0.6-0.1-1.1,0-1.7c0-0.3-0.1-0.4-0.3-0.4c-0.2,0-0.4,0-0.5,0.1c-0.8,0.9-1.9,1.5-2.8,1.3c-1.7-0.3-3.5-0.4-5.3-0.4
		c-1.4,0-2.8,0-4.2,0.1c0-0.1,0-0.2,0.1-0.2c0.1-0.1,1.6-1.5,1.8-1.8c0.2-0.2,0.5-0.2,0.7-0.1c0.3,0.2,0.7,0.2,1,0.2
		c0.4,0,0.9,0.5,1,0.9c0.3,0.8,1.1,0.8,1.5,0.6c0.6-0.2,1.6-0.2,1.4-1.4c-0.1-0.3,0.2-0.8,0.6-0.6c1.4,0.6,2.7-1,4.2,0
		c0.2,0.1,0.9-0.3,1.2-1c-1.9,0-3.7-0.4-5.6,0.2c-1.2,0.4-2.5-0.4-3.7,0.5c-0.9-1-2.1-0.4-3.1-0.4c-1.9,0-3.9-0.2-6.1,0.7
		c1.8,0.3,2.2,1.9,3.6,2.5c-1.7,0.4-2.7-1.1-4.2-1.4c0.1,0.5,0.2,0.9,0,1.4c-0.1,0.2-0.1,0.5-0.4,0.4c-1.4-0.4-2.7,0-4,0.3
		c-0.1,0-0.2-0.1-0.5-0.2c1-0.8,2-0.5,3-0.6c0.3,0,0.7,0.4,0.9-0.1c0.1-0.2,0.2-0.6,0-0.7c-0.2-0.3-0.6-0.2-0.9-0.1
		c-1,0.1-2.1,0.3-3.1-0.1c-0.3-0.1-1.1,0.1-0.7,0.6c0.6,0.7-0.2,1-0.4,1c-1,0.2-2,0.6-3.1,0.5c-0.2,0-0.5,0-0.5-0.1
		c-1-1.9-2.9-1.2-4.4-1.4c-2.3-0.3-4.6-0.1-7-0.4c-1.4-0.2-2.8-0.1-4.1,0.3c-0.8,0.2-1.6,0.1-2.4,0.2c-0.7,0.1-1.5,0-1.8,0.9
		c0,0.1-0.3,0.3-0.4,0.2c-1.6-0.7-3.4-0.1-5.1-0.7c-0.4-0.1-0.7-0.3-1-0.7c-0.5-0.7-1.2-1.1-2.1-0.7c-0.2,0.1-0.5,0.2-0.6,0.1
		c-0.8-1.2-2.3-0.4-3.2-1.1c-0.3-0.2-0.9-0.1-1.3-0.1c-0.2,0-0.4,0.2-0.5,0.2c-1.2-1.3-3.1-0.3-4.4-1.1c-0.5-0.3-1,0.4-1.6-0.1
		c0.8-0.1,1.4-0.2,1.3-1.2c0-0.3,0.4-0.6,0.9-0.2c0.9,0.7,2,0.1,3.1,0.4c0.3,0.1,0.8-0.1,0.6-0.7c-0.1-0.3,0.1-1-0.7-0.7
		c-0.2,0.1-0.6-0.2-1-0.4c0.6-0.6,1.2,0,1.8-0.1c0.2-0.1,0.6,0.3,0.6-0.3c0-0.2,0.1-0.6-0.3-0.5c-0.6,0.1-1.1-0.8-1.6-0.3
		c-0.2,0.2-0.3,0.3-0.6,0.2c-1.1-0.4-2.3-0.2-3.5-0.3c-1.3-0.1-1.2,0.8-1,1.4c0.2,0.7-0.3,1-0.6,1.2c-0.4,0.3-0.5-0.3-0.7-0.6
		c-0.2-0.5-0.1-0.8,0.5-0.8c0.6,0,0.3-0.4,0.3-0.7c0-0.4-0.3-0.4-0.7-0.3c-0.9,0.3-1.7,0.1-2.4-0.6c-0.1-0.1-0.2-0.2-0.4-0.1
		c-0.6,0.3-1.1,0.8-1.9,0.8c-0.8,0-1.5-0.4-2.3-0.1c-0.3-0.4,0.4-0.9-0.1-1c-0.4-0.2-1.1-0.2-1.3,0.2c-0.5,1-1.5,0.6-2.3,1
		c-0.9,0.4-2,0.6-3,0.8c-0.8,0.2-1.6-0.1-2.3-0.4c-0.6-0.2-1.3,0.1-1.8,0.4c-0.8,0.4-1.5,0.8-2.4,0.3c-0.1-0.1-0.3,0.3-0.3,0.1
		c0.4-1,0.2-2.5,1.8-2.6c0.3,0,0.7-0.2,0.9-0.8c-1.7,0.7-3.2-0.2-4.8,0c-1,0.1-2.4,0-3.5-0.6c-0.2-0.1-0.6-0.1-0.5-0.4
		c0-0.2,0.2-0.6,0.3-0.7C4.4,63.2,4.8,63,5,63.4c0.3,0.5,0.5,0.4,0.9,0.1c0.7-0.4,1.4-0.2,2.1-0.1c0.4,0.1,0.8,0,1.2-0.1
		c0.1,0,0.2-0.1,0.2-0.2c0.1-0.2-0.1-0.3-0.3-0.3c-0.6,0.1-1-0.2-1.5-0.3c-0.5-0.1-1.3-0.1-1.2-0.6c0-0.4,0.3-1.1,1-1.3
		c0.1,0,0.2-0.2,0.3-0.4c-1-0.5-2,0.5-3.1-0.1c-0.4-0.2-0.1,0.9-0.7,1c0.3,0.5,1.1-0.1,1.2,0.8c-0.4-0.1-0.8-0.4-1.2-0.4
		c-0.6,0.1-1,0.1-0.6-0.7c0.1-0.2,0.1-0.6-0.4-0.4c-0.5,0.2-0.6,0-0.7-0.4c-0.4-1.2-0.5-1.2-1.3-0.5c0.5-1.2,0.5-1.1,1.7-1.3
		c0.8-0.1,1.7,0.3,2.6-0.1c-0.3,0.4-0.8,0.8-0.4,1.3c0.3,0.4,0.8,0.6,1.4,0.3c0.4-0.2,0.8-0.1,1.1-0.1c0.4,0,1.2,0.2,0.6-0.7
		c-0.2-0.3,0-0.4,0.2-0.5c0.3-0.1,0.5,0,0.4,0.4c-0.1,0.3,0.1,0.4,0.3,0.4c0.2,0,0.4-0.2,0.3-0.4c-0.2-0.9,0.2-0.8,0.8-0.7
		c0.4,0.1,1,0.4,1.1-0.5c0-0.4,0.1-0.6-0.4-0.6c-2.2-0.1-4.4,0.1-6.6,0.4c-0.4,0.1-1.3,0.5-0.8-0.7C3.4,56.5,3,56,2.8,56.2
		c-0.7,0.5-1.6-0.1-2.2,0.6c-0.3-0.4,0.1-0.6,0.1-1c-0.1-0.6-0.2-1.1,0.9-0.7c0.8,0.3,2.1-0.3,3-0.7c1-0.4,2-0.3,2.9-0.5
		c0.5-0.1,1,0,1.4-0.4c0.3-0.3,0.6-0.1,0.9,0.1c0.7,0.6,1.5,0,2.2-0.2c-0.1-0.4,0.7-0.5,0.4-0.7c-0.5-0.5-1.5-0.8-0.3-1.6
		c0.1-0.1-0.1-0.3-0.3-0.3c-0.4,0-0.8-0.2-1,0.4c-0.1,0.3,0.1,0.8-0.6,0.8c0.2-0.8,0-1.4-1-0.8c-0.4,0.3-0.3-0.1-0.4-0.2
		c-0.2-0.2-0.1-0.3,0.1-0.4c1-0.1,1.1-0.6,0.7-1.4c-0.4-1,0.5-0.7,1.3-0.9c-1.1,0.9-0.5,1.2,0.1,1.5c0.1-0.8,1.4-2,2.2-2
		c0.5,0,1-0.2,1-0.6c0-0.6-0.6-0.3-0.9-0.3c-1.2-0.1-2.5-0.1-3.7,0.3c-0.1,0-0.2,0.1-0.2,0.1c-0.9-0.5-1.7-0.3-2.5,0.1
		c-0.4,0.2-0.5-0.6-0.7-1.1c0.4,0.4,0.8,0.5,1.2,0.1c0.6-0.5-0.1-0.7-0.2-1.1c0.4-0.2,0.8-0.3,1.1,0c0.3,0.4,0.5,0.5,0.7,0
		c0.1-0.3,0.9-0.4,0.2-0.8c-0.4-0.2-0.2-0.5-0.2-0.8c0-0.4-0.3-0.6-0.6-0.2c-0.6,0.8-1.2,0.7-2,0.4c-0.4-0.1-0.9-0.2-1.4,0
		c-0.2,0.1-0.6,0.1-0.6-0.3c0-0.4,0.2-0.6,0.5-0.6c1.6,0.3,3.2,0,4.6-0.8c0.8-0.5,1.8,0.2,2.4-0.7c-0.3-0.5-0.8-0.1-1.3-0.3
		c-0.1-0.4,0.8-0.3,0.6-0.8c0,0-0.2-0.1-0.2-0.1c-0.5,0.2-1.2,0.2-1.5,0.7c-0.3,0.4-0.6,0-0.6-0.1c-0.4-0.6-0.8-0.4-1.2,0
		c0,0-0.3,0.3-0.4,0c0,0,0.3-0.2,0.3-0.3c0.1-0.5-1.2,0.2-0.7-0.7c0.3-0.5,0.7,0.4,1.1,0.3c0.3-0.1,0.5-0.3,0.3-0.6
		c-0.2-0.5-0.3-0.7,0.3-0.9c0.6-0.2,0.9,0,1.2,0.3c0.3,0.4,0.4,0.4,0.6-0.1c0.3-0.5,0.7-0.3,1.1-0.3c0,0.5-0.9,0.4-0.6,0.9
		c0.4,0.6,1,0,1.5,0.1c0.8,0.1,0.1-0.5,0.1-0.7c0.3-0.9,1.3-0.7,1.9-0.8c1.8-0.1,3.6-0.9,5.5-0.5c0.2,0,0.5-0.2,0.5-0.3
		c0.1-0.4-0.3-0.2-0.4-0.3c-0.4-0.7,0.6-0.2,0.6-0.7c-1.1,0.1-2.1-0.2-3.3,0c-1.2,0.2-2.6,0.2-3.8,0.1c-1-0.1-1.8-1-1.9-1.8
		c-0.1-0.6,0.9-1.3,1.7-1.5c0.2-0.1,0.8-0.1,0.9-0.1c1.5,1.6,1.9-0.4,2.9-0.8c0.2-0.1,0.3-0.3,0.4-0.3c1.2-0.2,2.5-0.4,3.8-0.5
		c-0.3-0.6-0.8-1.2-1.1-1.8c-0.5-1.1-0.2-2,0.9-2.3c1.1-0.3,2.1-1.2,3.4-0.6c0.3,0.1,0.7-0.1,1.1-0.2c0.4-0.2,1-0.5,1.4-0.2
		c1.2,1,0.8-0.2,1-0.6c-1.1-0.4-2.2,0.5-3.1-0.4c-0.4,0.6-1.1,0.4-1.6,0.4c-0.8,0-1.3-0.6-1.8-1.1c-0.1-0.1,0-0.4,0.2-0.3
		c0.1,0,0.3,0.2,0.3,0.2c0.5-0.4,1.7,0.1,1.6-0.7c0-0.7-1-0.3-1.6-0.4c-0.3,0-0.5,0-0.8,0c-0.4,0-0.7,0-0.9-0.4
		c-0.2-0.3,0-0.5,0.2-0.7c0.4-0.3,0.7,0,0.9,0.2c0.8,0.8,1.5-0.3,2.3,0c0.2-0.8,0.9-1.2,1.1-1.9c0.5-1.2,1.4-0.9,2.1-0.7
		c0.8,0.3,1.7,0.4,2.6,0.8c0.5,0.3,1.6-0.3,2.3-0.6c0.3-0.1,0-0.6-0.4-0.8c-0.4-0.2-0.8,0.1-1.1,0.1c-1.4,0.1-2.4-0.8-3.8-0.9
		c-1,0-1.9-0.1-2.7,0.9c0.1-2.3-2-3.3-2.8-5c0.1-0.1,0.2-0.2,0.3-0.1c1,0.7,1,0.7,2.2,0.5c1-0.2,1.8,0.6,2.7,0.3
		c0.4-0.1,1.1,0.5,0.9-0.6c0-0.2,0.6-0.3,0.8-0.2c0.6,0.2,1.2,0,1.8,0c-0.5-0.8-1.4-0.5-2.1-0.6c-1.6-0.4-3.2-0.2-4.8-0.7
		c-0.8-0.2-0.7-1.7-1.8-1.1c0-0.1,0.1-0.3,0.1-0.3c0.7,0-0.4-0.9,0.6-0.9c2.9,0.1,5.8-0.8,8.6-0.1c0.3,0.1,0.4,0,0.7-0.7
		c0.6,0,0.1,1,0.7,0.9c0.9-0.2,1.3-1,1.6-1.8c-0.9-1.2-2.2-0.4-3.3-0.5c-0.1,0-0.3,0.1-0.3,0.2c-0.6,0.8-1.6,1.2-2.7,1
		c-0.8-0.2-1.6-0.4-2.4-0.3c-0.2-0.5,0.9-0.2,0.5-1c-0.6-1.1-1.3,0.1-2-0.3c0.6-0.5,1.3-0.6,1.8-0.5C26.2,8,26.7,7.6,27,7.1
		c0.9-1.4,2.2-2.3,3.4-3.4c0.2-0.2,0.6-0.2,0.4-0.5c-0.4-1.2,0.5-0.3,0.7-0.6c0.4,0.6-0.8,0.5-0.3,1.1c0.4,0.5,0.7,0.2,1.1,0
		c0.8-0.4,1,0.3,1.3,0.8c-0.1,0.1-0.1,0.2-0.2,0.2c-0.9,0.7-2,1-3.1,0.9c-0.3,0-0.7,0-1-0.1c-0.8-0.1-0.6,0.5-0.7,0.9
		c0,0.5,0.4,0.5,0.8,0.5c1.3,0.1,2.7,0.2,3.8,0c1.1-0.2,2,0.6,3.1,0.1c0.6-0.3,1.1,0,1.3,0.9C37.9,6.6,38.7,7,39.3,7
		c1.6,0,3.3-0.2,4.8,0.1c1.3,0.2,2.5-1,3.8,0c0.2,0.2,1.2-1,2.1-0.9l0,0c0.4,0.8,1.2,0.5,1.8,0.6c1.1,0,2.2,0.3,3.2-0.4
		c0.3-0.2,0.4,0,0.5,0.2c0.2,0.4,0.5,0.7,0.8,0.9C56.6,7.7,56.8,8,57,7.8c0.2-0.2,0.2-0.5,0.3-0.8c0.1-0.3,0-0.5-0.3-0.5
		c-0.2,0-0.6,0.1-0.5-0.3c0.1-0.3,0.4-0.2,0.6-0.1C58.8,6.2,60.4,6.1,62,6c1.4,0,2.9-0.3,4.4-0.2c0.9,0,2.2,0.3,3.2-0.6
		c0.5-0.4,1.3-1.2,1.9,0c0.2,0.4,0.4,0.2,0.6,0c0.4-0.2,0.2-0.6,0.2-0.9c0-0.4-0.2-0.5-0.6-0.5c-1.3-0.1-2.5,0.1-3.5,0.7
		c-0.8,0.5-1.7-0.3-2.3,0.4c0,0-0.2-0.1-0.2-0.1c-0.6,0-1.1-0.4-1-1c0,0,0-0.1,0-0.1c0-0.5-1.1,0-0.7-0.8c0.3-0.6,0.8-0.1,1.1-0.2
		c0.4-0.1,0.8-0.3,1.3-0.3c2-0.3,4-0.1,6-0.3c2.6-0.4,5.2-0.4,7.7-0.3c0.3,0,0.6,0.2,0.8,0.4l0,0c-0.2,0-0.5,0.2-0.5,0.4
		c0.1,1.2-0.8,1.3-1.5,1.2c-1.7,0-3.5,0.5-5.2,0c-0.2-0.1-0.8,0.2-0.8,0.8c0,0.5,0.4,0.6,0.7,0.5c1.2-0.3,2.6,0.3,3.7-0.6
		c0.1-0.1,0.4-0.2,0.4-0.2c1.7,1,3.4-0.1,5.1-0.1c0.9,0,1.9,0.2,2.8-0.2c0.2-0.1,0.5,0,0.6,0.1C87,4.7,86.9,4.4,88,4.3
		c0.9,0,2.2-1.1,3,0.5c0.2,0.4,0.7,0.2,0.9-0.2c0.4-0.7,1.1-0.7,1.6-0.3c1.1,1,2.2,0.4,3.2,0c0.7-0.3,1.3-0.5,2.2-0.6
		c-0.7-0.6-1-1.5-1.9-1.6c-0.2,0-0.7-0.1-0.5-0.7c0.2-0.4,0.2-1.1,0.7-0.9c1.7,0.7,3.2-0.5,4.9-0.2c1,0.2,2.1-0.3,2.6,1.4
		c0.3-0.9,0.4-1.8,1.3-1c0.2,0.2,0.5-0.1,0.7-0.2c0.5-0.4,1.3-0.5,1.6-0.2c0.8,0.8,1.4,0.3,2.1-0.1c0.4-0.3,0.9-0.2,1.4-0.2
		c2,0,3.9,0.1,5.9,0.1c1.2,0,1.6,0.8,2,1.6c-1.8,0.5-3.6,0-5.2-0.2c-1.5-0.2-2.7,0.9-4.1,0.3c0.6,0.4,1.2,0.8,1.9,0.8
		c0.4,0,0.9,0.1,1.1,0.5c0.2,0.4,0.4,0.5,0.6,0.1c0.7-1,1.7-0.8,2.5-0.3c0.7,0.4,1.4,0.5,2.1,0.6c1,0.1,2.1-0.1,1.7-1.7
		c2,0.5,3.9,1,5.8,1.4c0.4,0.1,0.5-0.6,1.1-0.4c1.1,0.3,3,0.2,4.2-0.1c0.4-0.1,1-0.5,1.3,0.3c0,0.1,0.5,0.7,0.9,0
		c0.3-0.6,0.4,0.2,0.6,0.2c0.4-0.1,1.2,1.1,1.3-0.4c0-0.5,0.6-0.2,0.8,0c0.3,0.5,0.8,0.8,1.3,0.5c0.5-0.2,0.2-0.7,0-1.1
		c-0.2-0.6,0.1-0.9,0.6-1.1c0.5-0.2,0.6,0.2,0.8,0.5c0.1,0.2,0.2,0.8,0.7,0.5c0.4-0.3-0.1-0.7-0.2-1c1.1,0.7,2.7,0.5,3.4,2
		c-0.9,0.5-1.6-0.2-2.3-0.4c-0.2-0.1-0.6-0.4-0.5,0.1c0.1,0.4-0.7,0.4-0.2,0.8c0.7,0.6,4.1,0.8,4.8,0.3c0.2-0.1,0.4-0.3,0.4-0.7
		c-0.7,0.3-1.2-0.1-1.8-0.4c0.6-0.4,1.7,0.2,1.4-1c0-0.2,0.2-0.3,0.4-0.3c1.5-0.1,3.1,0.1,4.6,0.5c0.2,0.1,0.4,0.2,0.4,0.5
		c0,0.4,0.3,0.6,0.5,0.4c1-0.9,2.3-1.1,3.5-1.2c1.1-0.1,2.3,0.5,3.5,0.1c0.1,0,0.4,0.4,0.6,0.6c-0.3,0.5-1-0.2-1.3,0.4
		c-0.2,0.3,0.4,1.3,0.8,1.3c2.5,0,4.9-0.7,7.4-0.4c0.4,0,0.5-0.3,0.7-0.5c0.8-0.9,1.6-0.8,1.9,0.3c0.1,0.4,0.2,0.4,0.6,0.4
		c0.9,0,0.7-0.7,0.8-1.5c0.3,0.9,1.2,0.9,1.5,0.9c1-0.1,1.8,0.3,2.6,0.7c0.7,0.4,1.4,0.3,2-0.3c0.4-0.4,0.9-0.5,1.5-0.4
		c1.1,0.2,2.2,0.2,3.5-0.7c-0.3,0.8-0.6,1.5,0.4,1.2c0.8-0.2,1,0.5,1.5,0.9c0.3-0.6,0.1-1.1-0.3-1.7c1.6,0,2.7,1.2,4.2,1.2
		c0.5,0,1,0.1,1.5-0.2c0.5-0.3,0.9-0.2,1.5,0.1c0.4,0.2,1.1,1,1.4-0.2c0.1-0.4,0.5-0.1,0.6,0.1c0.3,0.3,0.5,0.7,0.7,1.1
		c0.6,1.2,1.6,1.1,2.7,1c1.4-0.2,2.7-0.6,3.8-1.4c-0.3-0.6-0.9,0-1.1-0.5c0.9-1.1,2.3-0.9,3.5-1.3c0.1,0,0.2,0.1,0.3,0.2
		c0.3,0.5-0.7,0.2-0.4,0.9c0.4,0.8-0.4,0.3-0.6,0.3c-0.5,0.1-1.1,0-1.2,0.7c-0.2,0.9,0.7,0.4,1,0.6c0.2,0.1,0.6,0.1,0.9,0.1
		c0.2,0,0.5,0,0.9,0c-0.7,0.9-1.5,0.6-2.2,0.6c-0.6-0.1-1.1,0-1.7,0c-0.4,0.1-1.1,0.1-0.5,0.8c0.1,0.1,0,0.3-0.1,0.5
		c0,0.3-0.8,0.3-0.3,0.7c0.5,0.4,0.9-0.1,1.1-0.4c0.2-0.3,0.5-0.4,0.6-0.3c0.9,1.1,1.1,0.4,1.6-0.4c0.7-0.9,1.9-0.3,2.6,0.1
		c1,0.5,1.8,0.4,2.7,0.1c0.8-0.3,1.3-0.3,1.4,1c0.7-1.4,1.3-1.1,2.1-0.4c0.6,0.5,1.4,0.9,2.3,0.7c0.3-0.1,0.6-0.2,0.5-0.6
		c-0.1-0.2-0.3-0.4,0.1-0.5c0.3-0.1,0.6,0.1,0.6,0.3c0.3,1.5,1.6,0.7,1.9,0.4c1.5-1,3-1.6,4.8-1.8c0.1,0,0.2-0.1,0.3-0.1
		c-0.5-0.6-1.1-0.4-1.8-0.1c0.6-0.6,1.6-0.8,2.1-0.3c0.5,0.5,0.8,0.5,1.2,0c0.1-0.2,0.5-0.2,0.7-0.2c0.8,0,1.6,0.4,2.4-0.3
		c0.2-0.1,0.9-0.1,1.3,0.5c0.3,0.5,2.2,0.6,2.7,0.2c0.4-0.3,0.4-0.3,0.2-1.2c0.6,1.2,1.3,1.7,2.4,0.9c0.2-0.1,1-0.3,1,0.5
		c0,0.7,0.4,0.7,0.8,0.3c1.1-0.9,2.2-1,3.3-0.2c0.6,0.4,1.2,0.1,1.8,0c0.2,0,0.4-0.3,0.7,0c0.2,0.2,0.1,0.4-0.1,0.4
		c-0.3,0.1-0.2,0.7-0.6,0.4c-0.7-0.4-1-0.2-1.2,0.5c-0.2,0.8,0.4,0.8,0.8,1.1c0.3,0.2,0.5,0.3,0.7,0.7c-2.4,0.9-5.4-0.4-7.5,2
		c0.6,0.2,1.3,0.2,1.7-0.1c0.4-0.3,1.1-0.3,1.1-0.2c1.6,1.1,3.5-0.4,5.2,0.6c0.4,0.3,0.7-0.3,1-0.5c0.8,3.6,2-0.2,2.9,0.2
		c0.2,0.5-0.7,1,0.1,1.4c0,0,0,0.1,0,0.1c-0.7,0.6-1.1,1.3-0.9,2.3c0,0.3-0.6,0.6,0.1,1c0.3,0.1,0.3,0.7,0.4,1
		c-0.4,0.1-0.7,0.4-1.2,0.3c-1.7-0.1-3.4-0.3-5.1-0.1c-0.7,0.1-1.2,0.2-1.9,0.4c1.7,1.7,3.8,0.7,5.7,0.9c0.3,0,0.6-0.1,0.8,0.2
		c0.7,0.5,1.3,0.6,1.8-0.2c0.2-0.3,0.6-0.4,0.8-0.2c0.3,0.4-0.1,0.5-0.4,0.5c-0.1,0-0.2,0.1-0.2,0.1c-0.4,1.8-1.8,1.6-3.2,1.7
		c-0.3,0-0.7-0.4-0.9,0c-0.5,0.7-1,1.4-1.7,2c-0.2,0.1,0.2,0.5,0.3,0.3c0.4-0.5,1.1,0.2,1.6-0.6c0.4-0.7,0.5,0.7,1.1,0.3
		c-0.6-1.5,1.5-0.3,1.3-1.8c0.4,0.7-0.2,0.9,0.1,1.2c0.3,0.2,0.5-0.1,0.7-0.2c0.2-0.2,0.5-0.4,0.7-0.2c0.8,0.9,2,0.7,2.8,0.5
		c1-0.2,1,0.7,1.7,0.8c0.8,0.1,1.5,0.1,2.3,0.2c1.3,0.1,2.6-0.5,3.9,0.1c0.1,0,0.3,0,0.3-0.1c0.8-1.1,2.1,0,3-0.6
		c0.2-0.1,0.2,0.3,0.3,0.5c0.1,0.3,0.1,0.5-0.3,0.6c-0.4,0.1-0.8,0.2-1.1-0.1c-0.3,0.5-1.2-1.4-1.2,0.3c-0.9-0.2-1.7,0.4-2.6,0.2
		c-0.8-0.1-1.5,0.2-1.6,1c-0.2,1,0.3,1.5,1.8,1c-0.9,0.8-1.6,0.9-2.3,1c-0.3,0-0.7,0.1-0.7,0.4c0,0.5,0.4,0.4,0.7,0.5
		c0.6,0.3,1.1,0,1.7,0.1c0.2,0.1,0.5-0.3,0.7,0.1c0.1,0.3-0.1,0.5-0.4,0.7c-0.3,0.2-0.6,0.5-1.1,0.6c1.5,1.3,3.2,1.2,4.9,1.1
		c0.4,0,0.4,0.2,0.4,0.5c0,0.4,0.4,0.6,0.6,0.5c0.6-0.1,0.2-0.4,0.1-0.6c0.7-0.1,1.3-0.5,2-0.2c0.2,0.1,0.5,0.2,0.7,0.4
		c0.9,1.2,2,1.7,3.4,1.2c1.3-0.5,1.8,0.5,2.7,1c-1-0.2-1.5,0.1-1.9,1.1c-0.4,1.1-0.9-0.2-1.3-0.2c-0.2,0.4,0.4,1.3-0.8,0.7
		c-1.1-0.4-2.4-0.2-3.7-0.3c-0.4,0-1-0.2-1.1,0.4c-0.1,0.6,0.5,0.7,0.9,0.9c0.2,0.1,0.4,0.1,0.7,0.2c-0.4,0.6-1.4-0.1-1.6,0.9
		c1,0.1,2,0,3,0.2c0.5,0.1,1.5-0.2,1.2,1.1c-0.2,0.7-0.1,0.6-0.8,0.5c-0.6-0.1-1.1-0.3-1.9-0.1c-1.9,0.5-3.2,2.1-5,2.6
		c0.1-1.2,0.1-1.1,1.3-1.2c0.4,0,0.9,0.1,1-0.6c0.1-0.7-0.4-0.8-0.8-0.8c-1.2,0-2.5,0.1-3.7,0.2c-0.2,0-0.5,0.1-0.4,0.2
		c0.6,1-0.5,1.7-0.4,2.5c0,0.2-0.4,0.6,0.1,0.7c0.4,0.1,0.6-0.1,0.7-0.4c0.1-0.6,0.6-0.7,1.2-1.1c-0.6,1.5,0.3,1.4,1.1,1.3
		c0.7,0,1.4-0.2,2-0.1c1,0.2,2.4,0,2,1.8c0.9-0.2,1.7-0.2,1.8-1.3c0-0.3,0.5-1,1.3-0.5c0.7,0.5,1.2-0.3,1.6-0.6
		c0.5-0.3-0.2-0.6-0.4-0.9c-0.3-0.4,0-0.7,0.2-0.9c0.2-0.3,0.6,0,0.8,0.2c0.6,0.7,0.4,1.7-0.6,2.2c-0.4,0.2-0.5,0.6-0.6,0.9
		c-0.1,0.4,0.4,0.2,0.5,0.3c0.1,0.1,0.3,0.2,0.3,0.2c-0.1,0.1-0.2,0.3-0.3,0.4c-1.2,0.3-2.2,1-3.4,1.1c-1.2,0-2.6-0.9-3.8,0.4
		c-0.1,0.1-1.6,0.6-2-0.5c-0.1-0.1-0.5-0.2-0.6-0.1c-0.8,1.5-1.9-0.1-2.9,0.3c-0.2,0.1-0.8,0.3-1-0.3c0-0.1-0.4-0.3-0.4-0.1
		c-0.4,1.6-1.7,0.7-2.6,1.1c0.9,0.1,1.2,1.5,2.4,0.7c0.2-0.2,0.6-0.2,0.9-0.1c1.2,0.3,2.5,0.4,3.7,0.2c0.4,0,0.8,0.1,1,0.5
		c-0.6,0-1,0.6-1.6,0c-0.3-0.3-0.5,0.1-0.7,0.3c-0.2,0.2-0.3,0.4-0.2,0.6c0.2,0.3,0.5,0.2,0.7,0.1c0.6-0.2,1,0.7,1.8-0.1
		c-0.7,1.5-1.7,1-2.5,1.2c-0.3,0-0.7-0.1-0.7,0.4c0,0.4,0.4,0.2,0.6,0.3c0.9,0,1.9,0.1,2.8,0.1c-1.1,0.8-2.4,1.2-3.7,1.5
		c-0.3,0.1-0.4,0.4-0.4,0.7c0.1,0.5-0.3,0.7-0.5,1c-0.2,0.5-0.4,0.1-0.6,0c-0.3-0.2,0-0.3,0.1-0.4c0.2-0.1,0.3-0.3,0.5-0.4
		c-0.4-0.4,0.5-0.7,0-1c-0.3-0.2-0.7,0.1-0.9,0.4c-0.4,0.7-1.1,0.6-2.1,0.6c1.4,0.5,1.5,1.8,2.5,2.1c-2.4,0.5-3.7,3-6.3,3.3
		c0.5,0.6,1.3,0,1.6,0.9c-0.5,0.2-1.1,0.3-1.6,0.1c-0.6-0.2-1,0-1.5,0.2c-0.7,0.3-1.5,0.3-2.2-0.1c-1-0.5-2,0.1-3.1,0.1
		c-2.5,0.1-4.8,0.9-7.3,0.9c-0.7,0-1.4,0.2-2.1,0.4c-0.2,0.1-0.7-0.1-0.6,0.4c0.1,0.3,0.4,0.5,0.7,0.3c0.3-0.2,0.5-0.3,0.8-0.1
		c0.2,0.4-0.7,0.2-0.4,0.6c0.1,0.2,0.5,0.4,0.8,0.1c0.4-0.4,0.6-0.2,0.9,0.2c0.5,0.7-0.4,0.3-0.4,0.6
		C226.5,63.9,225,63.6,224.6,64.5L224.6,64.5z M150.6,73.5c-1-0.6-2-0.8-3.1-0.5c-0.9,0.2-2,0.5-2.9,0.4c-3.1-0.6-6.2-0.2-9.4-0.3
		c-2.3-0.1-4.7,0-7-0.1c-2.6-0.1-5.2,0.4-7.8,0c-0.6-0.1-1.6-0.5-1.8-0.3c-1.7,0.9-3.4,0.1-5.1,0.2c-2.1,0.2-4.2,0.3-6.3,0.3
		c-1.8,0-3.7,0.7-5.5,0.2c-0.6-0.2-0.5,0.5-0.8,0.7C117.5,74.4,134.1,74.4,150.6,73.5z M213.6,62.7c-0.8,0.4,0.3,0.8,0.5,0.9
		c0.7,0.4,1.5-0.3,2.3-0.1c0.2,0,0.3-0.4,0.3-0.9c-0.5,0.3-1.1,0.4-1.5-0.4c0.8,0.5,1.6,0.1,2.3,0.2c0.5,0.1,0-0.9,0.4-0.5
		c0.4,0.5,1,0.5,1.5,0.9c0.6,0.4,1.3,0.9,1.2,1.5c-0.1,0.9,0.3,1.1,0.9,1.4c0.3-0.2-0.1-0.9,0.6-0.9c0.4,0,1,0.5,1.2-0.3
		c-0.7-0.4-1.8-0.3-2.4-1.1c1.1,0.6,2.2-0.7,3.3,0.4c0.2,0.2,0.4,0,0.5-0.2c0.2-0.4,0.4-0.6,0.9-0.6c0.2,0,0.5,0,0.5-0.3
		c0-0.3-0.3-0.3-0.5-0.3c-1.3-0.2-2.6-0.5-3.9-0.7c-0.5-0.1-1.1,0.2-1.2,0.4c-0.7,1.3-1.3,0.2-1.7-0.1c-0.6-0.5-1.2-0.7-2-0.6
		c-1.3,0.2-2.5,0.7-3.9,0.4c-0.7-0.1-1.9,0.3-2,1.6C212.2,63.5,213.1,63.4,213.6,62.7z M145.2,76.1c0.5-0.3,1.5,0.1,1.4-0.5
		c-0.1-0.8-1-0.5-1.6-0.5c-0.1,0-0.2,0-0.3,0c-2,0-4,0-6,0.2c-1.8,0.2-3.6-0.2-5.3,0.3c-0.8,0.2-0.5,0.5-0.2,0.9
		c0.3,0.4,0.7,0.4,1.1,0.3c1.3-0.3,2.6,0,3.9,0.2c0.5,0.1,0.9,0.1,1.2-0.3c0.7-0.8,1.6-0.8,2.4-0.6C143,76.2,144.1,75.8,145.2,76.1z
		 M21.4,62c-2.2,0-4.2,0.4-6.2,0.2c-0.2,0-0.8,0-0.8,0.5c0,0.5,0.5,0.5,0.9,0.5c0.7-0.1,1.2-0.1,1.3,0.9c0,0.1,0.3,1.8,1.1,0.3
		c0.1-0.2,0.3-0.2,0.6,0c1,0.6,2.1,0.1,3.2,0.1c0.2,0,0.4,0,0.4-0.2c0.1-0.3-0.2-0.3-0.4-0.5c-0.6-0.4-1.2-0.5-1.9-0.4
		c-0.3,0.1-0.7,0.1-0.7-0.3c0-0.3,0.3-0.2,0.6-0.2C20.2,63.1,20.7,62.7,21.4,62z M109.9,1.8c-2,0.1-4,0.3-6,0.4
		c-0.5,0-1.1,0.3-1-0.7c0.1-0.7-0.8-0.7-1.2-0.6c-0.9,0.1,0.2,0.4,0,0.6c-0.1,0.2-0.1,0.3-0.3,0.4c-0.5,0.2-0.7,0.5-0.4,1
		c0.2,0.5,0.6,0.5,1.1,0.5c1.5,0.1,3-0.3,4.6-0.2C107.7,3.2,109.4,3.9,109.9,1.8z M170.4,76.4c1.1,0,1.2-0.5,1.2-1.6
		c0-1.2-0.7-0.4-1-0.6c-1-0.6-0.6,0.5-0.8,0.7c-0.5,0.6-0.5-1.5-1.2-0.2c-0.2,0.4-0.8,0.6-1.3,0.5c-0.7-0.1-1.4,0.1-2.1,0.2
		c-0.3,0.1-0.8-0.1-0.8,0.4c0,0.5,0.6,0.4,0.8,0.4C166.9,76.4,168.7,76.4,170.4,76.4z M163.6,76.5c-0.2-0.6-0.9-0.7-0.6-1.3
		c0.1-0.2,0.7-0.1,0.4-0.6c-0.2-0.3-0.6-0.1-0.8-0.1c-0.8,0-1.6,0-2.4,0.1c-0.4,0-0.9-0.1-1.1,0.3c-0.3,0.7,0.8,0.2,0.6,0.9
		c-0.6-0.4-1.2-0.3-1.8-0.2c-0.6,0-0.4,0.7-0.3,0.7c1.2-0.1,0.2,0.7,0.5,1c0.9-0.8,2.4,0,3.3-1.2c0.1-0.2,0.3,0,0.2,0.2
		c-0.2,0.7,0.4,0.4,0.6,0.4C162.7,76.6,163.1,76.2,163.6,76.5z M232.5,13.6c-0.5,1.7-0.4,1.9,0.8,1.9c1.2,0,2.5-0.1,3.4-0.5
		c1.1-0.4,1.9-0.4,2.9-0.2c0.3,0.1,0.6-0.1,0.7-0.4c0.1-0.4-0.4-0.5-0.6-0.5c-0.8,0.1-1.6-0.1-2.4,0.1c-0.6,0.1-2.1,0.7-1.2-1.2
		C234.8,13.2,233.8,14.3,232.5,13.6z M153.7,76.5c1.2,1.1,2.6,0.7,3.6-0.9c0.1-0.2,0.7-0.5,0.3-0.8c-0.3-0.3-0.8-0.5-1.2,0
		c-0.9,1.3-2,1.2-3.3,1c-0.5-0.1-1.1,0.2-1.5,0.5c-0.2,0.1,0.2,0.6,0.4,0.8c0.4,0.4,1,0.5,1.6,0.3C154,77.3,153.4,76.9,153.7,76.5z
		 M215.1,10.3c0.5,0,0.8,0,1-0.1c0.4,0,0.8-0.1,0.7-0.5c-0.1-0.4-0.6-0.8-1-0.7c-0.9,0.3-2-0.1-2.8,0.5c-0.2,0.2-0.6,0.1-0.7-0.3
		c-0.1-0.2-0.1-0.4-0.4-0.2c-0.9,0.6-1.9,0.9-3,0.6c-0.2-0.1-0.3,0.1-0.4,0.2c-0.1,0.2,0.1,0.3,0.2,0.3c0.2,0.1,0.5,0.1,0.7,0.2
		C211.4,10.7,213.3,10.1,215.1,10.3z M183.9,7.3c0.6,0.1,1,0.1,1.3,0.2c2.3,0.5,4.6,0.3,6.8,0.3c0.3,0,0.9,0.1,1.1-0.5
		c-0.7-0.2-0.7-1-1.3-1.2c-0.5,1.4-1.6,0.5-2.4,0.7c-1.1,0.2-2.3,0.5-3.3,0.2C185.2,6.7,184.7,6.8,183.9,7.3z"/>
	<path d="M80.8,2.3c0.6-0.7,1.1-1,2.2-0.7c0.8,0.2,1.9-0.1,2.8-0.3c1-0.3,1.9,0.3,2.9,0.2c0.2,0,0.7,0.2,0.1,0.6
		C88.6,2,88.3,2,88.6,2.3c0.1,0.2,0.3,0.2,0.5,0.1c0.4-0.2,0.8-0.2,0.9-0.9c0.1-0.8,0.9-1.2,1.6-0.9c1.2,0.6,2.3,0.1,3.4,0
		c0.3,0,0.5-0.2,0.6,0.1c0.2,0.5,0.5,0.9,0.4,1.5c-0.1,0.4-0.5,0.3-0.8,0.2c-0.7-0.1-1.3,0.2-2,0.3c-0.9,0.1-1.8,0.8-2.6-0.2
		c0,0-0.2-0.1-0.2-0.1c-1.2,1.5-2.9,0.6-4.2,0.7c-1,0.1-2.2,0.1-3.3-0.2c-0.6-0.1-1,0.2-1.5,0.6C81,3.2,81.3,2.6,80.8,2.3L80.8,2.3z
		"/>
	<path d="M224.6,64.5c0.9,0.6,1.8,0.6,2.9,0.3c0.7-0.2,1.3-0.5,2-0.5c1,0.1,1.4-0.8,2.2-1c-0.3-0.6,0.6-1.1,0.1-1.7
		c-0.2-0.2-0.2-0.6,0-0.8c0.1-0.1,0.3-0.1,0.4-0.1c0.3,0.2,0.3,0.5,0.2,0.8c-0.2,1-0.2,1.8,1.2,1.4c0.1,0,0.2,0,0.2,0
		c0.4,2,1.9,0.9,3,1.1c0.3,0.1,0.8,0,0.6,0.4c-0.1,0.4,0.1,1.1-0.5,1c-1.3-0.1-2.4,0.7-3.7,0.7c-0.6,0-1.1-0.4-1.8-0.3
		c-0.7,0.1-1.4-0.9-2.1,0.1c-0.8-1-1.2-0.2-1.7,0.4c-0.7-0.8-1.5,0.4-2.3-0.3c-0.4-0.4-0.5-0.2-0.1-0.6
		C225.5,65,224.4,65,224.6,64.5L224.6,64.5z"/>
	<path d="M45.9,80.6c0.4,0,1-0.1,0.5-0.6c-0.4-0.4-0.1-0.7,0-0.9c0.2-0.4,0.5,0,0.7,0.1c0.5,0.3,0.8,0.1,1-0.4
		c0.5-1.5,0.7-1.6,2.3-0.9c-0.5,0.4-0.6,1.4-1.6,0.7c-0.1,0-0.3,0.1-0.4,0.2c-0.1,0.2-0.1,0.5,0,0.6c0.7,1,2.3,1.1,3.2,0.2
		c0.4-0.4,0-1,0.4-1.5c0.2-0.3,0.4-0.4,0.7-0.4c0.5,0,0.8,0.4,1.4,0.2c0.4-0.1,1,0.1,1.6,0.3c-0.5,0.4-1.4-0.1-1.5,0.8
		c0,0-0.3,0.1-0.3,0.1c-0.8-1-1,0.2-1.4,0.4c0.2,0.6-0.6,1.4,0.4,1.9c-0.8-0.5-1,0.4-1.7,0.5c-1.4,0.1-1.8-1-2.6-1.7
		c-0.5-0.5-0.3-0.4-0.8,0c-0.5,0.3-1.1,0.5-1.6,0.9C46.2,81.2,46,80.8,45.9,80.6L45.9,80.6z"/>
	<path d="M50,6.2c-0.4-1.1-0.8-1.1-1.6-1.1c-1.5,0-0.6,0.6-0.2,1.4c-1.3-1.2-2.5-0.4-3.7-0.5c-0.4-0.1-1.1,0.2-1.2-0.4
		c-0.1-0.7,0.3-1,1-1.2c1.3-0.3,2.7,0.2,3.9-0.7c0.2-0.2,0.4,0.1,0.6,0.2c0.9,0.5,1.8,1.1,2.8,0.1c0.3-0.3,0.9-0.2,1.4,0
		c0.2,0.1,0.6,0.1,0.6,0.4c0,0.4-0.5,0.2-0.5,0.2C52.4,5.7,50.7,5.1,50,6.2L50,6.2z"/>
	<path d="M45.9,80.6c-1.3-0.1-2.6-0.8-4.2-0.6c0.6-0.3,1.1-0.8,0.6-0.9c-1-0.2-0.8-1.4-1.6-1.7c-0.5-0.1-0.3-0.6-0.2-0.9
		c0.1-0.4,0.5-0.3,0.8-0.2c1.8,0.4,2.4,1.1,2.3,2.7c0,0.3,0.2,0.5,0.5,0.3c0.4-0.2,1.1-0.5,1.1-0.8c0.3-1.5,1.2-1.1,2.4-0.9
		C46.2,78.3,44.7,78.8,45.9,80.6C45.9,80.6,45.9,80.6,45.9,80.6z"/>
	<path d="M230.6,4c0-0.1,0-0.2,0.1-0.2c0.6-0.5,1.1-2,1.7,0c0,0.1,0.9,0.1,0.8-0.2c-0.2-1.1,0.5-0.8,1-0.9c0.7-0.1,1.4-0.2,2.2-0.3
		c1.3-0.3,2.1,1,3.2,1.4C236.5,3.5,233.6,5,230.6,4z"/>
	<path d="M29.5,69.1c-0.7,0.6-1.7-0.2-2.2,0.8c-1.5-0.8-3.2,0.5-4.4-0.2c-1.3-0.9-1.9,0.4-2.9,0.3c-0.6-0.1-1.3-0.1-1.7-0.4
		c-0.3-0.3,0.4-0.7,0.3-1.3c0.2,1,1,1.1,1.6,1.4c0.3,0.1,0.7-0.5,1.3-0.6c1-0.2,1.8,0.2,2.8,0.2c0.5,0,0.8,0.2,0.6-0.5
		c-0.2-0.5,0.2-0.3,0.4-0.2C26.7,68.7,28.1,68.5,29.5,69.1z"/>
	<path d="M33.6,4.6c0.1-0.1,0.1-0.2,0.2-0.2c1.9-0.8,3.6,0,5.4,0.3c0.4,0.1,0.3,0.6,0.3,0.9c0.1,0.3-0.3,0.3-0.5,0.1
		c0-0.1,0.1-0.2,0.1-0.4c-0.7-0.1-1.3-0.7-2.1-0.4c-0.9,0.3-1.9,0.6-2.9,0.3C33.7,5.1,33.7,4.9,33.6,4.6z"/>
</g>
</svg>
