<?xml version="1.0" standalone="no"?>
<!DOCTYPE svg PUBLIC "-//W3C//DTD SVG 20010904//EN"
 "http://www.w3.org/TR/2001/REC-SVG-20010904/DTD/svg10.dtd">
<svg version="1.0" xmlns="http://www.w3.org/2000/svg"
 width="600.000000pt" height="600.000000pt" viewBox="0 0 600.000000 600.000000"
 preserveAspectRatio="xMidYMid meet">
<metadata>
Created by potrace 1.14, written by Peter Selinger 2001-2017
</metadata>
<g transform="translate(0.000000,600.000000) scale(0.100000,-0.100000)"
fill="#000000" stroke="none">
<path d="M4398 4935 c-2 -1 -41 -5 -88 -9 -88 -6 -138 -13 -180 -22 -14 -3
-36 -8 -50 -11 -177 -32 -406 -123 -595 -237 -160 -97 -392 -303 -518 -459
-187 -234 -323 -541 -366 -832 -19 -130 -22 -168 -22 -309 -1 -207 6 -276 57
-531 8 -43 68 -213 101 -287 208 -475 650 -894 1113 -1055 127 -44 146 -50
255 -72 195 -38 410 -43 685 -15 100 10 299 54 403 88 295 98 560 293 653 480
l39 80 0 680 c0 630 -1 685 -18 741 -36 119 -88 168 -212 200 -63 17 -122 18
-585 19 -283 1 -544 -2 -580 -7 -36 -4 -90 -20 -120 -35 -48 -24 -59 -35 -85
-87 l-30 -60 0 -180 c0 -205 12 -258 69 -314 57 -55 101 -63 386 -67 140 -3
260 -6 265 -8 13 -4 12 -534 -1 -545 -25 -21 -186 -67 -274 -76 -30 -4 -66 -9
-80 -11 -31 -5 -218 -6 -245 0 -11 2 -40 7 -65 11 -217 34 -463 196 -622 410
-136 181 -197 364 -203 601 -8 368 132 643 429 844 171 115 348 169 556 169
199 0 346 -42 516 -145 227 -137 308 -158 412 -106 69 35 137 95 210 185 183
226 209 391 81 524 -69 72 -240 183 -404 263 -183 89 -390 151 -585 175 -47 6
-297 14 -302 10z"/>
<path d="M366 4854 c-81 -18 -145 -46 -174 -77 -34 -36 -71 -119 -80 -181 -5
-34 -9 -723 -8 -1625 l2 -1566 22 -66 c35 -106 103 -161 244 -194 54 -13 211
-14 1118 -12 1023 2 1057 3 1110 22 124 45 162 124 164 335 2 256 -35 333
-179 376 -55 16 -122 18 -812 18 -413 1 -755 4 -758 8 -4 4 -7 601 -7 1327 0
1373 -2 1421 -42 1498 -30 59 -122 116 -223 139 -64 14 -308 12 -377 -2z"/>
</g>
</svg>
