<?xml version="1.0" encoding="utf-8"?>
<!-- Generator: Adobe Illustrator 25.4.0, SVG Export Plug-In . SVG Version: 6.00 Build 0)  -->
<svg version="1.1" id="Layer_1" xmlns="http://www.w3.org/2000/svg" xmlns:xlink="http://www.w3.org/1999/xlink" x="0px" y="0px"
	 viewBox="0 0 89.76 88.36" style="enable-background:new 0 0 89.76 88.36;" xml:space="preserve">
<style type="text/css">
	.st0{fill:#FFFFFF;}
</style>
<path class="st0" d="M40.01,68.98V8.74c0-2.66,2.18-4.82,4.87-4.82c2.69,0,4.87,2.16,4.87,4.82v60.25l22.44-19.61
	c2.01-1.76,5.07-1.58,6.85,0.42c1.78,1.99,1.59,5.03-0.42,6.79L48.1,83.24c-1.87,1.64-4.65,1.59-6.46-0.03l-30.5-26.63
	c-2.01-1.76-2.2-4.79-0.42-6.79c1.78-1.98,4.84-2.16,6.85-0.42L40.01,68.98L40.01,68.98L40.01,68.98z"/>
</svg>
