<svg xmlns="http://www.w3.org/2000/svg" xmlns:xlink="http://www.w3.org/1999/xlink" width="1920" height="507" viewBox="0 0 1920 507">
  <defs>
    <clipPath id="clip-path">
      <rect id="Rectangle_246" data-name="Rectangle 246" width="1920" height="507" transform="translate(0 93)" fill="#fff" stroke="#707070" stroke-width="1"/>
    </clipPath>
  </defs>
  <g id="Mask_Group_52" data-name="Mask Group 52" transform="translate(0 -93)" clip-path="url(#clip-path)">
    <g id="bg1">
      <rect id="Rectangle_119" data-name="Rectangle 119" width="1920" height="499" rx="18" transform="translate(0 101)" fill="#dbedff"/>
      <path id="Path_5218" data-name="Path 5218" d="M15009-4221.206s-15.511-57.8,92.592-24.641,169.91,105.9,280.977,129.5,160.348-19.4,219.19,27.787,75.025,188.739,75.025,188.739H15009Z" transform="translate(-15121.784 4485.824)" fill="#97c7f5"/>
      <path id="Path_5217" data-name="Path 5217" d="M15009-4223.366s-15.511-54.224,92.592-23.116,169.91,99.348,280.977,121.48,160.348-18.2,219.19,26.066,75.025,177.056,75.025,177.056H15009Z" transform="translate(-15134.784 4507.881)" fill="#509fed"/>
      <path id="Path_5219" data-name="Path 5219" d="M15008.991-4224.5s-15.367-52.345,91.742-22.315,168.349,95.908,278.4,117.273,158.874-17.567,217.176,25.164,74.337,170.925,74.337,170.925h-661.65Z" transform="translate(-15148.784 4519.453)" fill="#2f72b3"/>
      <path id="Path_5220" data-name="Path 5220" d="M16318.19-4420s-44.031,29.963-11.606,85.118,46.063,123.9,141.3,135.5,135.211-101.19,239.666-89.077,108.953,103.149,178.154,137.533,98.652,0,98.652,0L16977.707-4420Z" transform="translate(-14925.667 4507)" fill="#5ba8f3"/>
      <path id="Path_5226" data-name="Path 5226" d="M16318.19-4420s-44.031,29.963-11.606,85.118,46.063,123.9,141.3,135.5,135.211-101.19,239.666-89.077,108.953,103.149,178.154,137.533,98.652,0,98.652,0L16977.707-4420Z" transform="translate(-14940.669 4532)" fill="#5ba8f3" opacity="0.31"/>
    </g>
  </g>
</svg>
