<svg xmlns="http://www.w3.org/2000/svg" xmlns:xlink="http://www.w3.org/1999/xlink" width="1920" height="593" viewBox="0 0 1920 593">
  <defs>
    <clipPath id="clip-path">
      <rect id="Rectangle_245" data-name="Rectangle 245" width="1920" height="593" transform="translate(0 94)" fill="#fff" stroke="#707070" stroke-width="1"/>
    </clipPath>
  </defs>
  <g id="Mask_Group_50" data-name="Mask Group 50" transform="translate(0 -94)" clip-path="url(#clip-path)">
    <g id="Group_2303" data-name="Group 2303" transform="translate(-438.98 -62.612)">
      <rect id="Rectangle_65" data-name="Rectangle 65" width="1920" height="597" transform="translate(438.98 155.611)" fill="#2f72b3"/>
      <path id="_1234" data-name="1234" d="M12797.119-4285.452s117.519-101.14,218.551-82.594,97.8,127.909,185.576,156.778,114.788-49.024,203.535,0,151.456,196.1,151.456,196.1H12782.2Z" transform="translate(-12378.012 4767.797)" fill="#c3f5ff"/>
      <path id="Path_1849" data-name="Path 1849" d="M12797.526-4272.808s120.723-116.209,224.511-94.9,100.468,146.967,190.637,180.139,117.919-56.329,209.086,0,155.587,225.316,155.587,225.316H12782.2Z" transform="translate(-12394.794 4714.879)" fill="#4697e5" opacity="0.77"/>
      <path id="Path_2974" data-name="Path 2974" d="M13473.863-3803.894s30.927-77.111,92.708-83.564,43.818,57.754,154.417,57.754,131.531-28.877,287.978-57.754,180.926-72.192,337.807-57.754,183.461,80.179,289.714,115.508,135.3,25.81,135.3,25.81Z" transform="translate(-12416.882 4552.96)" fill="#fafefc" opacity="0.32"/>
      <path id="Path_2820" data-name="Path 2820" d="M1618.232,2388.136c-124.565-4.359-287.572,2.893-294.376,18.67-7.992,18.531,126.555,20.2,126.555,20.2,18.759,12.824,299.678,7.51,256.653-11.573C1773.631,2413.164,1746.91,2392.638,1618.232,2388.136Z" transform="translate(-964.466 -1681.381)" fill="#9f0b91" opacity="0.2"/>
      <path id="Path_2975" data-name="Path 2975" d="M13473.863-3842.378s30.927-56.53,92.708-61.26,43.818,42.339,154.417,42.339,131.531-21.169,287.978-42.339,180.926-52.924,337.807-42.339,183.461,58.779,289.714,84.678,135.3,18.921,135.3,18.921Z" transform="translate(-12412.804 4590.741)" fill="#9f0b91" opacity="0.39"/>
      <path id="Path_563" data-name="Path 563" d="M59.021,221.377a58.276,58.276,0,0,0,15.029-1.966c8.749,25.515,32.6,43.822,60.647,43.829a63.829,63.829,0,0,0,53.427-29.067,26.663,26.663,0,0,0,14.828,4.5,27.1,27.1,0,0,0,24.772-16.324,45.5,45.5,0,0,0,20.264,4.73c24.593.007,44.7-19.445,46.3-44.049A29.349,29.349,0,0,0,325.236,167.9a29.194,29.194,0,0,0,10.708,2.038,29.982,29.982,0,0,0,29.715-28.48,20.094,20.094,0,0,0,8.038,1.661,20.757,20.757,0,0,0,20.577-20.946,19.622,19.622,0,0,0-.144-2.445,44.909,44.909,0,0,0,58.064-6.764,40.331,40.331,0,0,0,28.982,17.1,39.748,39.748,0,0,0,16.193-1.693c-.147.934-.324,1.858-.416,2.812-2.536,25.973,16.108,49.131,41.641,51.724a45.989,45.989,0,0,0,40.444-16.973,36.881,36.881,0,0,0,62.947,8.921c5.343,26.936,28.729,47.232,56.8,47.239a56.827,56.827,0,0,0,31.9-9.736,25.316,25.316,0,0,0-.178,3.111,26.462,26.462,0,0,0,26.214,26.687,25.535,25.535,0,0,0,10.234-2.112c1.17,20.228,17.677,36.279,37.854,36.285a37.693,37.693,0,0,0,32.067-18.018,54.139,54.139,0,0,0,23.2,5.191c30.542.008,55.287-25.163,55.279-56.226a56.592,56.592,0,0,0-4.1-21.233c20.454-3.63,35.965-21.781,35.959-43.625,0-.351-.007-.694-.014-1.044h.013L947.2,73.61l-.013-48.337L947.176.252,543.369.144h0L0,0,.006,22.352.019,73.358l.023,88.024C.051,194.508,26.456,221.369,59.021,221.377Z" transform="matrix(0.999, 0.052, -0.052, 0.999, 1548.237, 0)" fill="#4493df"/>
      <path id="Path_666" data-name="Path 666" d="M50.574,232.845a50.073,50.073,0,0,0,12.939-1.71c7.508,22.008,28.02,37.784,52.168,37.765A55.051,55.051,0,0,0,161.7,243.77a22.871,22.871,0,0,0,12.76,3.871A23.389,23.389,0,0,0,195.8,233.532a39.041,39.041,0,0,0,17.439,4.063c20.429-.016,37.273-15.664,39.69-35.839a53.3,53.3,0,0,0,43.311,22.3c23.506-.018,43.5-15.407,50.84-36.842a48.688,48.688,0,0,0,12.593,1.645c26.865-.021,48.723-21.9,49.415-49.134a42.094,42.094,0,0,0,36.605.3,29.123,29.123,0,0,0,24.8,13.961c15.614-.012,28.391-12.466,29.3-28.157a19.725,19.725,0,0,0,7.918,1.632,20.114,20.114,0,0,0,15.622-7.506,30.362,30.362,0,0,0,21.794,3.532c.1,20.582,15.425,38.159,35.957,40.228a39.088,39.088,0,0,0,15.955-1.689c-.146.923-.32,1.835-.413,2.778-2.525,25.653,15.819,48.5,40.972,51.037a45.754,45.754,0,0,0,46.542-27.9,30.29,30.29,0,0,0,10.741,3.186,30.823,30.823,0,0,0,30.7-17.311,30.376,30.376,0,0,0,40.04-2.979,54.528,54.528,0,0,0,49.145,31.242,53.692,53.692,0,0,0,30.152-9.252,24.062,24.062,0,0,0-.171,2.947,24.969,24.969,0,0,0,24.74,25.247,24.1,24.1,0,0,0,9.671-2.01c1.086,19.156,16.666,34.341,35.728,34.326a35.682,35.682,0,0,0,30.315-17.1,50.986,50.986,0,0,0,21.917,4.893c28.857-.023,52.26-23.886,52.283-53.3a53.649,53.649,0,0,0-3.856-20.1c19.328-3.459,34-20.663,34.018-41.351,0-.332-.006-.657-.012-.988h.012l.023-29.047.063-80.909.013-16.262L250.472-.2,0,0-.076,97.171-.142,181.13C-.164,209.714,22.543,232.867,50.574,232.845Z" transform="translate(0 214.939) rotate(-9)" fill="#6299cc"/>
    </g>
  </g>
</svg>
