<svg xmlns="http://www.w3.org/2000/svg" width="214.068" height="285.125" viewBox="0 0 214.068 285.125"><g id="Group_2334" data-name="Group 2334" transform="translate(-609 -467.084)"><path id="Path_5311" fill="#7ab3ec" d="M18380,20976.547s77.229,30.055,101.143,64.8-31.711,39.449-5.479,74.2,86.307,28.27,110.41,64.8-13.99,81.324-13.99,81.324l-140.762-1.156h-9.16l-9.846-1.48-14.012-5.75-11.25-9.648-5.846-15.137-1.209-10.031Z" data-name="Path 5311" opacity=".48" transform="translate(-17771 -20509.463)"/><path id="Path_5312" fill="#7ab3ec" d="M18380,20976.547s60.607,28.113,79.377,60.617-24.889,36.9-4.3,69.4,67.732,26.443,86.65,60.615-10.979,76.072-10.979,76.072l-110.471-1.082h-7.189l-7.727-1.383-11-5.379-8.83-9.025-4.586-14.158-.949-9.383Z" data-name="Path 5312" opacity=".48" transform="translate(-17771 -20491.047)"/></g></svg>