<svg xmlns="http://www.w3.org/2000/svg" width="336.739" height="842.238" viewBox="0 0 336.739 842.238"><g id="enquire" transform="translate(-385.048 -119)"><path id="Path_5307" fill="rgba(159,11,145,0.41)" d="M16122.16,20812s67.364,86.236,55.074,158.619-30.021,93.75-88.609,175.035-145.746,150.1-145.746,150.1v105.5s63.554-44.961,130.122-119.891,136.15-179.83,136.15-179.83,39.45-80.111,31.471-152.5-63.388-137.039-63.388-137.039Z" data-name="Path 5307" opacity=".17" transform="translate(-15555.654 -20693)"/><g id="Group_2309" data-name="Group 2309"><path id="Path_5302" fill="#7ab3ec" d="M15881.712,21414.949c38.07,1.926,205.038-1.92,215.915,0s72.692-6.789,63.65-51.861-43.747-70.555-91.743-122.277-12.288-100.32-66.268-131.705-82.533,0-121.555,0h-34.537l-2.334,147.26,2.334,125.9s8.436,21.6,10.614,21.559c.758-.014,4.271,3.916,8.227,5.77C15872.832,21414.3,15881.712,21414.949,15881.712,21414.949Z" data-name="Path 5302" opacity=".2" transform="translate(-15459.793 -20454.268)"/><path id="Path_5308" fill="#7ab3ec" d="M15884.087,21435.121c40.678,2.047,219.078-2.041,230.7,0s77.67-7.217,68.01-55.133-46.742-75-98.025-129.99-13.129-106.646-70.8-140.012-88.186,0-129.879,0h-36.9l2.494,299.7s6.52,13.652,8.848,13.609c.809-.014,4.563,4.164,8.789,6.135C15874.6,21434.43,15884.087,21435.121,15884.087,21435.121Z" data-name="Path 5308" opacity=".2" transform="translate(-15461.97 -20474.475)"/></g></g></svg>