<svg xmlns="http://www.w3.org/2000/svg" width="45.205" height="31.93" viewBox="0 0 45.205 31.93">
  <g id="Group_641" data-name="Group 641" transform="translate(-2913.852 -737.857)">
    <path id="Path_2802" data-name="Path 2802" d="M3028.215,761.5c-5.3-7.864-6.548-21.126-.886-23.39,6.24-2.493,9.866,13.888,6.546,25.519" transform="translate(-97.861)" fill="#1c82ce"/>
    <path id="Path_2803" data-name="Path 2803" d="M3039.11,955.457c2.166-.328,5.29,2.315,8.47,4.161,3.838,2.229,7.507,3.831,6.386,4.625-3.6,1.881-13.15-1.594-15.441-8.326" transform="translate(-111.216 -194.963)" fill="#87aa3a"/>
    <path id="Path_2804" data-name="Path 2804" d="M3063.531,984.113c-.02-1.3,7.25,3.97,7.282,4.841S3063.578,987.425,3063.531,984.113Z" transform="translate(-133.623 -220.483)" fill="#a5c64a"/>
    <path id="Path_2805" data-name="Path 2805" d="M3084.264,792.9c-.748-5.047,3.171-21.588,12.287-19.318,8.729,2.175,4.673,15.481,4.673,15.481s10.289-2.876,9.946,4.981-16.361,6.71-19.5,5.4C3087.272,797.313,3084.462,795.546,3084.264,792.9Z" transform="translate(-152.122 -31.822)" fill="#239df9"/>
    <path id="Path_2806" data-name="Path 2806" d="M3111.235,870.322c-3.437-2.988,1.118-16.89,6.847-14.9C3125.246,857.921,3114.318,873.005,3111.235,870.322Z" transform="translate(-175.305 -105.177)" fill="#00e8c6"/>
    <path id="Path_2807" data-name="Path 2807" d="M3166.692,964.513c.63-3.872,10.658-7.312,10.93-2.469S3166.369,966.5,3166.692,964.513Z" transform="translate(-226.058 -198.76)" fill="#00e8c6"/>
    <path id="Path_2808" data-name="Path 2808" d="M3181.007,791.652c-2.636-.914-4.895,5.58-1.4,6.087C3182.282,798.127,3184.154,792.746,3181.007,791.652Z" transform="translate(-236.035 -48.126)" fill="#00e8c6"/>
    <path id="Path_2809" data-name="Path 2809" d="M3139.975,818.1c-1.155-.2-2.528,2.988-.564,3.416S3141.014,818.277,3139.975,818.1Z" transform="translate(-200.732 -71.899)" fill="#00e8c6"/>
    <g id="Group_640" data-name="Group 640" transform="translate(2914.412 740.188)">
      <path id="Path_2810" data-name="Path 2810" d="M2917.951,798.966c1.724.936-1.087,3.437-2.893,1.386a2.886,2.886,0,0,1,2.853-4.666c4.483.608,7.462,6.843,7.85,9.666" transform="translate(-2914.412 -791.969)" fill="none" stroke="#754423" stroke-linecap="round" stroke-linejoin="round" stroke-width="1"/>
      <path id="Path_2811" data-name="Path 2811" d="M3000.662,764c.642,1.854-3.12,1.806-3.071-.929a2.888,2.888,0,0,1,5.255-1.52c2.9,3.472.9,10.086-.722,12.431" transform="translate(-2988.947 -760.292)" fill="none" stroke="#754423" stroke-linecap="round" stroke-linejoin="round" stroke-width="1"/>
      <path id="Path_2812" data-name="Path 2812" d="M2984.412,885.822c-4.451-.765-9.128,6.777-1.33,8.551C2990.293,896.016,2990.436,886.857,2984.412,885.822Z" transform="translate(-2972.196 -872.729)" fill="#9bbf37"/>
      <path id="Path_2813" data-name="Path 2813" d="M2991.034,889.738c-2.838-.517-6.38,4.577-1.821,6.152S2996.009,890.644,2991.034,889.738Z" transform="translate(-2979.479 -876.253)" fill="#bad84e"/>
      <path id="Path_2814" data-name="Path 2814" d="M2988.092,908.528c-.449-.115-1.864.886-.922,1.528C2988.208,910.765,2988.739,908.695,2988.092,908.528Z" transform="translate(-2979.325 -893.116)" fill="#512100"/>
      <path id="Path_2815" data-name="Path 2815" d="M3021.433,927.149c-.377.007-1.961,1.152-.769,1.692S3022.128,927.138,3021.433,927.149Z" transform="translate(-3009.232 -909.81)" fill="#512100"/>
      <g id="Group_639" data-name="Group 639" transform="translate(7.488 17.803)">
        <path id="Path_2816" data-name="Path 2816" d="M2988.226,933.8a2.187,2.187,0,0,1-1.058-.481,1.556,1.556,0,0,1-.652-1.587.174.174,0,0,1,.332.105,1.237,1.237,0,0,0,.54,1.213,1.523,1.523,0,0,0,1.687.263.173.173,0,1,1,.167.3A1.615,1.615,0,0,1,2988.226,933.8Z" transform="translate(-2986.469 -931.612)" fill="#d64343"/>
      </g>
      <path id="Path_2817" data-name="Path 2817" d="M2989.022,916.5c-.34-.05-.75.292-.322.484S2989.214,916.525,2989.022,916.5Z" transform="translate(-2980.815 -900.263)" fill="#fff"/>
      <path id="Path_2818" data-name="Path 2818" d="M3022.429,935.455c-.329-.045-.722.281-.311.471S3022.615,935.483,3022.429,935.455Z" transform="translate(-3010.768 -917.249)" fill="#fff"/>
    </g>
    <path id="Path_2819" data-name="Path 2819" d="M3254.594,931.865c8.992-2.532,10.849,4.661,4.458,7.4C3262.648,935.859,3259.368,931.789,3254.594,931.865Z" transform="translate(-304.832 -173.372)" fill="#00e8c6"/>
  </g>
</svg>
