<svg xmlns="http://www.w3.org/2000/svg" width="40.115" height="28.253" viewBox="0 0 40.115 28.253">
  <g id="Group_567" data-name="Group 567" transform="translate(6.458 -3.653) rotate(20)">
    <g id="Group_21" data-name="Group 21" transform="translate(0 0)">
      <path id="Path_81" data-name="Path 81" d="M1628.415,237.7c-7.479-2.854-14.776-11.406-11.966-15.715,3.1-4.749,12.026,3.688,15.379,13.329" transform="translate(-1611.327 -217.031)" fill="#ea530c"/>
      <g id="Group_15" data-name="Group 15" transform="translate(15.377 22.179)">
        <path id="Path_82" data-name="Path 82" d="M1651.355,409.008a.323.323,0,0,1-.384.038,2.35,2.35,0,0,1-1.151-1.528,4.032,4.032,0,0,1,.653-2.735.322.322,0,0,1,.534.361,3.436,3.436,0,0,0-.557,2.238,1.7,1.7,0,0,0,.854,1.112.322.322,0,0,1,.05.514Z" transform="translate(-1649.763 -404.642)" fill="#512100"/>
      </g>
      <path id="Path_83" data-name="Path 83" d="M1536.312,351.935c1.623,2.773,11.343,5.607,16-4.221-1.963-1.3-6.269,1.707-9.71,2.212a11.127,11.127,0,0,1-6.182-.923" transform="translate(-1523.774 -330.996)" fill="#f27777"/>
      <path id="Path_84" data-name="Path 84" d="M1471.751,203.854c-1.959-1.323-11.709-12.622-5.445-17.479,6-4.651,12.7,4.987,12.7,4.987s3.878-8,8.905-3.669-4.336,13.723-7.42,15.337C1476.787,204.829,1473.607,205.106,1471.751,203.854Z" transform="translate(-1453.553 -185.107)" fill="#f60"/>
      <g id="Group_16" data-name="Group 16" transform="translate(17.78 21.455)">
        <path id="Path_85" data-name="Path 85" d="M1617.671,401.649a.322.322,0,0,1-.48-.424,2.11,2.11,0,0,0,.415-2.055,2.008,2.008,0,0,0-1.69-1.049.322.322,0,0,1,.079-.64,2.631,2.631,0,0,1,2.2,1.427,2.717,2.717,0,0,1-.478,2.688A.321.321,0,0,1,1617.671,401.649Z" transform="translate(-1615.633 -397.479)" fill="#512100"/>
      </g>
      <g id="Group_17" data-name="Group 17" transform="translate(21.743 21.135)">
        <path id="Path_86" data-name="Path 86" d="M1578.963,397.629a.322.322,0,0,1-.51-.374,1.469,1.469,0,0,0-.032-1.326,2.122,2.122,0,0,0-1.636-.984.322.322,0,1,1,.1-.637,2.744,2.744,0,0,1,2.109,1.315,2.109,2.109,0,0,1,.049,1.9A.321.321,0,0,1,1578.963,397.629Z" transform="translate(-1576.51 -394.305)" fill="#512100"/>
      </g>
      <g id="Group_18" data-name="Group 18" transform="translate(0 13.873)">
        <path id="Path_87" data-name="Path 87" d="M1740.088,327.355a.322.322,0,0,1-.533-.178,5.4,5.4,0,0,0-4.445-4.013c-1.37-.254-2.5.036-2.952.766a1.2,1.2,0,0,0,.2,1.412,1.534,1.534,0,0,0,1.8.434,1.274,1.274,0,0,0,.865-1.109.715.715,0,0,0-.307-.666c-.227-.111-.5.068-.637.184a.322.322,0,0,1-.454-.042.326.326,0,0,1,.042-.454,1.183,1.183,0,0,1,1.33-.267,1.329,1.329,0,0,1,.668,1.264,1.9,1.9,0,0,1-1.261,1.684,2.184,2.184,0,0,1-2.541-.611,1.83,1.83,0,0,1-.26-2.169c.59-.958,1.978-1.365,3.617-1.06a6.041,6.041,0,0,1,4.961,4.527A.321.321,0,0,1,1740.088,327.355Z" transform="translate(-1731.363 -322.43)" fill="#512100"/>
      </g>
      <g id="Group_19" data-name="Group 19" transform="translate(4.538 9.148)">
        <path id="Path_88" data-name="Path 88" d="M1711.916,283.916a.322.322,0,0,1-.5-.4c.869-1.493-.334-4.682-1.93-6.246-.565-.554-1.676-1.384-2.767-.718a1.4,1.4,0,0,0-.591,1.54,1.839,1.839,0,0,0,1.6,1.447.949.949,0,0,0,1.005-.37,1.13,1.13,0,0,0-.074-1.17.939.939,0,0,0-1-.386.322.322,0,0,1-.115-.634,1.578,1.578,0,0,1,1.648.655,1.776,1.776,0,0,1,.094,1.869,1.584,1.584,0,0,1-1.634.676,2.471,2.471,0,0,1-2.149-1.95,2.02,2.02,0,0,1,.884-2.227c1.085-.662,2.347-.375,3.554.808,1.805,1.769,3.088,5.226,2.036,7.031A.321.321,0,0,1,1711.916,283.916Z" transform="translate(-1705.447 -275.653)" fill="#512100"/>
      </g>
      <path id="Path_89" data-name="Path 89" d="M1572.288,253.7c-4.646,1.263-10.062-8.4-5.659-11.016S1576.936,252.434,1572.288,253.7Z" transform="translate(-1548.348 -236.542)" fill="#ffb636"/>
      <path id="Path_90" data-name="Path 90" d="M1497.611,273.283c-1.5-2.953,1.97-9.218,5.156-6.647S1499.057,276.131,1497.611,273.283Z" transform="translate(-1471.117 -257.855)" fill="#ffb636"/>
      <path id="Path_91" data-name="Path 91" d="M1664.688,352.088c-3.491,1.529-3.281,9.015,3.037,6.642C1673.567,356.536,1669.412,350.017,1664.688,352.088Z" transform="translate(-1654.795 -334.858)" fill="#fc8986"/>
      <path id="Path_92" data-name="Path 92" d="M1686.734,359.378c-2.275.865-2.278,6.477,1.666,5.469S1690.561,357.924,1686.734,359.378Z" transform="translate(-1677.126 -341.567)" fill="#ffa89c"/>
      <path id="Path_93" data-name="Path 93" d="M1724.217,387.37c-.317.231-.428,1.688.5,1.422C1725.733,388.5,1724.672,387.038,1724.217,387.37Z" transform="translate(-1715.567 -366.892)" fill="#512100"/>
      <path id="Path_94" data-name="Path 94" d="M1692.195,375.164c-.2.249-.307,1.894.686,1.41S1692.562,374.706,1692.195,375.164Z" transform="translate(-1680.444 -355.881)" fill="#512100"/>
      <g id="Group_20" data-name="Group 20" transform="translate(9.596 21.7)">
        <path id="Path_95" data-name="Path 95" d="M1699.163,400.83a1.846,1.846,0,0,1-.883.43,1.314,1.314,0,0,1-1.382-.43.146.146,0,0,1,.246-.159,1.046,1.046,0,0,0,1.08.3,1.287,1.287,0,0,0,1.08-.956.146.146,0,1,1,.287.056A1.362,1.362,0,0,1,1699.163,400.83Z" transform="translate(-1696.875 -399.898)" fill="#d64343"/>
      </g>
    </g>
    <path id="Path_96" data-name="Path 96" d="M1639.62,206.549c-1.727,1.067.992,5.178,2.877,3.45C1643.937,208.679,1641.684,205.275,1639.62,206.549Z" transform="translate(-1624.798 -204.131)" fill="#ffb636"/>
    <path id="Path_97" data-name="Path 97" d="M1665.314,259.824c-.573.519.517,2.533,1.542,1.69S1665.828,259.357,1665.314,259.824Z" transform="translate(-1651.62 -252.188)" fill="#ffb636"/>
    <path id="Path_98" data-name="Path 98" d="M1477.111,215.714c-1.572-1.435-3.765,1.483-2.358,3.679S1478.7,217.164,1477.111,215.714Z" transform="translate(-1442.817 -212.279)" fill="#ffb636"/>
    <path id="Path_99" data-name="Path 99" d="M1522.172,229.039c-1.02.205-1.112,2.277-.023,2.014S1523.576,228.756,1522.172,229.039Z" transform="translate(-1493.056 -224.576)" fill="#ffb636"/>
  </g>
</svg>
