<svg xmlns="http://www.w3.org/2000/svg" xmlns:xlink="http://www.w3.org/1999/xlink" width="597.002" height="416" viewBox="0 0 597.002 416">
  <defs>
    <radialGradient id="radial-gradient" cx="0.5" cy="0.5" r="0.5" gradientTransform="translate(0)" gradientUnits="objectBoundingBox">
      <stop offset="0" stop-color="#f973b4"/>
      <stop offset="1" stop-color="#fdb2d0"/>
    </radialGradient>
    <radialGradient id="radial-gradient-2" cx="0.5" cy="0.5" r="0.427" gradientTransform="translate(-0.237) scale(1.473 1)" gradientUnits="objectBoundingBox">
      <stop offset="0" stop-color="#f981bb"/>
      <stop offset="1" stop-color="#fdb2d0"/>
    </radialGradient>
  </defs>
  <g id="contact_us_Converted_" data-name="contact us [Converted]" transform="translate(-404.01 -53.25)">
    <g id="Layer_1" data-name="Layer 1" transform="translate(404.01 53.25)">
      <path id="Path_17335" data-name="Path 17335" d="M608.648,352.657C592.5,316.251,543.81,288.8,534.867,247.078s9.39-101.145-55-136.917-165.9-39.325-188.489,12.545-111.417,2.273-174.056,51.845C56.619,222.6,27.79,296.526,27.79,402.738c0,34.779,27.016,66.005,36.9,87.978H581.247C602.264,421.854,620.262,378.915,608.648,352.657Z" transform="translate(-15.295 -74.717)" fill="#efd2f7"/>
      <path id="Path_17336" data-name="Path 17336" d="M483.622,235.225c0,4.819-5.59,8.695-12.421,8.695s-12.421-3.913-12.421-8.695,5.577-8.695,12.421-8.695S483.622,230.405,483.622,235.225Z" transform="translate(95.001 -37.68)" fill="#ebf0fc"/>
      <ellipse id="Ellipse_57" data-name="Ellipse 57" cx="17.452" cy="13.676" rx="17.452" ry="13.676" transform="translate(531.249 140.569)" fill="#ebf0fc"/>
      <circle id="Ellipse_58" data-name="Ellipse 58" cx="10.235" cy="10.235" r="10.235" transform="matrix(0.639, -0.769, 0.769, 0.639, 0, 242.266)" fill="#ebf0fc"/>
      <ellipse id="Ellipse_59" data-name="Ellipse 59" cx="14.172" cy="10.235" rx="14.172" ry="10.235" transform="translate(221.791 47.014)" fill="#ebf0fc"/>
      <path id="Path_17337" data-name="Path 17337" d="M27.79,281.787q1.863-7.769,4.26-15.39t5.2-15.1q2.813-7.49,6.024-14.831c1.043-2.484,2.174-4.881,3.3-7.3l1.739-3.615c.584-1.242,1.242-2.4,1.8-3.59s1.242-2.385,1.851-3.565,1.242-2.372,1.9-3.552,1.242-2.348,1.975-3.515l2.025-3.478q4.136-6.931,8.819-13.564L69.04,191c.4-.559.82-1.081,1.242-1.615l1.242-1.615c.422-.522.832-1.068,1.242-1.59l1.242-1.577c.882-1.031,1.727-2.1,2.658-3.105s1.813-2.037,2.745-3.043l2.869-2.944c.472-.5.956-.944,1.441-1.416l1.441-1.4c.956-.944,1.938-1.851,2.919-2.782,3.937-3.652,7.987-7.217,12.173-10.62l3.18-2.484,3.242-2.484c2.186-1.6,4.385-3.192,6.645-4.683a141.991,141.991,0,0,1,14.036-8.285c1.242-.646,2.484-1.242,3.726-1.813s2.484-1.155,3.726-1.7c.633-.273,1.242-.559,1.888-.807l1.888-.758c.646-.248,1.242-.509,1.913-.733l1.925-.7a37.805,37.805,0,0,1,3.863-1.242c1.292-.348,2.608-.783,3.925-1.155s2.633-.683,3.95-1.006,2.658-.584,3.987-.857,2.671-.484,4.012-.708,2.683-.385,4.024-.559,2.7-.273,4.037-.4,2.7-.2,4.049-.261a115.913,115.913,0,0,1,16.147.435c1.341.137,2.671.248,3.987.447l1.987.261c.658.087,1.317.2,1.975.311,1.317.236,2.633.447,3.937.708s2.608.547,3.9.832l-3.975-.161h-9.912l-1.975.062a139.112,139.112,0,0,0-15.626,1.279,120.135,120.135,0,0,0-29.811,8.359l-1.776.758c-.6.248-1.168.534-1.751.807l-1.751.807c-.584.273-1.143.584-1.727.869l-1.727.857c-.571.286-1.13.609-1.7.907-1.13.609-2.273,1.242-3.379,1.863-4.459,2.571-8.807,5.341-13.017,8.347s-8.31,6.136-12.284,9.477-7.887,6.782-11.688,10.347c-.956.882-1.925,1.764-2.857,2.671l-1.416,1.366c-.46.447-.956.894-1.391,1.354l-2.7,2.733c-.882.919-1.727,1.888-2.608,2.82-3.453,3.8-6.707,7.8-9.85,11.924s-6.086,8.421-8.968,12.756L62.2,215.148c-.708,1.093-1.379,2.223-2.074,3.316s-1.379,2.223-2.049,3.354-1.366,2.236-2.012,3.366l-1.925,3.441-1.95,3.416q-1.863,3.447-3.726,6.906-3.726,6.943-7.241,14.036Q34.112,267.168,27.79,281.787Z" transform="translate(-9.344 -61.401)" fill="#d9e3fe"/>
      <path id="Path_17338" data-name="Path 17338" d="M270.77,85.669a81.627,81.627,0,0,1,7.776-3.08c2.633-.932,5.316-1.7,8.012-2.484,1.354-.36,2.7-.745,4.062-1.043l2.049-.484,2.049-.447c1.366-.311,2.733-.571,4.111-.832s2.758-.484,4.149-.733c5.527-.882,11.117-1.491,16.719-1.838l2.112-.124h2.1l4.211-.112h6.335l2.1.075,2.112.075c.708,0,1.4.075,2.112.112l4.211.273c2.807.273,5.614.5,8.4.894l2.1.261,1.043.137,1.043.161,4.173.683,1.043.161,1.043.211,2.074.41,2.074.4c.683.137,1.379.273,2.062.447,2.745.646,5.5,1.242,8.21,2.012l4.087,1.105,4.037,1.242c2.708.795,5.341,1.789,8.012,2.708,1.341.447,2.646.981,3.95,1.491l3.938,1.54c1.317.522,2.6,1.105,3.888,1.664l1.938.845c.646.286,1.242.547,1.925.869l3.875,1.789,1.9.907,1.876.994,3.726,1.987c1.242.683,2.484,1.416,3.726,2.112l1.838,1.068c.609.36,1.242.758,1.789,1.13l3.59,2.3A131.241,131.241,0,0,1,445.8,115a97.034,97.034,0,0,1,11.663,12.421c.447.571.907,1.105,1.317,1.689l1.242,1.739c.41.584.845,1.155,1.242,1.751l1.155,1.789c.385.609.783,1.242,1.143,1.813l1.068,1.838.534.932.273.46.236.472.981,1.9a87.119,87.119,0,0,1,6.211,15.8,122.141,122.141,0,0,1,3.366,16.5c.373,2.757.683,5.527.994,8.3s.6,5.527.969,8.285c-.72-2.7-1.242-5.428-1.851-8.148s-1.106-5.453-1.727-8.148c-.3-1.354-.633-2.7-.956-4.037-.149-.671-.335-1.341-.509-2.012s-.335-1.329-.534-1.987c-.385-1.329-.745-2.658-1.242-3.962-.211-.646-.41-1.3-.646-1.95l-.683-1.938a89.107,89.107,0,0,0-16.147-28.146c-.882-1.019-1.739-2.074-2.7-3.043l-1.391-1.478-.7-.733-.733-.708c-.994-.932-1.938-1.9-2.931-2.807l-3.056-2.7a137.206,137.206,0,0,0-13.1-9.688l-3.478-2.136c-.584-.36-1.155-.733-1.751-1.068l-1.776-1.006c-1.242-.671-2.372-1.354-3.565-2l-3.652-1.876-1.813-.944-1.863-.882-3.726-1.751c-.621-.3-1.242-.559-1.888-.832l-1.888-.807c-1.242-.534-2.484-1.105-3.726-1.615l-3.826-1.515c-1.242-.5-2.484-1.019-3.838-1.453-2.584-.907-5.142-1.876-7.763-2.671L380.821,87.4,376.746,86.3c-1.317-.373-2.633-.758-3.975-1.068L368.8,84.228c-.671-.186-1.341-.323-2.012-.472l-2-.435-2.012-.447-1.043-.3-1.006-.186-3.962-.708a7.671,7.671,0,0,1-1.019-.186l-1.006-.161-2.037-.323c-2.708-.46-5.428-.745-8.148-1.118-1.366-.149-2.733-.273-4.1-.41-.683-.062-1.366-.149-2.049-.2l-2.049-.137L334.291,79l-1.019-.075h-1.031l-4.124-.186-4.124-.075H319.87q-8.248.075-16.5.845c-1.379.124-2.745.236-4.124.41s-2.733.323-4.1.522l-2.062.286-2.037.335c-1.366.211-2.733.472-4.1.708-2.708.5-5.428,1.068-8.123,1.714S273.416,84.812,270.77,85.669Z" transform="translate(49.482 -74.49)" fill="#d9e3fe"/>
      <path id="Path_17339" data-name="Path 17339" d="M115.758,188.342l-3.056-6.6a.72.72,0,0,1,.348-.944h0a.72.72,0,0,1,.944.348l3.056,6.583a.708.708,0,0,1-.348.944h0a.708.708,0,0,1-.944-.335Z" transform="translate(11.198 -48.766)" fill="#fff"/>
      <path id="Path_17340" data-name="Path 17340" d="M118.809,183.513l-6.583,3.056a.708.708,0,0,1-.944-.348h0a.72.72,0,0,1,.348-.944l6.583-3.043a.708.708,0,0,1,.944.335h0a.708.708,0,0,1-.348.944Z" transform="translate(10.854 -48.421)" fill="#fff"/>
      <path id="Path_17341" data-name="Path 17341" d="M147.729,278.749l-3.056-6.583a.708.708,0,0,1,.348-.944h0a.733.733,0,0,1,.944.348l3.043,6.583a.708.708,0,0,1-.335.944h0a.7.7,0,0,1-.944-.348Z" transform="translate(18.937 -26.875)" fill="#fff"/>
      <path id="Path_17342" data-name="Path 17342" d="M150.781,273.933l-6.583,3.056a.7.7,0,0,1-.944-.348h0a.708.708,0,0,1,.335-.944l6.6-3.043a.708.708,0,0,1,.944.335h0A.72.72,0,0,1,150.781,273.933Z" transform="translate(18.593 -26.53)" fill="#fff"/>
      <path id="Path_17343" data-name="Path 17343" d="M387.189,270.729l-3.056-6.583a.708.708,0,0,1,.348-.944h0a.72.72,0,0,1,.944.348l3.043,6.583a.708.708,0,0,1-.335.944h0a.7.7,0,0,1-.944-.348Z" transform="translate(76.912 -28.817)" fill="#fff"/>
      <path id="Path_17344" data-name="Path 17344" d="M390.241,265.913l-6.583,3.056a.708.708,0,0,1-.944-.348h0a.708.708,0,0,1,.335-.944l6.6-3.056a.733.733,0,0,1,.944.348h0a.72.72,0,0,1-.348.944Z" transform="translate(76.568 -28.472)" fill="#fff"/>
      <path id="Path_17345" data-name="Path 17345" d="M355.345,172.133l2.1-6.943a.7.7,0,0,1,.894-.472h0a.708.708,0,0,1,.472.882l-2.1,6.931a.708.708,0,0,1-.894.472h0a.708.708,0,0,1-.472-.87Z" transform="translate(69.952 -52.655)" fill="#fff"/>
      <path id="Path_17346" data-name="Path 17346" d="M360.824,170.12l-6.956-2.1a.708.708,0,0,1-.472-.882h0a.7.7,0,0,1,.882-.472l6.956,2.1a.708.708,0,0,1,.472.882h0a.708.708,0,0,1-.882.472Z" transform="translate(69.479 -52.182)" fill="#fff"/>
      <path id="Path_17347" data-name="Path 17347" d="M214.109,220.96l-.559-7.241a.7.7,0,0,1,.658-.758h0a.7.7,0,0,1,.758.646l.571,7.241a.72.72,0,0,1-.658.758h0a.708.708,0,0,1-.77-.646Z" transform="translate(35.629 -40.966)" fill="#fff"/>
      <path id="Path_17348" data-name="Path 17348" d="M218.83,217.056l-7.229.571a.72.72,0,0,1-.77-.658h0a.708.708,0,0,1,.658-.758l7.241-.571a.708.708,0,0,1,.758.658h0a.7.7,0,0,1-.658.758Z" transform="translate(34.97 -40.317)" fill="#fff"/>
      <path id="Path_17359" data-name="Path 17359" d="M199,354.287s45.126-67.931,64.428-78.973,47.8-21.19,75.644-8.31,32,30.345,42.8,56.528-7.85,112.609-7.85,112.609H227.73Z" transform="translate(38.754 -28.251)" fill="#4b93da"/>
      <path id="Path_17360" data-name="Path 17360" d="M287.786,287.508c-6.459,0-13.763-2.969-16.669-8.893-1.565-3.155-2-5.652-1.3-7.453a3.031,3.031,0,0,1,1.553-1.714l.323.882-.161-.447.174.435a2.136,2.136,0,0,0-1.031,1.242c-.4,1.031-.5,3.018,1.242,6.608,3.3,6.72,12.657,9.39,19.427,8.024,6.3-1.242,17.8-7.03,20.172-12.036,1.553-3.279,1.863-5.416,1.019-6.906s-2.981-2.422-6.484-2.77l.087-.919c3.826.373,6.211,1.428,7.2,3.229,1.3,2.285.161,5.353-.981,7.763-2.484,5.341-14.2,11.179-20.83,12.545a18.629,18.629,0,0,1-3.739.41Z" transform="translate(49.173 -28.715)" fill="#9caaf2"/>
      <path id="Path_17361" data-name="Path 17361" d="M366.14,366.966s-45.846-13.092-62.465-7.279-50.715,4.968-57.137-9.142S250.5,307.32,250.5,307.32c-10.086,25.153-11.427,43.859-8.322,57.745l1.751,57.373,118.348,2.31-17.638-48.33Z" transform="translate(42.202 -18.121)" fill="#3a4fcc"/>
      <path id="Path_17362" data-name="Path 17362" d="M371.4,354.7c-.149,8.136-.571,15.887-1.118,22.88-1.528,19.588-4.024,33.326-4.024,33.326l-32.295-5.664L268.69,393.764h0s82.178,12.756,93.406,0C367.09,388.137,369.859,371.531,371.4,354.7Z" transform="translate(48.979 -6.65)" fill="#3750e2"/>
      <path id="Path_17363" data-name="Path 17363" d="M250.93,379.593c27.1.36,73.533,2.857,73.533,2.857l-3.2-88.45c.062,1.006.137,2.049.248,3.118,2.484,25.563,9.353,92.276,9.353,92.276Z" transform="translate(44.679 -21.345)" fill="#3a4fcc" opacity="0.65"/>
      <path id="Path_17364" data-name="Path 17364" d="M291.835,366.7l-1.95,27.662L283.3,392.7l-10.545-2.683-2.745-.7-3.217-.807-25.3,2.348-4.968.46a38.156,38.156,0,0,1-6.21-4.757c-4.906-4.7-9.651-12.173-1.081-19.34,10.459-8.695,18.632-8.036,26.407-6.347,2.584.559,12.123,3.615,12.123,3.615l3.316.311,2.745.248Z" transform="translate(38.28 -5.407)" fill="#fdb2d0"/>
      <path id="Path_17365" data-name="Path 17365" d="M279.989,388.287,263.482,384.1l-25.3,2.348,4.881-6.534s18.333,2.72,22.134-1.876c0,0,3.08,3.354,10.931,2.671C281.616,380.239,280.908,385.232,279.989,388.287Z" transform="translate(41.592 -0.999)" fill="#f78dbe"/>
      <path id="Path_17366" data-name="Path 17366" d="M263.661,380a20.421,20.421,0,0,0,.224,9.043l-2.745-.7,1.081-24.519,2.745.248-.4,4.161C273.387,375.692,263.661,380,263.661,380Z" transform="translate(47.151 -4.439)" fill="#f78dbe"/>
      <path id="Path_17367" data-name="Path 17367" d="M371.959,375.729c-.137,8.136-.571,15.887-1.118,22.88-.472,6.1-1.043,11.639-1.6,16.359-1.242,10.446-2.422,16.967-2.422,16.967l-14.508-2.546-17.737-3.118L266.38,414.284l2.174-27.326,58.565,8.695s-6.856-66.713-9.353-92.276,9.353-35.537,9.353-35.537C365.6,278.833,372.729,332.628,371.959,375.729Z" transform="translate(48.42 -27.679)" fill="#4f97df"/>
      <path id="Path_17368" data-name="Path 17368" d="M352.49,386.29c-1.242,10.446-2.422,16.967-2.422,16.967l-14.508-2.546C341.472,398.351,348.59,394.128,352.49,386.29Z" transform="translate(65.168 0.998)" fill="#364fe0"/>
      <path id="Path_17369" data-name="Path 17369" d="M315.51,370s19.029-.609,21.861,10.719C337.371,380.72,332.1,373.442,315.51,370Z" transform="translate(60.314 -2.947)" fill="#3a4fcc"/>
      <path id="Path_17370" data-name="Path 17370" d="M312.65,371s18.93,2.1,20.122,13.663C332.772,384.762,328.6,376.813,312.65,371Z" transform="translate(59.622 -2.703)" fill="#3a4fcc"/>
      <path id="Path_17371" data-name="Path 17371" d="M261.207,361.02l-1.627,27.364,1.627.286,1.466-27.513Z" transform="translate(59.107 -1.095)" fill="#9caaf2"/>
      <path id="Path_17372" data-name="Path 17372" d="M264.47,361.44l-1.64,27.55,1.64.286,1.466-27.624Z" transform="translate(59.894 -0.993)" fill="#9caaf2"/>
      <path id="Path_17373" data-name="Path 17373" d="M258.613,387.6a98.86,98.86,0,0,1,.981-24.022l5.652.522s-2.956,20.557-1.478,24.842Z" transform="translate(46.461 -4.5)" fill="#f9835a"/>
      <path id="Path_17374" data-name="Path 17374" d="M259,386.73s-1.105-12.707.783-22.47l4.968.447s-3.018,19.526-1.739,23.215Z" transform="translate(46.556 -4.335)" fill="#fcaa24"/>
      <ellipse id="Ellipse_60" data-name="Ellipse 60" cx="7.353" cy="6.049" rx="7.353" ry="6.049" transform="translate(300.528 363.465)" fill="#f9835a"/>
      <ellipse id="Ellipse_61" data-name="Ellipse 61" cx="6.533" cy="5.378" rx="6.533" ry="5.378" transform="translate(301.348 364.136)" fill="#fcaa24"/>
      <path id="Path_17375" data-name="Path 17375" d="M256.51,371.03s1.155-3.018,5.689-3.13a10.943,10.943,0,0,0-5.689,3.13Z" transform="translate(46.03 -3.454)" fill="#ffc46e"/>
      <path id="Path_17376" data-name="Path 17376" d="M250,366.2v4.36l6.372-.4h-5.925Z" transform="translate(56.788 0.159)" fill="#f9835a"/>
      <rect id="Rectangle_232" data-name="Rectangle 232" width="2.981" height="0.932" rx="0.28" transform="matrix(0.996, 0.086, -0.086, 0.996, 305.757, 376.976)" fill="#f9835a"/>
      <rect id="Rectangle_233" data-name="Rectangle 233" width="2.993" height="0.935" rx="0.281" transform="translate(306.495 363.553) rotate(5.143)" fill="#f9835a"/>
      <rect id="Rectangle_234" data-name="Rectangle 234" width="2.981" height="0.932" rx="0.28" transform="translate(307.102 361.977) rotate(4.92)" fill="#f9835a"/>
      <rect id="Rectangle_235" data-name="Rectangle 235" width="2.981" height="0.932" rx="0.28" transform="matrix(0.996, 0.086, -0.086, 0.996, 305.751, 378.349)" fill="#f9835a"/>
      <rect id="Rectangle_236" data-name="Rectangle 236" width="2.981" height="0.932" rx="0.28" transform="matrix(0.996, 0.086, -0.086, 0.996, 305.757, 379.723)" fill="#f9835a"/>
      <rect id="Rectangle_237" data-name="Rectangle 237" width="2.981" height="0.932" rx="0.28" transform="matrix(0.996, 0.086, -0.086, 0.996, 305.751, 381.097)" fill="#f9835a"/>
      <path id="Path_17377" data-name="Path 17377" d="M297.373,262.08s33.251-29.3,12.061-65.67l-19.1,33.351Z" transform="translate(54.218 -44.973)" fill="#1f107e"/>
      <path id="Path_17378" data-name="Path 17378" d="M285.719,290.531c-8.446-1.242-11.6-6.72-12.732-9.937a12.024,12.024,0,0,1-.609-2.372l-.162-.633h0l-.82-3.093-.46-1.7-1.652-6.211-3.552-13.377-.273-1.056,34.605-15.39s.447,2.484,1.242,6.136c.46,2.174,1.031,4.757,1.677,7.453,2.112,8.931,5.105,19.489,8.012,22.557l.174.2C315.815,278.855,297.73,292.381,285.719,290.531Z" transform="translate(48.197 -35.204)" fill="#fdb2d0"/>
      <path id="Path_17379" data-name="Path 17379" d="M301.568,246.44c-3.292,10.881-17.961,29.028-23.762,28.792a11.887,11.887,0,0,1-7.614-3.59l-1.652-6.211c6.037-5.962,25.413-24.37,32-23.749C301,243.857,300.909,243.7,301.568,246.44Z" transform="translate(48.942 -34.015)" fill="#ef8ec3"/>
      <path id="Path_17380" data-name="Path 17380" d="M317.92,229.832q0,2.571-.261,5.18a70.279,70.279,0,0,1-4.273,18.743c-7.341,19.352-22.706,32.208-39.275,30.755-11.365-.994-21-8.521-27.19-19.712a59.621,59.621,0,0,1-6.645-20.371,69.557,69.557,0,0,1-.671-8.148,70.508,70.508,0,0,1,.248-8.061q.224-2.484.6-4.844c4.149-26.767,22.631-46.417,42.9-44.641S318.354,202.878,317.92,229.832Z" transform="translate(41.931 -49.279)" fill="#fdb2d0"/>
      <path id="Path_17381" data-name="Path 17381" d="M309.56,225.525q0,2.571-.261,5.18a70.279,70.279,0,0,1-4.273,18.743c-37.847-26.507-30.307-53.038-30.307-53.038Z" transform="translate(50.29 -44.973)" fill="#f78dbe"/>
      <path id="Path_17382" data-name="Path 17382" d="M282.227,193.34s-9.564,31.313-24.619,37.822a29.81,29.81,0,0,1-17.973,1.5,70.225,70.225,0,0,1,.248-8.049c.149-1.64.335-3.267.6-4.857Z" transform="translate(41.938 -45.716)" fill="#f78dbe"/>
      <path id="Path_17383" data-name="Path 17383" d="M291.737,190.337s-22.855,40.319-50.678,44.455-14.135-34.083,6.211-47.374S297.14,164.986,291.737,190.337Z" transform="translate(38.49 -50.327)" fill="#1f107e"/>
      <path id="Path_17384" data-name="Path 17384" d="M276.343,180.433c-.981,0-5.925,23.8,1.975,40.84S309.9,252.86,309.9,252.86,339.417,179.29,276.343,180.433Z" transform="translate(50.244 -48.844)" fill="#1f107e"/>
      <path id="Path_17385" data-name="Path 17385" d="M275.911,195.041s-14.607-43.958,19.762-40.667c51.585,4.968,62.428,48.144,6.807,59.273" transform="translate(49.98 -55.192)" fill="#1f107e"/>
      <path id="Path_17386" data-name="Path 17386" d="M283.49,228.4s.845-19.513,8.1-17.787,11.614,18.632,5.875,23.786-10.2,1.938-10.2,1.938Z" transform="translate(52.562 -41.561)" fill="#fdb2d0"/>
      <path id="Path_17387" data-name="Path 17387" d="M274.12,174.456a40.219,40.219,0,0,1,29.115,9.291c13.787,11.489,12.558,21.215,12.558,21.215S310.526,180.728,274.12,174.456Z" transform="translate(50.293 -50.32)" fill="#fcaa24"/>
      <path id="Path_17388" data-name="Path 17388" d="M287,217.073s1.789-4.708,4.161-3.726,7.453,8.335,5.689,13.3-4.732,4.434-4.732,4.434,5.155-4,3.354-8.931S290.5,213.2,287,217.073Z" transform="translate(53.412 -40.905)" fill="#f973aa"/>
      <path id="Path_17389" data-name="Path 17389" d="M276.777,177.167s-7.651-10.421-2.882-18.507C273.9,158.66,270.231,164.771,276.777,177.167Z" transform="translate(49.86 -54.112)" fill="#1f107e"/>
      <path id="Path_17390" data-name="Path 17390" d="M325,194.094s-11.03,6.608-16.706-.484C308.29,193.622,312.563,199.063,325,194.094Z" transform="translate(58.566 -45.65)" fill="#1f107e"/>
      <path id="Path_17391" data-name="Path 17391" d="M309.545,227.6a26.556,26.556,0,0,1-.447,7.005,39.071,39.071,0,0,1-1.962,6.769c-.46,1.081-.882,2.186-1.428,3.23-.261.522-.509,1.068-.807,1.577l-.907,1.515c-.149.248-.3.509-.46.745l-.522.72c-.335.484-.671.969-1.019,1.441-.72.932-1.5,1.813-2.273,2.7h0c.323-.5.658-.969.981-1.453s.7-.944.994-1.441l.944-1.478.472-.733.435-.758.87-1.5c.3-.509.547-1.031.82-1.54.571-1.019,1.019-2.1,1.515-3.155a38.958,38.958,0,0,0,2.012-6.683,26.248,26.248,0,0,0,.671-6.956Z" transform="translate(56.491 -37.421)" fill="#1f107e"/>
      <path id="Path_17392" data-name="Path 17392" d="M310.709,235.592l-.534-.224c6.074-14.421,3.8-24.917.832-31.189a28.568,28.568,0,0,0-7.987-10.247l.335-.472a29.289,29.289,0,0,1,8.161,10.446C314.547,210.278,316.869,220.948,310.709,235.592Z" transform="translate(57.29 -45.687)" fill="#1f107e"/>
      <path id="Path_17393" data-name="Path 17393" d="M274.212,178.62c-4.608,1.739-9.154,3.726-13.576,5.863-2.211,1.081-4.4,2.223-6.533,3.453a67.648,67.648,0,0,0-6.21,3.987,34.694,34.694,0,0,0-5.49,4.857c-.807.919-1.59,1.888-2.335,2.857s-1.478,1.963-2.174,2.981a58.844,58.844,0,0,0-3.8,6.3A39.176,39.176,0,0,0,231.3,215.7a21.21,21.21,0,0,0-.758,3.565,7.875,7.875,0,0,0,.286,3.54,2.15,2.15,0,0,0,.174.385,1.825,1.825,0,0,0,.2.348,1.962,1.962,0,0,0,.646.484,6.21,6.21,0,0,0,1.7.46,16.84,16.84,0,0,0,3.627,0,37.734,37.734,0,0,0,7.217-1.366,52.893,52.893,0,0,0,6.919-2.484,48.194,48.194,0,0,0,12.421-7.912,39.747,39.747,0,0,0,5.043-5.378,37.438,37.438,0,0,0,3.925-6.211,37.871,37.871,0,0,1-8.782,11.837,50.094,50.094,0,0,1-19.352,10.694,38.322,38.322,0,0,1-7.341,1.391,18.033,18.033,0,0,1-3.726,0,6.21,6.21,0,0,1-1.863-.509,2.484,2.484,0,0,1-.832-.621,3.526,3.526,0,0,1-.273-.435,3.731,3.731,0,0,1-.2-.46,8.5,8.5,0,0,1-.323-3.726,21.45,21.45,0,0,1,.758-3.726,40.1,40.1,0,0,1,2.869-6.869,58.712,58.712,0,0,1,3.851-6.347c.708-1.018,1.441-2.025,2.2-2.993s1.54-1.938,2.372-2.869a27.848,27.848,0,0,1,2.671-2.608c.484-.4.956-.795,1.453-1.168l.733-.571.758-.547a67.139,67.139,0,0,1,6.273-3.937q3.242-1.826,6.6-3.4c2.236-1.056,4.5-2.037,6.782-2.981S271.877,179.415,274.212,178.62Z" transform="translate(39.594 -49.28)" fill="#6f69c4"/>
      <path id="Path_17394" data-name="Path 17394" d="M271.648,176.62a46.651,46.651,0,0,0-6.919,1.242,59.153,59.153,0,0,0-6.707,2.1,61.635,61.635,0,0,0-12.5,6.36c-.994.633-1.925,1.329-2.882,2a33.12,33.12,0,0,0-2.757,2.174c-.447.385-.907.745-1.341,1.143l-1.242,1.242a14.652,14.652,0,0,0-1.242,1.242l-.633.609c-.211.211-.422.41-.609.633-.807.857-1.627,1.689-2.385,2.584-.373.447-.77.882-1.143,1.341l-1.093,1.379-.547.683c-.186.236-.348.472-.522.708l-1.043,1.416-.261.36-.248.373-.484.72-.994,1.466c.621-1.006,1.242-2.025,1.863-3.006l.994-1.453c.161-.248.323-.5.5-.733l.522-.708,1.068-1.4c.36-.472.745-.919,1.118-1.379.733-.919,1.54-1.776,2.335-2.658a54.272,54.272,0,0,1,5.13-4.869c.882-.783,1.838-1.49,2.757-2.223a31.9,31.9,0,0,1,2.907-2.025,58.955,58.955,0,0,1,6.136-3.528,54.449,54.449,0,0,1,6.509-2.77,49.584,49.584,0,0,1,13.713-3.018Z" transform="translate(38.668 -49.764)" fill="#1f107e"/>
      <circle id="Ellipse_62" data-name="Ellipse 62" cx="10.707" cy="10.707" r="10.707" transform="translate(313.545 192.601)" fill="url(#radial-gradient)"/>
      <path id="Path_17395" data-name="Path 17395" d="M254.392,241.837a10.719,10.719,0,0,1-7.576,10.247,59.622,59.622,0,0,1-6.646-20.37,10.978,10.978,0,0,1,3.515-.584A10.707,10.707,0,0,1,254.392,241.837Z" transform="translate(42.074 -36.567)" fill="url(#radial-gradient-2)"/>
      <path id="Path_17396" data-name="Path 17396" d="M254.911,231.531a12.633,12.633,0,0,0-2.981-1.876,6.733,6.733,0,0,0-3.242-.571,6.943,6.943,0,0,0-3.118,1.106,18.321,18.321,0,0,0-2.77,2.211,9.228,9.228,0,0,1,2.348-2.844A6.372,6.372,0,0,1,248.6,228.1a6.211,6.211,0,0,1,3.652.869,7.6,7.6,0,0,1,2.658,2.559Z" transform="translate(42.711 -37.303)" fill="#f78dbe"/>
      <path id="Path_17397" data-name="Path 17397" d="M271.091,229.3a12.5,12.5,0,0,0-2.993-1.863,6.571,6.571,0,0,0-3.242-.584,6.956,6.956,0,0,0-3.118,1.118,16.953,16.953,0,0,0-2.758,2.211,9.042,9.042,0,0,1,2.335-2.844,6.285,6.285,0,0,1,3.453-1.453,6.1,6.1,0,0,1,3.652.857A7.988,7.988,0,0,1,271.091,229.3Z" transform="translate(46.628 -37.842)" fill="#f78dbe"/>
      <path id="Path_17398" data-name="Path 17398" d="M257.348,233.59c-.6,1.64-1.143,3.279-1.64,4.968-.236.832-.472,1.664-.671,2.484a21.877,21.877,0,0,0-.447,2.484,8.5,8.5,0,0,0,0,2.484,2.41,2.41,0,0,0,1.242,1.938,3.727,3.727,0,0,0,2.41.112,14.509,14.509,0,0,0,2.484-.783,11.416,11.416,0,0,1-2.385,1.056,5.74,5.74,0,0,1-1.317.248,3.106,3.106,0,0,1-1.366-.224,2.236,2.236,0,0,1-1.056-.944,3.727,3.727,0,0,1-.484-1.3,9.626,9.626,0,0,1,0-2.671,25.463,25.463,0,0,1,1.242-5.093,37.986,37.986,0,0,1,1.987-4.757Z" transform="translate(45.428 -35.971)" fill="#f78dbe"/>
      <path id="Path_17399" data-name="Path 17399" d="M272.5,245.79s-3.5,10.4-10.98,9.142a11.253,11.253,0,0,1-9.192-7.453s.571.236,1.577.534c3.242.956,10.918,2.484,17.787-1.689h0C271.968,246.138,272.241,245.976,272.5,245.79Z" transform="translate(45.018 -33.017)" fill="#fff"/>
      <path id="Path_17400" data-name="Path 17400" d="M288.5,153.037a56.355,56.355,0,0,1,17.265,1.242c.944.211,1.876.46,2.807.708s1.863.559,2.77.882a45.955,45.955,0,0,1,5.353,2.248,38.814,38.814,0,0,1,5.031,2.894,38.231,38.231,0,0,1,8.546,7.763,43.472,43.472,0,0,0-4.161-3.987l-.547-.472-.559-.447-1.105-.894c-.795-.534-1.553-1.118-2.372-1.615a47.649,47.649,0,0,0-10.334-4.968,59.187,59.187,0,0,0-11.179-2.72c-1.9-.286-3.813-.484-5.726-.6a52.732,52.732,0,0,0-5.788-.037Z" transform="translate(53.775 -55.52)" fill="#1f107e"/>
      <path id="Path_17401" data-name="Path 17401" d="M284.252,283.442c-8.446-1.242-11.6-6.72-12.732-9.937,2.223,2.484,7.987,8.111,14.607,8.3,8.5.236,18.085-7.068,18.085-7.068s4.869-4.968,5.465-8.695C314.348,271.766,296.263,285.293,284.252,283.442Z" transform="translate(49.664 -28.115)" fill="#ef8ec3"/>
      <path id="Path_17402" data-name="Path 17402" d="M296.73,233.086c0,2.956-1.664,5.341-3.726,5.341-1.664,0-3.068-1.577-3.54-3.726h0a7.453,7.453,0,0,1-.174-1.59c0-2.956,1.664-5.341,3.726-5.341a3.726,3.726,0,0,1,3.192,2.646h0a7.316,7.316,0,0,1,.522,2.671Z" transform="translate(53.966 -37.38)" fill="#f9835a"/>
      <path id="Path_17403" data-name="Path 17403" d="M296.385,231.986c0,2.956-1.664,5.353-3.726,5.353a3.726,3.726,0,0,1-3.2-2.658h0a7.455,7.455,0,0,1-.174-1.59c0-2.956,1.664-5.341,3.726-5.341A3.726,3.726,0,0,1,296.2,230.4h0A8.084,8.084,0,0,1,296.385,231.986Z" transform="translate(53.964 -37.385)" fill="#fcaa24"/>
      <path id="Path_17404" data-name="Path 17404" d="M237.725,387.95H232.57v7.341h5.155" transform="translate(52.568 5.425)" fill="#426bc6"/>
      <path id="Path_17405" data-name="Path 17405" d="M270.083,417.437H140.407L128.57,313.1H258.283Z" transform="translate(15.055 -16.721)" fill="#6c90fe"/>
      <rect id="Rectangle_238" data-name="Rectangle 238" width="39.76" height="7.341" transform="translate(290.293 393.375)" fill="#5c84ea"/>
      <path id="Path_17406" data-name="Path 17406" d="M223.03,310.194l5.614-1.664,11.229,104.113-4.993,1.876Z" transform="translate(50.258 -13.803)" fill="#5c84ea"/>
      <path id="Path_17407" data-name="Path 17407" d="M118.64,310.194l6.434-1.664H253.918l-5.614,1.664Z" transform="translate(24.985 -13.803)" fill="#aac0f9"/>
      <ellipse id="Ellipse_63" data-name="Ellipse 63" cx="12.781" cy="10.906" rx="12.781" ry="10.906" transform="translate(200.936 335.952)" fill="#afc4f9"/>
      <path id="Path_17408" data-name="Path 17408" d="M251.538,417.437H140.407L128.57,313.1C128.955,315.46,145.711,412.158,251.538,417.437Z" transform="translate(15.055 -16.721)" fill="#5e8fdb"/>
      <path id="Path_17409" data-name="Path 17409" d="M188.46,310.62h42.02l2.981,28.469-4.621-26.531Z" transform="translate(41.889 -13.297)" fill="#a0bdf9"/>
      <rect id="Rectangle_239" data-name="Rectangle 239" width="82.985" height="47.386" transform="translate(286.729 49.149) rotate(-21.32)" fill="#b3c2e5"/>
      <path id="Path_17410" data-name="Path 17410" d="M310.595,86.7l-1.23.472L296,117.653l-.373.845-8.794,20.048-20.048-8.794-.845-.373L235.46,116.014l-1.23.484,31.326,13.738L252.39,160.282l1.23-.484,12.794-29.189,20.892,9.167,9.167-20.892,29.189,12.794,1.23-.472-30.034-13.179Z" transform="translate(52.97 -67.509)" fill="#ebf0fc"/>
      <path id="Path_17411" data-name="Path 17411" d="M215.648,246.05V235.008A25.128,25.128,0,0,0,190.52,209.88H108.268A25.128,25.128,0,0,0,83.14,235.008V246.05a25.128,25.128,0,0,0,25.128,25.128h59.161l41.424,12.347-6.819-15.116A25.115,25.115,0,0,0,215.648,246.05Z" transform="translate(4.056 -41.711)" fill="#b3c2e5"/>
      <path id="Path_17412" data-name="Path 17412" d="M192.162,226.707H99.489a3.329,3.329,0,0,1-3.329-3.329h0A3.329,3.329,0,0,1,99.489,220h92.673a3.329,3.329,0,0,1,3.329,3.329h0a3.329,3.329,0,0,1-3.329,3.378Z" transform="translate(7.208 -39.261)" fill="#ebf0fc"/>
      <path id="Path_17413" data-name="Path 17413" d="M192.162,238.065H99.489a3.329,3.329,0,0,1-3.329-3.316h0a3.329,3.329,0,0,1,3.329-3.329h92.673a3.329,3.329,0,0,1,3.329,3.329h0A3.329,3.329,0,0,1,192.162,238.065Z" transform="translate(7.208 -36.496)" fill="#ebf0fc"/>
      <rect id="Rectangle_240" data-name="Rectangle 240" width="63.583" height="6.645" rx="2.14" transform="translate(103.368 209.059)" fill="#ebf0fc"/>
      <circle id="Ellipse_64" data-name="Ellipse 64" cx="37.524" cy="37.524" r="37.524" transform="translate(420.287 189.473) rotate(-80.78)" fill="#b3c2e5"/>
      <path id="Path_17424" data-name="Path 17424" d="M411.017,226.545h0c-2.77,2.869-7.788,3.354-13.663,1.789a51.883,51.883,0,0,1-29.811-24.519c-2.658-5.44-3.155-10.459-.87-13.738h0a9.39,9.39,0,0,1,9.577-2.484,2.882,2.882,0,0,1,1.751,1.59,36.022,36.022,0,0,0,4.074,6.919,2.894,2.894,0,0,1,.484,2.273,9.241,9.241,0,0,1-1.925,4.049h0a2.894,2.894,0,0,0,.075,3.8,56.966,56.966,0,0,0,11.726,9.626,2.869,2.869,0,0,0,3.726-.658h0a9.217,9.217,0,0,1,3.6-2.683,2.857,2.857,0,0,1,2.323,0,36.855,36.855,0,0,0,7.577,2.77,2.857,2.857,0,0,1,1.9,1.4,9.316,9.316,0,0,1,1.155,4.77A9.216,9.216,0,0,1,411.017,226.545Z" transform="translate(72.349 -47.21)" fill="#ebf0fc"/>
      <path id="Path_17425" data-name="Path 17425" d="M400.445,205.754a.708.708,0,0,1-.261-.5,15.017,15.017,0,0,0-16.408-13.489.733.733,0,0,1-.149-1.453,16.83,16.83,0,0,1,6.3.6,16.458,16.458,0,0,1,11.7,14.21.733.733,0,0,1-.658.795.808.808,0,0,1-.522-.161Z" transform="translate(76.661 -46.466)" fill="#ebf0fc"/>
      <path id="Path_17426" data-name="Path 17426" d="M404.986,206.189a.77.77,0,0,1-.273-.5A19.464,19.464,0,0,0,383.436,188.2a.733.733,0,0,1-.795-.658.72.72,0,0,1,.646-.795,20.892,20.892,0,0,1,22.88,18.805.72.72,0,0,1-.646.795.757.757,0,0,1-.534-.161Z" transform="translate(76.566 -47.336)" fill="#ebf0fc"/>
      <path id="Path_17427" data-name="Path 17427" d="M409.131,206.593a.807.807,0,0,1-.261-.5,23.6,23.6,0,0,0-25.724-21.19.733.733,0,0,1-.149-1.453,25.041,25.041,0,0,1,27.326,22.495.745.745,0,0,1-.658.807A.807.807,0,0,1,409.131,206.593Z" transform="translate(76.508 -48.138)" fill="#ebf0fc"/>
    </g>
  </g>
</svg>
