<svg xmlns="http://www.w3.org/2000/svg" width="143.013" height="252.205" viewBox="0 0 143.013 252.205">
  <g id="DEER" transform="translate(-2580 -4581.69)">
    <g id="Group_614" data-name="Group 614" transform="translate(2649.027 4757.387)">
      <path id="Path_2701" data-name="Path 2701" d="M2423.993,2478.033c-3.351.545-7.183,6.732-4.2,8.979.906.283,2.918-2.248,2.918-2.248s-1.7,3.061-1.156,3.391c2.773,1.705,16.186-1.457,13.023-10.768" transform="translate(-2418.718 -2433.162)" fill="#7a2110"/>
      <path id="Path_2702" data-name="Path 2702" d="M2478.068,1996.492c-.626,2.964,7.345,10.084,6.21,13.821s-11.868,22.22-14.334,24.415,7.991,3.83,11.29.907,1.129-3.7,2.74-7.56,7.434-13.953,10.272-15.92,3.908-6.268,1.227-10.072-1.477-12.091-1.477-12.091" transform="translate(-2464.956 -1989.991)" fill="#ef7320"/>
      <path id="Path_2703" data-name="Path 2703" d="M2499.23,2245.638c2.872.253-2.6,12.734-9.1,23.345-2.457.131-4.936-.3-5.265-1.433C2488.66,2262.5,2497.7,2245.505,2499.23,2245.638Z" transform="translate(-2478.866 -2222.441)" fill="#fc983d"/>
      <path id="Path_2704" data-name="Path 2704" d="M2428.271,2514.667c2.912.777,3.02,5.193,1.781,6.369-2.184.932-3.775.183-4.141-.266-.581-.709,1.022-3.365,1.022-3.365s-2.624,2.619-3.323,2.529a2.6,2.6,0,0,1-.774-2.714A4.28,4.28,0,0,1,2428.271,2514.667Z" transform="translate(-2422.377 -2466.874)" fill="#994d2b"/>
    </g>
    <g id="Group_615" data-name="Group 615" transform="translate(2597.044 4753.089)">
      <path id="Path_2705" data-name="Path 2705" d="M1808.888,2552.4c-3.267-.269-7.7,5.4-5.143,8.581.833.523,3.072-1.677,3.072-1.677s-2.194,2.808-1.529,3.347c3.127,2.531,15.625,2.533,13.781-8.274" transform="translate(-1802.983 -2496.125)" fill="#7a2110"/>
      <path id="Path_2706" data-name="Path 2706" d="M1902.324,1944.055c.55,4.115-9.51,16.716-13.536,20.423-3.389,3.12-1.169,5.031-4.016,7.353s-8.037,14.282-7.992,16.647-7.773,8.885-13.921,2.089c-1.275-1.4,1.211-2.743,5.479-9.022s7.423-10.72,7.755-13.505,1.568-4.348,3.606-6.294.268-12.3,9.723-29.391" transform="translate(-1857.122 -1932.355)" fill="#ef7320"/>
      <path id="Path_2707" data-name="Path 2707" d="M2068.273,1976.781c-2.94,1.178-6.906,18.6-8.366,26.362.119,4.213,1.191,4.833,3.327,1.747,2.548-3.683,12-12.518,12-18.83C2069.65,1983.45,2068.273,1976.781,2068.273,1976.781Z" transform="translate(-2036.594 -1972.75)" fill="#fc983d"/>
      <path id="Path_2708" data-name="Path 2708" d="M2043.425,2256.445c3.023,1.608.77,7.572-2.117,6.489S2039.4,2254.307,2043.425,2256.445Z" transform="translate(-2018.172 -2226.692)" fill="#fc983d"/>
      <path id="Path_2709" data-name="Path 2709" d="M1895.193,2347.681c2.6.426-4.5,16.528-8.324,22.2-3.486.661-5.7-2.694-5.7-2.694C1883.769,2363.152,1893.739,2347.445,1895.193,2347.681Z" transform="translate(-1874.074 -2309.992)" fill="#fc983d"/>
      <path id="Path_2710" data-name="Path 2710" d="M1812.483,2583.07c2.563,1.762,1.767,6.487.372,7.337a3.683,3.683,0,0,1-3.811-1.611c-.4-.94,1.637-3.249,1.637-3.249s-2.982,1.941-3.616,1.622a3.321,3.321,0,0,1-.17-3.134C1807.35,2583.1,1809.413,2580.96,1812.483,2583.07Z" transform="translate(-1806.261 -2523.208)" fill="#994d2b"/>
    </g>
    <g id="Group_617" data-name="Group 617" transform="translate(2624.946 4692.217)">
      <g id="Group_616" data-name="Group 616" transform="translate(71.715 20.399)">
        <path id="Path_2711" data-name="Path 2711" d="M2902.722,1506.329c-4.829-7.506.7-14.137,4.151-14.8a8.977,8.977,0,0,0-.919,3.272c1.606-3.83,5.584-4.047,5.672-8.5,4.138,2.977,5.835,10.322,5.087,14.974,1.081-1.524,1.723-2.673,1.351-5.662,4.49,8.526,1.783,19.9-11.92,14.625" transform="translate(-2900.83 -1486.308)" fill="#ef7320"/>
        <path id="Path_2712" data-name="Path 2712" d="M2967.261,1514.16c-1.963-.786-2.825-8.084.317-10.927s3.314-4.828,3.314-4.828C2976.609,1507.152,2971.787,1515.971,2967.261,1514.16Z" transform="translate(-2959.631 -1497.307)" fill="#fc983d"/>
        <path id="Path_2713" data-name="Path 2713" d="M2950.154,1550.284c7.222,3.629,15.051,2.643,13.015-9.554-.565,3.061-3.707,5.115-3.707,5.115,1.863-5.527,1.555-8.863-.867-14.108.511,7.566-2.5,14.242-5.182,15.395a3.513,3.513,0,0,0,4.47-.821c-.568,2.292-3.508,3.786-8.157,3.25" transform="translate(-2945.289 -1527.614)" fill="#ffe7ae"/>
        <path id="Path_2714" data-name="Path 2714" d="M2913.93,1571.733c-2.967-.683-2.336-6.243,1.173-8.32C2915.568,1566.382,2916.524,1572.33,2913.93,1571.733Z" transform="translate(-2911.023 -1556.417)" fill="#fc983d"/>
      </g>
      <path id="Path_2715" data-name="Path 2715" d="M2193.718,1351.162c-13.156-4.893-23.129,15.106-48.982,9.563-22.664-4.875-25.305-22.6-22.815-34.526,2.122-10.147,11.906-28.126,8.052-38.181l23.377.469c-3.244,9.144-13.828,34.33-3.169,37.5s23.628-15.22,43.076-1.839c7.987,5.486,8.7,12.65,7.6,19.246C2199.527,1351.43,2193.718,1351.162,2193.718,1351.162Z" transform="translate(-2120.191 -1285.612)" fill="#ef7320"/>
      <path id="Path_2716" data-name="Path 2716" d="M2316,1463.454c-5.524,17.433.74,25.816,9.908,22.832s19.989-10.386,31.54-5.364c5.034,2.189,8.843,8.477,7.259,12.138-2.05,4.74-12.842,7.163-26.25,12.034-18.34,6.664-27.968,3.244-29.826-10.054C2306.58,1480.346,2316,1463.454,2316,1463.454Z" transform="translate(-2290.389 -1445.129)" fill="#fc983d"/>
      <path id="Path_2717" data-name="Path 2717" d="M2133.907,1269.079c.49,11.769-16.193,49.13.247,56.913,13.02,6.164,27.777-4.156,37.5-3.175s3.273,5.4-2.252,6.635-18.417,12.283-38.2,6.565-21.993-22.5-20.233-34.5c2.323-15.835,11.639-26.022,6.532-40.023" transform="translate(-2110.486 -1261.497)" fill="#f4c97d"/>
      <path id="Path_2718" data-name="Path 2718" d="M2671.32,1656.605c4.71-1.091,4.458.992-.1,3.163S2666.614,1657.7,2671.32,1656.605Z" transform="translate(-2617.229 -1620.482)" fill="#ffe7ae"/>
      <path id="Path_2719" data-name="Path 2719" d="M2518.666,1732.445c3.1-1.1,7.419,2.146.9,3.934S2512.924,1734.5,2518.666,1732.445Z" transform="translate(-2477.849 -1689.509)" fill="#ffe7ae"/>
      <path id="Path_2720" data-name="Path 2720" d="M2657.37,1748.736c2.708-1.052,4.571,1.3,1.064,2.911S2651.072,1751.2,2657.37,1748.736Z" transform="translate(-2604.695 -1704.286)" fill="#ffe7ae"/>
      <path id="Path_2721" data-name="Path 2721" d="M2772.889,1670.984c3.3-1.07,5.112,1.448.646,3.1S2768.667,1672.354,2772.889,1670.984Z" transform="translate(-2710.103 -1633.595)" fill="#ffe7ae"/>
      <path id="Path_2722" data-name="Path 2722" d="M2435.448,1725.474c2.17-.852,4.041,1.527.644,2.525S2431.7,1726.938,2435.448,1725.474Z" transform="translate(-2403.787 -1683.209)" fill="#ffe7ae"/>
      <path id="Path_2723" data-name="Path 2723" d="M2555.6,1809.548c1.541-.315,4.035.92.685,2.074S2553.027,1810.055,2555.6,1809.548Z" transform="translate(-2513.497 -1759.773)" fill="#ffe7ae"/>
      <path id="Path_2724" data-name="Path 2724" d="M2145.608,1420.323c-3.353,13.717-9.375,28.213-4.865,42.627,2.052,7.318-8.677,9.753-12.678,1.02-3.763-8.211-3.763-25.02,5.087-36.58C2136.781,1422.65,2145.608,1420.323,2145.608,1420.323Z" transform="translate(-2124.302 -1405.911)" fill="#ffe7ae"/>
    </g>
    <g id="Group_618" data-name="Group 618" transform="translate(2641.898 4752.828)">
      <path id="Path_2725" data-name="Path 2725" d="M2300.259,2674.305c-3.032,1.25-4.432,8.31-.715,9.983.981.1,1.981-2.888,1.981-2.888s-.9,3.474.152,3.684c5.248,1.057,15.085-4.807,8.556-13.617" transform="translate(-2297.31 -2604.14)" fill="#7a2110"/>
      <path id="Path_2726" data-name="Path 2726" d="M2348.019,1943.444c2.034,3.625-3.115,25.669-5.386,29.682-2.271,4,1.121,5.681-.658,8.9s-1.753,18.065-.648,20.16-2.923,11.427-11.473,8.156c-1.779-.686-.16-3,.809-10.534s2.566-15.379,1.842-18.087-.156-4.62,1.015-7.177-6.988-24.937-1.187-35.305" transform="translate(-2326.176 -1938.35)" fill="#ef7320"/>
      <path id="Path_2727" data-name="Path 2727" d="M2382.716,1931.375c3.892,5.289-.107,22.281-1.441,27.067s-4.582,12.884-6.1,8.585c-3.031-9.236-2.611-31.339.326-34.938C2378.814,1928.023,2381.289,1929.435,2382.716,1931.375Z" transform="translate(-2366.211 -1929.472)" fill="#fc983d"/>
      <path id="Path_2728" data-name="Path 2728" d="M2380.637,2330.438c3.392.468,3.448,6.432.364,6.43S2376.088,2329.809,2380.637,2330.438Z" transform="translate(-2370.587 -2294.019)" fill="#fc983d"/>
      <path id="Path_2729" data-name="Path 2729" d="M2344.863,2448.053c2.587-.512,1.568,17.057-.03,23.706-3.034,1.84-5.346-1.018-5.346-1.018C2339.5,2466.461,2343.417,2448.34,2344.863,2448.053Z" transform="translate(-2335.659 -2400.988)" fill="#fc983d"/>
      <path id="Path_2730" data-name="Path 2730" d="M2306.387,2734.594c3.055.577,4.236,5.22,3.3,6.561a3.685,3.685,0,0,1-4.137.068c-.743-.7.186-3.633.186-3.633s-1.943,2.976-2.653,2.943a3.318,3.318,0,0,1-1.422-2.8C2301.7,2736.7,2302.726,2733.9,2306.387,2734.594Z" transform="translate(-2301.267 -2661.439)" fill="#994d2b"/>
    </g>
    <g id="Group_619" data-name="Group 619" transform="translate(2683.801 4731.919)">
      <path id="Path_2731" data-name="Path 2731" d="M3035.576,2533.75c-2.848,1.625-3.332,8.805.564,9.992.988-.033,1.6-3.115,1.6-3.115s-.278,3.456.615,3.622c2.8.521,14.346-6.681,6.757-14.58" transform="translate(-3008.447 -2454.299)" fill="#7a2110"/>
      <path id="Path_2732" data-name="Path 2732" d="M2759.109,1810.576c4.994,23.821,10.564,21.551,18.1,27.091,4.63,3.405,8.212,24.251,8.208,34.261,1.835,2.029,7.972-.716,9.144-2.622s2.405-4.663-.3-8.041-7.087-22.918-6.381-27.516-2.928-5.353-6.39-8.792c-2.306-2.3,2.506-15.749-.746-24.712" transform="translate(-2759.109 -1791.062)" fill="#ef7320"/>
      <path id="Path_2733" data-name="Path 2733" d="M2781.473,1725.1c1.266,5.5,4.428,13.332,12.312,17,4.754,2.213,6.778-1.14,4.375-2.741-5.052-3.376,3.554-33.839-7.8-39.64C2782.034,1695.472,2778.452,1711.979,2781.473,1725.1Z" transform="translate(-2778.48 -1699.043)" fill="#fc983d"/>
      <path id="Path_2734" data-name="Path 2734" d="M3009.4,2265.911c2.493-1.455,8.075,14.439,10.8,26.461-1.478,2.117-5.9,3.275-6.746,2.123C3013.8,2282.758,3008.073,2266.687,3009.4,2265.911Z" transform="translate(-2986.51 -2214.39)" fill="#fc983d"/>
      <path id="Path_2735" data-name="Path 2735" d="M3044.243,2603.711c3.109.052,5.056,4.428,4.363,5.909a3.687,3.687,0,0,1-4.068.762c-.85-.564-.429-3.609-.429-3.609s-1.414,3.263-2.119,3.345a3.313,3.313,0,0,1-1.873-2.515C3039.981,2606.574,3040.518,2603.649,3044.243,2603.711Z" transform="translate(-3014.602 -2521.622)" fill="#994d2b"/>
    </g>
    <g id="Group_638" data-name="Group 638" transform="translate(2580 4581.69)">
      <g id="Group_628" data-name="Group 628" transform="translate(0 19.218)">
        <path id="Path_2754" data-name="Path 2754" d="M1663.963,303.11c-1.588-9.784-10.065-15.441-10.885-19.8-.688-3.659,6.625-9.289.546-11.594-2.837-1.077-8.684,7.835-6.706,12.112-6.645-1.459-8.882-10.047-8.242-14.851s-3.823-5.719-5.705-3.556c-2.846,3.268-1.674,11.439,1.493,15.833-14.087-4.452-10.456-14.484-8.81-20.664,1.643-6.2-6.675-7.118-8.325-2.329-7.161,19.368,4.224,28.105,21.548,30.677s16.888,8.923,18.953,16.394C1658.354,307.238,1664.439,306.042,1663.963,303.11Z" transform="translate(-1615.154 -255.218)" fill="#7a3c0e"/>
        <path id="Path_2755" data-name="Path 2755" d="M2002.522,456.337c1.655,1.36-3.758,7.411-5.374,6.482S1998.509,453.026,2002.522,456.337Z" transform="translate(-1962.08 -437.418)" fill="#af5d25"/>
        <path id="Path_2756" data-name="Path 2756" d="M1647.7,270.23c-4.2-2.281-6.015,7.124-5.786,12.377s5.264,10.187,6.886,8.5-3.95-4.122-2.719-9.443S1651.692,272.394,1647.7,270.23Z" transform="translate(-1639.472 -268.549)" fill="#af5d25"/>
        <path id="Path_2757" data-name="Path 2757" d="M1800.9,377.566c-2.518-.566-4.663,7.169-.625,8.243S1804.292,378.327,1800.9,377.566Z" transform="translate(-1781.436 -366.438)" fill="#af5d25"/>
      </g>
      <g id="Group_629" data-name="Group 629" transform="translate(80.28 46.941)">
        <path id="Path_2758" data-name="Path 2758" d="M2505.092,593.04c27.028-4.351,20.991-31.986,19.637-32.257s-3.447,1.163-6.1,1.511c-10.854,2.065-20.247,9.69-18.537,22.418C2500.526,587.935,2502.156,593.516,2505.092,593.04Z" transform="translate(-2499.891 -560.747)" fill="#fc983d"/>
        <path id="Path_2759" data-name="Path 2759" d="M2605.754,638.387c-.983-11.095,5.617-17.207,13.4-20.8C2620,627.009,2617.724,640.721,2605.754,638.387Z" transform="translate(-2596.06 -612.426)" fill="#f96464"/>
        <path id="Path_2760" data-name="Path 2760" d="M2565.382,589.894c-9.738.01-18.941,9.914-12.273,20.561C2555.035,600.4,2565.382,589.894,2565.382,589.894Z" transform="translate(-2546.215 -587.249)" fill="#ffbc69"/>
        <path id="Path_2761" data-name="Path 2761" d="M2661.892,637.644c.481,1.994.036,16.051-8.231,15.729C2651.74,648.572,2654.364,639.479,2661.892,637.644Z" transform="translate(-2639.157 -630.666)" fill="#ff8585"/>
      </g>
      <g id="Group_630" data-name="Group 630" transform="translate(51.604 0)">
        <path id="Path_2762" data-name="Path 2762" d="M2201.126,109.1c3.175-6.876-5.863-14.538,5.435-29.425,11.3-14.869,13.486-29.126-6.406-35.968-4.83-1.783-10.49,5.162-4.622,7.841s17.69,5.52,6.666,22.2c-.862-5.212-4.916-12.189-10.6-11.4-3.042.417-5.773,4.057-1.7,6.617s10.7,7.606,6.725,13.6c-1.677-4.227-10.6-5.4-12.188-2.646-2.681,4.619,4.9,4.176,7.1,7.027,2.619,3.4,4.571,9.519,3.225,19.1" transform="translate(-2183.863 -43.421)" fill="#7a3c0e"/>
        <path id="Path_2763" data-name="Path 2763" d="M2284.794,66.2c-2.575,2.891,1.969,4.885,7.019,6.977s7.084,5.2,7.9,7.015,3.456,2.087,2-3.5S2288.115,62.466,2284.794,66.2Z" transform="translate(-2274.959 -63.306)" fill="#af5d25"/>
        <path id="Path_2764" data-name="Path 2764" d="M2231.364,260.7c-1.735,1.888,6.057,7.778,7.831,6.394S2235.57,256.107,2231.364,260.7Z" transform="translate(-2226.826 -239.862)" fill="#af5d25"/>
      </g>
      <path id="Path_2765" data-name="Path 2765" d="M2028.7,672.343c21.046-7.436,32.139,8.058,36.969,17.591s5.1,14.45,6.737,17.167c4.168,6.9-.168,14.522-8.365,20.151-3.478,2.388-3.55,4.286-7.64,5.757-4.721,1.7-9.451.81-11.908,1.159-13.363,1.891-24.419,1.771-30.929-8.564-2.4-3.8-3.027-12.309-2.949-21.247C2010.716,692.1,2013.57,677.687,2028.7,672.343Z" transform="translate(-1974.721 -613.498)" fill="#ef7320"/>
      <path id="Path_2766" data-name="Path 2766" d="M2056.665,687.506c-24.215,9.517-17.221,50.609,5.38,48.077,8.475-.949,15.123-5.011,20.486-7.148,8.938-3.561,14.354-5.657,12.578-16C2092.206,695.506,2075.571,680.075,2056.665,687.506Z" transform="translate(-2002.811 -627.321)" fill="#fc983d"/>
      <path id="Path_2767" data-name="Path 2767" d="M2206.678,726.153c-20.033,6.169-7.088,41.659,13.085,33.828C2237.081,753.258,2223.474,720.981,2206.678,726.153Z" transform="translate(-2143.894 -663.695)" fill="#ffae55"/>
      <g id="Group_631" data-name="Group 631" transform="translate(1.631 67.269)">
        <path id="Path_2768" data-name="Path 2768" d="M1671.32,808.858c-28.89,11.657-39.263-18.814-38.1-19.874s4.043-.891,6.831-2.113c11.787-4.373,25.422-2.469,31.243,10.934C1672.765,801.2,1674.459,807.592,1671.32,808.858Z" transform="translate(-1633.131 -784.768)" fill="#fc983d"/>
        <path id="Path_2769" data-name="Path 2769" d="M1721.285,875.782c-5.508-11.415-16.657-12.891-27.647-11.134C1698.3,874.358,1709.079,886.115,1721.285,875.782Z" transform="translate(-1688.148 -856.838)" fill="#f96464"/>
        <path id="Path_2770" data-name="Path 2770" d="M1711.873,792.185c9.494-5.717,25.587-3.411,24.09,7.661C1725.619,792.039,1711.873,792.185,1711.873,792.185Z" transform="translate(-1704.728 -788.764)" fill="#ffbc69"/>
        <path id="Path_2771" data-name="Path 2771" d="M1710.121,879.219c.643,2.258,9.545,15.584,18.745,9.7C1728.179,882.969,1719.771,875.926,1710.121,879.219Z" transform="translate(-1703.135 -869.884)" fill="#ff8585"/>
      </g>
      <g id="Group_633" data-name="Group 633" transform="translate(36.81 79.189)">
        <path id="Path_2772" data-name="Path 2772" d="M2065.522,946.166c.513-5.863-5.12-24.522-14.879-26.629s-14.468,14.427-9.9,22.887S2060.2,951.637,2065.522,946.166Z" transform="translate(-2037.34 -919.063)" fill="#ffe7ae"/>
        <path id="Path_2773" data-name="Path 2773" d="M2067.516,917.538c-5.8-1.048-12.3,3.935-13.144,6.941C2056.494,916.4,2060.921,914.436,2067.516,917.538Z" transform="translate(-2051.329 -916.142)" fill="#592400"/>
        <g id="Group_632" data-name="Group 632" transform="translate(0 11.883)">
          <path id="Path_2774" data-name="Path 2774" d="M2112.372,1076.234c1.376-2.359-2.551-14.347-9.109-14.43-11.631-.154-10.946,7.531-7.93,12.065C2098.81,1079.093,2111.312,1078.056,2112.372,1076.234Z" transform="translate(-2086.859 -1060.467)" fill="#ffb8b8"/>
          <path id="Path_2775" data-name="Path 2775" d="M2130.806,1100.419c1.215-2.084-2.5-10.881-8.028-11.5-8.039-.9-10.144,6.584-6.771,10.21C2119.813,1103.21,2129.869,1102.029,2130.806,1100.419Z" transform="translate(-2105.967 -1085.053)" fill="#fff"/>
          <path id="Path_2776" data-name="Path 2776" d="M2135.009,1065.265c2.379,8.078,9.731,9.952,14.206,6.668.889-1.68-1.83-10.836-10.693-11.317C2135.848,1060.471,2134.015,1061.889,2135.009,1065.265Z" transform="translate(-2124.399 -1059.381)" fill="#08a9bf"/>
          <path id="Path_2777" data-name="Path 2777" d="M2163.666,1062.652c-4.341,4.189,6.843,13.527,10.291,8.451C2174.966,1068.2,2167.613,1059.919,2163.666,1062.652Z" transform="translate(-2149.808 -1060.745)" fill="#004254"/>
          <path id="Path_2778" data-name="Path 2778" d="M2080.252,1113.028c.464,2.45,1.77,11.951,12.281,11.277-10.532,1.278-13.3-5.773-14.082-11.049" transform="translate(-2073.222 -1107.046)" fill="#87400f"/>
          <path id="Path_2779" data-name="Path 2779" d="M2044.958,1055.571c-4.142-6.912-10.628-9.081-17.208-2.1-4.976.851-6.92-3.756-6.92-3.756a4.612,4.612,0,0,0,5.626,1.172C2031.188,1045.515,2040.771,1044.849,2044.958,1055.571Z" transform="translate(-2020.83 -1047.098)" fill="#592400"/>
          <path id="Path_2780" data-name="Path 2780" d="M2205.047,1075.971a1.019,1.019,0,1,1,2.008-.075C2207.128,1077.679,2205.19,1077.024,2205.047,1075.971Z" transform="translate(-2188.321 -1072.231)" fill="#fff"/>
          <path id="Path_2781" data-name="Path 2781" d="M2200.423,1170.142c1.583.671,3.316-4.189,1.806-4.758S2198.841,1169.468,2200.423,1170.142Z" transform="translate(-2183.581 -1154.608)" fill="#fff"/>
        </g>
      </g>
      <g id="Group_634" data-name="Group 634" transform="translate(51.952 46.692)">
        <path id="Path_2782" data-name="Path 2782" d="M2191.732,577.981c-5.488-9.814,5.809-14.976,10.616-15.644-2.3.66-3.637,4.571-3.637,4.571,4.485-3.4,11.113-4.682,14.93-1.96-7.361.5-8.543,3.635-8.543,3.635,7.384-.949,10.6,2.039,10.749,5.887-3.167-3.587-14.4-1-16.076,2.4" transform="translate(-2190.03 -561.944)" fill="#ef7320"/>
        <path id="Path_2783" data-name="Path 2783" d="M2190.318,574.819c-5.141-3.817-2.2-14.518,4.388-16.817-3.661,2.646-1.554,10.516-1.554,10.516,2.1-5.519,7.058-4.835,14.3-2.579-7.481.172-9.935,4.4-10.15,7.209" transform="translate(-2187.699 -558.002)" fill="#fc983d"/>
      </g>
      <g id="Group_635" data-name="Group 635" transform="translate(65.678 98.007)">
        <path id="Path_2784" data-name="Path 2784" d="M2339.79,1159.87c-1.931-3.684-1.632-10.4,14.657-13.589,7.76.909,1.864,6.906,4.15,11.906,3.283,6.515-4.878,9.778-9.207,6.65C2347.133,1163.2,2342.232,1164.524,2339.79,1159.87Z" transform="translate(-2338.974 -1144.215)" fill="#fcd797"/>
        <path id="Path_2785" data-name="Path 2785" d="M2408.717,1258.167c-2.635.961-6.739,2.792-12.142.7,4.22,1.5,7.407,8.447,12.042,5.736C2410.936,1263.253,2408.717,1258.167,2408.717,1258.167Z" transform="translate(-2391.348 -1245.95)" fill="#f45656"/>
        <path id="Path_2786" data-name="Path 2786" d="M2383.175,1249.776c-1.39-.314-2.261,1.026-2.961-.056a.834.834,0,0,1,.483-1.229c.677-.2,1.43.22,2.278.477a15.243,15.243,0,0,0,12.68-1.877C2394.626,1248.8,2389.131,1251.121,2383.175,1249.776Z" transform="translate(-2376.368 -1235.879)" fill="#c63434"/>
        <path id="Path_2787" data-name="Path 2787" d="M2476.819,1282.619c-1.467-1.78-3.62-1.772-3.424-.545s2.448,2.859,4.365,2.108c1.657-.649,1.662-3.658.369-4.166S2476.265,1281.634,2476.819,1282.619Z" transform="translate(-2461.187 -1265.746)" fill="#ff8d8d"/>
        <path id="Path_2788" data-name="Path 2788" d="M2411.745,1139.713c5.414.815,8.862,2.172,8.269,6.482-.613,4.458-12.353,8.156-15.182,3.743C2401.489,1144.72,2411.745,1139.713,2411.745,1139.713Z" transform="translate(-2398.247 -1138.244)" fill="#fcd797"/>
        <path id="Path_2789" data-name="Path 2789" d="M2379.724,1153.508c-.72,3.553,9.094,5.829,14.694,1.477,5.276-4.1-1.028-8.744-4.609-7.324C2386.355,1149.03,2380.446,1149.959,2379.724,1153.508Z" transform="translate(-2375.992 -1145.233)" fill="#ffefbd"/>
        <path id="Path_2790" data-name="Path 2790" d="M2429.042,1124.393c-8.2,4.308-.7,8.6,5.039,5.855C2438.091,1128.337,2435.417,1121.042,2429.042,1124.393Z" transform="translate(-2417.577 -1123.525)" fill="#7a2110"/>
        <path id="Path_2791" data-name="Path 2791" d="M2481.354,1134.223c1.708-.7,2.435,1.036.7,1.737S2477.651,1135.729,2481.354,1134.223Z" transform="translate(-2466.74 -1133.106)" fill="#ea6f44"/>
      </g>
      <g id="Group_637" data-name="Group 637" transform="translate(80.936 71.793)">
        <path id="Path_2792" data-name="Path 2792" d="M2511.89,867.516c-1.63-4.081-7.169-20.925-3.575-26.451s11.1,4.885,12.13,13.247C2524.285,862.732,2516.16,868.443,2511.89,867.516Z" transform="translate(-2507.125 -839.074)" fill="#ffe7ae"/>
        <path id="Path_2793" data-name="Path 2793" d="M2509.729,838.489c2.208-3.127,6.924-1.875,8.395.11C2514.239,833.2,2511.548,833.456,2509.729,838.489Z" transform="translate(-2509.493 -834.633)" fill="#592400"/>
        <g id="Group_636" data-name="Group 636" transform="translate(2.998 5.96)">
          <path id="Path_2794" data-name="Path 2794" d="M2543.443,962.812c-1.77-1.291-4.7-12.492-1.1-15.348,6.388-5.074,9.286,1.326,9.545,6.213C2552.189,959.309,2544.809,963.807,2543.443,962.812Z" transform="translate(-2540.59 -941.495)" fill="#ffb8b8"/>
          <path id="Path_2795" data-name="Path 2795" d="M2554.292,987.252c-1.563-1.138-3.251-9.713-.451-12.56,4.074-4.14,8.437.917,8.111,5.235C2561.583,984.792,2555.5,988.135,2554.292,987.252Z" transform="translate(-2551.235 -966.544)" fill="#fff"/>
          <path id="Path_2796" data-name="Path 2796" d="M2549.394,948.955c1.813,7.191-1.7,12.072-5.579,11.367-1.21-.956-3.605-9.393,1.106-13.548C2546.344,945.522,2548.524,945.51,2549.394,948.955Z" transform="translate(-2541.944 -941.859)" fill="#08a9bf"/>
          <path id="Path_2797" data-name="Path 2797" d="M2546.547,958.94c4.674,1.651,2.358,13.907-2.1,11.1C2542.646,968.163,2543.193,958.448,2546.547,958.94Z" transform="translate(-2543.138 -953.604)" fill="#004254"/>
          <path id="Path_2798" data-name="Path 2798" d="M2618.567,956.944c.789,2.146,4.115,10.252-2,14.193,6.39-3.469,4.919-10.253,3.1-14.776" transform="translate(-2609.63 -951.275)" fill="#87400f"/>
          <path id="Path_2799" data-name="Path 2799" d="M2540.676,915.241c-.648-7.256,2.025-11.741,8.653-9,3.124-1.441,2.237-5.933,2.237-5.933-.3,3.436-2.621,3.327-2.621,3.327C2544.028,901.384,2538.427,904.935,2540.676,915.241Z" transform="translate(-2540.164 -900.312)" fill="#592400"/>
          <path id="Path_2800" data-name="Path 2800" d="M2555.31,982.162c-.487-1.171-1.865-.654-1.146.8S2555.68,983.062,2555.31,982.162Z" transform="translate(-2552.709 -974.149)" fill="#fff"/>
          <path id="Path_2801" data-name="Path 2801" d="M2599.519,1045.928c-.591,1.209-3.625-1.915-3.031-3.011S2600.11,1044.72,2599.519,1045.928Z" transform="translate(-2591.308 -1029.757)" fill="#fff"/>
        </g>
      </g>
    </g>
  </g>
</svg>
