<svg xmlns="http://www.w3.org/2000/svg" width="1445.002" height="2932" viewBox="0 0 1445.002 2932">
  <g id="bg3" transform="translate(-21169.002 -15738.5)">
    <path id="Subtraction_25" data-name="Subtraction 25" d="M210.862,1569H.286l0-.009A33.634,33.634,0,0,1,0,1563.776a85.534,85.534,0,0,1,1.7-15.492A151.935,151.935,0,0,1,9.229,1522.8a247.715,247.715,0,0,1,17.177-35.212c18.023-30.953,44.482-64.1,78.644-98.511,20.281-20.431,43.541-41.544,69.134-62.755,28.147-23.328,59.813-47.348,94.118-71.394,13.8-9.67,28.325-19.167,43.18-28.226,14.176-8.646,29.115-17.178,44.4-25.362,28.225-15.11,58.217-29.417,91.69-43.737,27.876-11.928,58.7-24.065,94.234-37.105,31.566-11.585,63.779-22.771,94.931-33.589l.071-.025.215-.074.023-.007.019-.007c47.864-16.619,97.358-33.8,144.757-52.543,25.513-10.086,48.445-19.82,70.107-29.758,24.306-11.151,46.429-22.283,67.63-34.03,11.2-6.2,22.188-12.622,32.664-19.074,10.885-6.7,21.576-13.665,31.779-20.691,10.543-7.26,20.907-14.827,30.8-22.49,10.191-7.891,20.2-16.125,29.739-24.473,9.81-8.582,19.429-17.545,28.587-26.638,9.391-9.324,18.592-19.077,27.346-28.986,8.955-10.138,17.708-20.742,26.016-31.519,8.484-11,16.76-22.521,24.6-34.232,6.468-9.665,12.641-19.688,18.349-29.79,5.593-9.9,10.9-20.15,15.767-30.473a485.8,485.8,0,0,0,24.316-62.57,529.943,529.943,0,0,0,15.563-64.022,595.866,595.866,0,0,0,7.86-64.619c5.141-76.243-3.143-159.465-24.62-247.355-8.439-34.531-18.959-69.87-31.268-105.037C1167.212,130.36,1156.2,102.269,1144.34,75c-10.555-24.259-19.847-43.359-25.783-55.11C1112.092,7.094,1108.132.062,1108.1,0l210.577,0,.019.034c.7,1.242,4.467,8.035,10.439,19.857,5.937,11.752,15.229,30.852,25.783,55.11,11.866,27.27,22.874,55.362,32.72,83.493,12.308,35.168,22.828,70.507,31.267,105.037,21.477,87.89,29.761,171.112,24.62,247.355a595.853,595.853,0,0,1-7.861,64.619,529.821,529.821,0,0,1-15.563,64.022,485.82,485.82,0,0,1-24.316,62.57c-4.867,10.318-10.172,20.571-15.766,30.473-5.714,10.111-11.888,20.134-18.349,29.79-7.835,11.708-16.11,23.225-24.6,34.232-8.305,10.774-17.058,21.378-26.016,31.519-8.751,9.907-17.951,19.659-27.346,28.987-9.162,9.1-18.781,18.06-28.587,26.638-9.541,8.347-19.547,16.581-29.74,24.473-9.892,7.66-20.256,15.226-30.8,22.49-10.2,7.027-20.9,13.989-31.778,20.691-10.481,6.455-21.471,12.872-32.664,19.074-21.2,11.748-43.324,22.879-67.63,34.03-21.658,9.937-44.59,19.671-70.107,29.758-47.41,18.743-96.908,35.929-144.777,52.55l-.022.007-.184.064c-31.182,10.827-63.425,22.023-95.034,33.624-35.534,13.04-66.359,25.178-94.235,37.105-33.472,14.32-63.464,28.627-91.69,43.737-15.289,8.185-30.228,16.718-44.4,25.362-14.857,9.06-29.385,18.556-43.18,28.226-34.3,24.044-65.97,48.064-94.118,71.394-25.59,21.208-48.849,42.322-69.134,62.755-34.162,34.413-60.621,67.557-78.644,98.51a247.79,247.79,0,0,0-17.177,35.212,152.005,152.005,0,0,0-7.524,25.487,85.624,85.624,0,0,0-1.7,15.492,33.793,33.793,0,0,0,.281,5.215l0,.008Z" transform="translate(21169.002 15738.5)" fill="#51a1ee" opacity="0.31"/>
    <path id="Subtraction_29" data-name="Subtraction 29" d="M-16044.324,5870h-.734l-97.35-278.744c12.2-58.015,16.356-113.55,12.358-165.063a452.762,452.762,0,0,0-7.863-56.139,411.182,411.182,0,0,0-15.562-55.615,390.4,390.4,0,0,0-24.315-54.356c-4.889-9-10.194-17.9-15.769-26.472-5.724-8.8-11.9-17.506-18.349-25.879-7.843-10.179-16.118-20.184-24.595-29.736-8.3-9.347-17.05-18.559-26.016-27.378-8.753-8.61-17.954-17.083-27.349-25.183-9.161-7.9-18.778-15.689-28.585-23.143-9.543-7.25-19.549-14.4-29.74-21.256-9.881-6.647-20.245-13.221-30.8-19.539-10.136-6.066-20.827-12.114-31.778-17.975-10.471-5.6-21.459-11.174-32.662-16.567-21.2-10.2-43.316-19.872-67.631-29.562-21.6-8.614-44.537-17.07-70.107-25.853-47.422-16.287-96.893-31.208-144.734-45.638l-.023-.007-.02,0-.023-.009-.217-.061-.072-.021-.443-.134c-30.992-9.351-63.037-19.021-94.486-29.044-35.518-11.325-66.344-21.87-94.234-32.237-33.479-12.443-63.473-24.871-91.689-37.993-15.213-7.074-30.15-14.486-44.4-22.032-14.877-7.882-29.4-16.132-43.176-24.52-34.307-20.891-65.973-41.757-94.119-62.021-25.6-18.432-48.861-36.772-69.135-54.512-34.152-29.888-60.611-58.681-78.643-85.578a204.481,204.481,0,0,1-17.176-30.59,118.86,118.86,0,0,1-7.525-22.141,64.336,64.336,0,0,1-1.7-13.456,25.659,25.659,0,0,1,.279-4.531l0-.009h210.572v.009a26,26,0,0,0-.277,4.532,64.641,64.641,0,0,0,1.7,13.456,119.151,119.151,0,0,0,7.523,22.141,205.147,205.147,0,0,0,17.176,30.59c18.029,26.9,44.49,55.687,78.646,85.573,20.287,17.756,43.547,36.1,69.133,54.517,28.186,20.292,59.854,41.159,94.119,62.021,13.771,8.388,28.3,16.637,43.178,24.52,14.174,7.507,29.113,14.92,44.4,22.032,28.264,13.145,58.256,25.572,91.689,37.993,27.867,10.36,58.691,20.9,94.234,32.237,31.391,10,63.416,19.668,94.387,29.014l.082.025.564.17.184.052.025.009.055.017c47.781,14.41,97.188,29.311,144.721,45.633,25.488,8.753,48.422,17.21,70.107,25.853,24.309,9.688,46.429,19.358,67.629,29.562,11.183,5.38,22.173,10.955,32.665,16.567,10.881,5.822,21.573,11.869,31.779,17.975,10.519,6.294,20.883,12.868,30.8,19.54,10.226,6.878,20.23,14.03,29.739,21.256,9.847,7.487,19.464,15.274,28.585,23.144,9.354,8.064,18.554,16.536,27.348,25.182,8.933,8.782,17.687,17.994,26.017,27.378,8.478,9.554,16.753,19.559,24.595,29.736,6.468,8.4,12.641,17.1,18.35,25.879,5.6,8.607,10.9,17.514,15.769,26.472a390.5,390.5,0,0,1,24.314,54.356,410.578,410.578,0,0,1,15.561,55.615,452.748,452.748,0,0,1,7.864,56.138c5.138,66.237-3.146,138.533-24.623,214.879a891.149,891.149,0,0,1-31.268,91.243c-9.847,24.448-20.855,48.851-32.72,72.531-10.552,21.067-19.844,37.663-25.782,47.876-5.734,9.861-9.439,15.7-10.438,17.251l-.02.025Z" transform="translate(38532 12800.5)" fill="#9f0b91" opacity="0.14"/>
  </g>
</svg>
