<svg xmlns="http://www.w3.org/2000/svg" width="54.038" height="54.076" viewBox="0 0 54.038 54.076"><g id="XMLID_321_" transform="translate(-1158.5 -526.6)"><path id="XMLID_183_" fill="#002932" fill-rule="evenodd" d="M1209,642.5Zm.037,0Zm.038.038Zm0,0Zm.037.038Zm.038,0Zm.037.037Zm0,.038Zm.037,0,.038.037-.038-.037Zm.038.037.037.038a.037.037,0,0,0-.037-.038Zm.075.038.037.038-.037-.038Zm.075.038.037.038c-.037,0-.037,0-.037-.038Zm.037.038.037.037-.037-.037Zm.075.038.037.037a.037.037,0,0,1-.037-.037Zm.037.075Zm.037,0Zm.038.038Zm.038,0Zm0,.038Zm.037,0Zm.037.038Zm.038.037Zm.037,0Zm0,.038Zm.075.038Z" transform="translate(-31.549 -72.407)"/><path id="XMLID_208_" fill="#fff" fill-rule="evenodd" d="M1192.877,541.888a1.385,1.385,0,0,0-1.389-1.388,1.388,1.388,0,0,0,0,2.777,1.34,1.34,0,0,0,1.389-1.388Z" transform="translate(-19.742 -8.684)"/><path id="XMLID_220_" fill="#fff" fill-rule="evenodd" d="M1198.326,636.613a.713.713,0,1,0-1.426,0,.738.738,0,0,0,.713.713.67.67,0,0,0,.713-.713Z" transform="translate(-23.99 -68.283)"/><path id="XMLID_222_" fill="#fff" fill-rule="evenodd" d="M1204,633.25a.45.45,0,1,0-.45.45.456.456,0,0,0,.45-.45Z" transform="translate(-27.863 -66.347)"/><path id="XMLID_345_" fill="#f05c47" fill-rule="evenodd" d="M1192.912,527.613a27.033,27.033,0,0,0-27.019,44.582,49.453,49.453,0,0,0,17.525-5.742C1196.665,558.8,1200,540.447,1192.912,527.613Z"/><path id="XMLID_346_" fill="#ee3832" fill-rule="evenodd" d="M1205.157,529.3c7.093,12.834,3.753,31.222-9.532,38.84a49.454,49.454,0,0,1-17.525,5.742,27.039,27.039,0,1,0,27.057-44.582Z" transform="translate(-12.245 -1.687)"/><ellipse id="XMLID_294_" cx="2.552" cy="3.978" fill="#ee3832" rx="2.552" ry="3.978" transform="translate(1169.17 544.32) rotate(-146.722)"/><ellipse id="XMLID_347_" cx="1.651" cy="2.589" fill="#c32c27" rx="1.651" ry="2.589" transform="translate(1200.488 573.306) rotate(-146.722)"/><ellipse id="XMLID_349_" cx="1.651" cy="2.589" fill="#c32c27" rx="1.651" ry="2.589" transform="translate(1203.734 543.179) rotate(-30.943)"/><ellipse id="XMLID_348_" cx=".826" cy="1.313" fill="#c32c27" rx=".826" ry="1.313" transform="translate(1200.774 566.275) rotate(-146.722)"/><ellipse id="XMLID_342_" cx="1.276" cy="1.989" fill="#ee3832" rx="1.276" ry="1.989" transform="translate(1168.325 550.206) rotate(-146.722)"/><ellipse id="XMLID_344_" cx="1.276" cy="1.989" fill="#ee3832" rx="1.276" ry="1.989" transform="translate(1170.572 565.673) rotate(143.572)"/><ellipse id="XMLID_343_" cx=".713" cy="1.088" fill="#ee3832" rx=".713" ry="1.088" transform="translate(1180.716 544.845) rotate(-146.722)"/></g></svg>