<svg xmlns="http://www.w3.org/2000/svg" xmlns:xlink="http://www.w3.org/1999/xlink" width="1936" height="792" viewBox="0 0 1936 792">
  <defs>
    <clipPath id="clip-path">
      <rect id="Rectangle_247" data-name="Rectangle 247" width="1936" height="792" transform="translate(0 5685)" fill="#fff" stroke="#707070" stroke-width="1"/>
    </clipPath>
  </defs>
  <g id="bg61" transform="translate(0 -5685)" clip-path="url(#clip-path)">
    <g id="bg6">
      <g id="Group_2304" data-name="Group 2304">
        <path id="Path_1844" data-name="Path 1844" d="M71.825,560.065s-6.479-7.086-15.112-18.781a279.194,279.194,0,0,1-28-46.361c-8.6-18.387-15.053-38.913-15.077-59.162s6.381-40.259,23.532-57.64C54.36,360.7,76.482,350.05,101.524,342.829c25.128-7.246,53.215-11.046,82.22-14.766,29.119-3.735,59.17-7.391,88.066-14.37,29.008-7.006,56.844-17.36,81.374-34.492,24.612-17.19,35.1-32.42,38.517-46.646s-.235-27.435-3.844-40.608-7.166-26.307-3.56-40.46,14.393-29.361,39.543-46.692c25.235-17.39,58.773-32.574,95-45.6,36.4-13.085,75.532-24,111.631-32.749,36.27-8.793,69.445-15.4,93.6-19.81C748.3,2.212,763.4,0,763.4,0L747.225,542.2Z" transform="translate(1321.764 5940.431)" fill="#8aebff" opacity="0.67"/>
        <path id="Path_1843" data-name="Path 1843" d="M71.846,560.662s-6.479-7.095-15.113-18.8a279.616,279.616,0,0,1-28-46.416c-8.6-18.408-15.054-38.959-15.079-59.231s6.379-40.305,23.53-57.7c17.192-17.442,39.313-28.1,64.355-35.329,25.128-7.252,53.215-11.054,82.22-14.777,29.119-3.737,59.17-7.4,88.065-14.381,29.008-7.012,56.843-17.376,81.373-34.526,24.611-17.208,35.1-32.455,38.516-46.7s-.236-27.466-3.846-40.655S380.7,165.8,384.3,151.635s14.392-29.394,39.541-46.743c25.235-17.408,58.772-32.607,95-45.642,36.4-13.1,75.531-24.02,111.63-32.779,36.27-8.8,69.445-15.41,93.6-19.826C748.3,2.214,763.4,0,763.4,0L747.247,542.82Z" transform="translate(1361 5940.431)" fill="#76b3ee" opacity="0.67"/>
      </g>
      <g id="Group_2313" data-name="Group 2313">
        <path id="XMLID_99_" d="M952.5,264Zm.093.093Zm.093,0Zm.093.093Zm.093.093Zm.093,0Zm.093.093Zm.093.093Zm0,0c.093,0,.093.093.185.093-.093,0-.093,0-.185-.093Zm.185.185c.093,0,.093.093.185.093-.093-.093-.093-.093-.185-.093Zm.185.093c.093,0,.093.093.185.093-.093,0-.093-.093-.185-.093Zm.185.093c.093,0,.093.093.185.093-.093,0-.185,0-.185-.093Zm.185.185c.093,0,.093.093.185.093a.323.323,0,0,1-.185-.093Zm.185.093c.093,0,.093.093.185.093a.323.323,0,0,1-.185-.093Zm.185.093.093.093c-.093,0-.093,0-.093-.093Zm.093.093Zm.093.093Zm.093.093Zm0,0Zm.185.093Zm0,.093Zm.185,0Zm.093.093Zm0,.093Zm.278.093Z" transform="translate(-916.491 5637.734)" fill="none" stroke="#62cadf" stroke-width="1" fill-rule="evenodd" opacity="0.59"/>
        <path id="XMLID_124_" d="M937.719,142.86a4.26,4.26,0,1,0-8.519,0,4.191,4.191,0,0,0,4.26,4.26,4.372,4.372,0,0,0,4.26-4.26Z" transform="translate(-914.767 5647.014)" fill="none" stroke="#62cadf" stroke-width="1" fill-rule="evenodd" opacity="0.59"/>
        <path id="XMLID_128_" d="M1095.945,308.422a2.222,2.222,0,1,0-2.222,2.222,2.253,2.253,0,0,0,2.222-2.222Z" transform="translate(-926.778 5634.611)" fill="none" stroke="#62cadf" stroke-width="1" fill-rule="evenodd" opacity="0.59"/>
        <path id="XMLID_129_" d="M1071.945,387.622a2.222,2.222,0,1,0-2.222,2.222,2.253,2.253,0,0,0,2.222-2.222Z" transform="translate(-925.001 5628.75)" fill="none" stroke="#62cadf" stroke-width="1" fill-rule="evenodd" opacity="0.59"/>
        <path id="XMLID_132_" d="M927.045,341.622a2.222,2.222,0,1,0-2.222,2.222,2.253,2.253,0,0,0,2.222-2.222Z" transform="translate(-914.278 5632.154)" fill="none" stroke="#62cadf" stroke-width="1" fill-rule="evenodd" opacity="0.59"/>
        <path id="XMLID_133_" d="M1060.745,97.922a2.222,2.222,0,1,0-2.222,2.222,2.318,2.318,0,0,0,2.222-2.222Z" transform="translate(-924.173 5650.189)" fill="none" stroke="#62cadf" stroke-width="1" fill-rule="evenodd" opacity="0.59"/>
        <path id="XMLID_136_" d="M941.945,258.122a2.222,2.222,0,1,0-2.222,2.222,2.253,2.253,0,0,0,2.222-2.222Z" transform="translate(-915.381 5638.334)" fill="none" stroke="#62cadf" stroke-width="1" fill-rule="evenodd" opacity="0.59"/>
        <path id="XMLID_137_" d="M1085.145,292.722a2.222,2.222,0,1,0-2.222,2.222,2.253,2.253,0,0,0,2.222-2.222Z" transform="translate(-925.979 5635.773)" fill="none" stroke="#62cadf" stroke-width="1" fill-rule="evenodd" opacity="0.59"/>
        <path id="XMLID_138_" d="M947.978,253.389a1.389,1.389,0,1,0-1.389,1.389,1.364,1.364,0,0,0,1.389-1.389Z" transform="translate(-915.951 5638.621)" fill="none" stroke="#62cadf" stroke-width="1" fill-rule="evenodd" opacity="0.59"/>
        <path id="XMLID_154_" d="M1125.578,138.489a1.389,1.389,0,1,0-1.389,1.389,1.424,1.424,0,0,0,1.389-1.389Z" transform="translate(-929.094 5647.125)" fill="none" stroke="#62cadf" stroke-width="1" fill-rule="evenodd" opacity="0.59"/>
        <path id="XMLID_210_" d="M1110.345,755.522a2.222,2.222,0,1,0-2.222,2.222,2.253,2.253,0,0,0,2.222-2.222Z" transform="translate(-927.844 5601.523)" fill="none" stroke="#62cadf" stroke-width="1" fill-rule="evenodd" opacity="0.59"/>
        <path id="XMLID_214_" d="M1020.645,419.122a2.222,2.222,0,1,0-2.222,2.222,2.253,2.253,0,0,0,2.222-2.222Z" transform="translate(-921.205 5626.418)" fill="none" stroke="#62cadf" stroke-width="1" fill-rule="evenodd" opacity="0.59"/>
        <path id="XMLID_219_" d="M1116.378,750.789a1.389,1.389,0,1,0-1.389,1.389,1.364,1.364,0,0,0,1.389-1.389Z" transform="translate(-928.414 5601.811)" fill="none" stroke="#62cadf" stroke-width="1" fill-rule="evenodd" opacity="0.59"/>
        <path id="XMLID_223_" d="M1009.945,476.522a2.222,2.222,0,1,0-2.222,2.222,2.194,2.194,0,0,0,2.222-2.222Z" transform="translate(-920.413 5622.17)" fill="none" stroke="#62cadf" stroke-width="1" fill-rule="evenodd" opacity="0.59"/>
        <path id="XMLID_224_" d="M1015.978,471.789a1.389,1.389,0,1,0-1.389,1.389,1.364,1.364,0,0,0,1.389-1.389Z" transform="translate(-920.983 5622.459)" fill="none" stroke="#62cadf" stroke-width="1" fill-rule="evenodd" opacity="0.59"/>
        <path id="XMLID_259_" d="M995.345,765.822a2.222,2.222,0,1,0-2.222,2.222,2.253,2.253,0,0,0,2.222-2.222Z" transform="translate(-919.333 5600.76)" fill="none" stroke="#62cadf" stroke-width="1" fill-rule="evenodd" opacity="0.59"/>
        <path id="XMLID_264_" d="M960.145,555.222a2.222,2.222,0,1,0-2.222,2.222,2.194,2.194,0,0,0,2.222-2.222Z" transform="translate(-916.728 5616.346)" fill="none" stroke="#62cadf" stroke-width="1" fill-rule="evenodd" opacity="0.59"/>
        <path id="XMLID_268_" d="M984.545,750.122a2.222,2.222,0,1,0-2.222,2.222,2.253,2.253,0,0,0,2.222-2.222Z" transform="translate(-918.534 5601.922)" fill="none" stroke="#62cadf" stroke-width="1" fill-rule="evenodd" opacity="0.59"/>
        <path id="XMLID_272_" d="M951.945,492.922a2.222,2.222,0,1,0-2.222,2.222,2.253,2.253,0,0,0,2.222-2.222Z" transform="translate(-916.121 5620.957)" fill="none" stroke="#62cadf" stroke-width="1" fill-rule="evenodd" opacity="0.59"/>
        <path id="XMLID_273_" d="M957.878,488.289a1.389,1.389,0,1,0-1.389,1.389,1.364,1.364,0,0,0,1.389-1.389Z" transform="translate(-916.684 5621.238)" fill="none" stroke="#62cadf" stroke-width="1" fill-rule="evenodd" opacity="0.59"/>
        <path id="XMLID_297_" d="M930.743,517.491l-21.02-24.539L877.776,488.6s-64.449,29.169-75.376,87.969c0,0,17.686-20.65,25.187-25.835,0,0-32.5,60.56-15.742,122.694,61.023-19.631,94.081-79.913,94.081-79.913-.278,9.167-7.871,35.28-7.871,35.28,43.337-41.207,32.688-111.3,32.688-111.3Z" transform="translate(-905.383 5621.111)" fill="none" stroke="#62cadf" stroke-width="1" fill-rule="evenodd" opacity="0.59"/>
        <path id="XMLID_298_" d="M926.948,512.576,911.3,494.241,887.5,491s-48.059,21.761-56.3,65.653c0,0,13.242-15.371,18.8-19.261,0,0-24.261,45.188-11.76,91.581,45.559-14.723,70.283-59.634,70.283-59.634-.185,6.852-5.926,26.3-5.926,26.3,32.317-30.65,24.354-83.062,24.354-83.062Z" transform="translate(-907.514 5620.934)" fill="none" stroke="#62cadf" stroke-width="1" fill-rule="evenodd" opacity="0.59"/>
        <path id="XMLID_300_" d="M896.317,512.064v-.093c-12.223-33.336-.833-95.007,31.762-157.049,32.688-62.042,77.043-106.119,111.3-114.823h.093v.093c12.223,33.336.833,95.007-31.761,157.049S930.672,503.36,896.41,512.064Z" transform="translate(-911.979 5639.502)" fill="none" stroke="#62cadf" stroke-width="1" fill-rule="evenodd" opacity="0.59"/>
        <path id="XMLID_301_" d="M1039.759,240.1h.093v.093c12.223,33.336.833,95.007-31.761,157.049s-77.043,106.119-111.3,114.823l-.185-.093Z" transform="translate(-912.354 5639.502)" fill="none" stroke="#62cadf" stroke-width="1" fill-rule="evenodd" opacity="0.59"/>
        <path id="XMLID_302_" d="M1006.567,322.08a23.341,23.341,0,1,1-31.484,9.723,23.389,23.389,0,0,1,31.484-9.723Z" transform="translate(-917.962 5633.639)" fill="none" stroke="#62cadf" stroke-width="1" fill-rule="evenodd" opacity="0.59"/>
        <path id="XMLID_303_" d="M1004.662,326.93a18.333,18.333,0,0,1,7.593,24.724,18.248,18.248,0,1,1-7.593-24.724Z" transform="translate(-918.371 5633.234)" fill="none" stroke="#62cadf" stroke-width="1" opacity="0.59"/>
        <path id="XMLID_304_" d="M1005.048,326.02a19.261,19.261,0,1,1-25.928,8.056,19.067,19.067,0,0,1,25.928-8.056Z" transform="translate(-918.294 5633.311)" fill="none" stroke="#62cadf" stroke-width="1" fill-rule="evenodd" opacity="0.59"/>
        <path id="XMLID_312_" d="M987.533,557.546c4.445-29.261-3.148-55.1-19.724-78.246h0c-10.742,12.5-21.668,23.15-32.41,31.391h0c16.668,23.057,22.039,48.892,21.02,76.209l12.316,6.482Z" transform="translate(-915.226 5621.801)" fill="none" stroke="#62cadf" stroke-width="1" fill-rule="evenodd" opacity="0.59"/>
        <path id="XMLID_313_" d="M1001.857,542.38l7.778,4.167a1.963,1.963,0,0,1,.833,2.593l-37.781,71.672a1.963,1.963,0,0,1-2.593.833l-7.778-4.074a1.963,1.963,0,0,1-.833-2.593l37.688-71.672a1.881,1.881,0,0,1,2.685-.926Z" transform="translate(-917.141 5617.15)" fill="none" stroke="#62cadf" stroke-width="1" fill-rule="evenodd" opacity="0.59"/>
        <path id="XMLID_314_" d="M1010.748,543.284l13.427-25.557a.937.937,0,0,0-.37-1.3l-1.482-.741a.937.937,0,0,0-1.3.37L1007.6,541.617Z" transform="translate(-920.569 5619.117)" fill="none" stroke="#62cadf" stroke-width="1" fill-rule="evenodd" opacity="0.59"/>
        <path id="XMLID_315_" d="M1017.743,518.787l6.667,3.519a1.273,1.273,0,0,1,.556,1.759l-3.8,7.223a1.273,1.273,0,0,1-1.759.556l-6.667-3.519a1.273,1.273,0,0,1-.556-1.759l3.8-7.223a1.3,1.3,0,0,1,1.759-.556Z" transform="translate(-920.896 5618.891)" fill="none" stroke="#62cadf" stroke-width="1" fill-rule="evenodd" opacity="0.59"/>
        <path id="XMLID_316_" d="M1010.043,533.49l6.667,3.519a1.273,1.273,0,0,1,.556,1.759l-3.8,7.223a1.273,1.273,0,0,1-1.759.556l-6.667-3.519a1.273,1.273,0,0,1-.556-1.759l3.8-7.223a1.327,1.327,0,0,1,1.759-.556Z" transform="translate(-920.326 5617.799)" fill="none" stroke="#62cadf" stroke-width="1" fill-rule="evenodd" opacity="0.59"/>
        <path id="XMLID_317_" d="M963.709,622.39l5.926,3.148a1,1,0,0,1,.463,1.389l-4.63,8.8a1,1,0,0,1-1.389.463l-5.926-3.148a1,1,0,0,1-.463-1.389l4.63-8.8a1,1,0,0,1,1.389-.463Z" transform="translate(-916.866 5611.221)" fill="none" stroke="#62cadf" stroke-width="1" fill-rule="evenodd" opacity="0.59"/>
        <path id="XMLID_319_" d="M955.726,639.1c3.426,13.52-1.389,26.761-9.26,39.91.926-4.167,1.111-8.241-.648-12.13-10.464,21.853-24.261,41.67-37.318,61.856,9.26-22.224,17.872-44.818,29.91-65.838-4.167.648-7.408,3.148-10.279,6.3,6.3-13.89,14.538-25.28,27.595-30.095Z" transform="translate(-913.235 5609.975)" fill="none" stroke="#62cadf" stroke-width="1" fill-rule="evenodd" opacity="0.59"/>
        <path id="XMLID_324_" d="M1134.1,605.178l-4.352,12.779,10.742,8.056-13.427-.278-4.445,12.779-3.889-12.871-13.427-.185,11.019-7.778L1112.43,604.9l10.742,8.056Z" transform="translate(-927.799 5612.506)" fill="none" stroke="#62cadf" stroke-width="1" fill-rule="evenodd" opacity="0.59"/>
        <g id="XMLID_145_" transform="translate(140 6300.467)" opacity="0.59">
          <path id="XMLID_383_" d="M1173.075,826.565,1107.7,754.152l29.817-50.652.37.185,60.467,24.354-.093.37Zm-64.172-72.6,63.8,70.653,24.631-96.211-59.356-23.891Z" transform="translate(-1107.7 -703.5)" fill="none" stroke="#62cadf" stroke-width="1"/>
        </g>
        <path id="XMLID_156_" d="M801.2,219Zm.093,0Zm.093.093Zm.093.093Zm.093,0Zm.093.093Zm.093.093Zm.093,0Zm.093.093c.093,0,.093.093.185.093a.323.323,0,0,1-.185-.093Zm.093.093c.093,0,.093.093.185.093a.287.287,0,0,1-.185-.093Zm.185.185c.093,0,.093.093.185.093-.093-.093-.093-.093-.185-.093Zm.185.093c.093,0,.093.093.185.093-.093,0-.093-.093-.185-.093Zm.185.093c.093,0,.093.093.185.093-.093,0-.093,0-.185-.093Zm.185.185c.093,0,.093.093.185.093-.093-.093-.093-.093-.185-.093Zm.185.093.093.093-.093-.093Zm.093.093Zm.093,0Zm.093.093Zm.093.093Zm.093.093Zm.093,0Zm.093.093Zm.093.093Zm.093,0Zm.185.185Z" transform="translate(-795.294 5636.064)" fill="none" stroke="#62cadf" stroke-width="1" fill-rule="evenodd" opacity="0.59"/>
        <path id="XMLID_125_" d="M902.019,444.46a4.308,4.308,0,0,0-4.26-4.26,4.248,4.248,0,0,0-4.26,4.26,4.191,4.191,0,0,0,4.26,4.26,4.248,4.248,0,0,0,4.26-4.26Z" transform="translate(-802.125 5619.693)" fill="none" stroke="#62cadf" stroke-width="1" fill-rule="evenodd" opacity="0.59"/>
        <path id="XMLID_126_" d="M830.345,369.622a2.222,2.222,0,1,0-2.222,2.222,2.318,2.318,0,0,0,2.222-2.222Z" transform="translate(-797.122 5625.082)" fill="none" stroke="#62cadf" stroke-width="1" fill-rule="evenodd" opacity="0.59"/>
        <path id="XMLID_127_" d="M864.545,317.922a2.222,2.222,0,1,0-2.222,2.222,2.253,2.253,0,0,0,2.222-2.222Z" transform="translate(-799.653 5628.908)" fill="none" stroke="#62cadf" stroke-width="1" fill-rule="evenodd" opacity="0.59"/>
        <path id="XMLID_135_" d="M836.378,364.889a1.389,1.389,0,1,0-1.389,1.389,1.424,1.424,0,0,0,1.389-1.389Z" transform="translate(-797.691 5625.371)" fill="none" stroke="#62cadf" stroke-width="1" fill-rule="evenodd" opacity="0.59"/>
        <path id="XMLID_230_" d="M851.9,721.4Zm.093.093Zm.093,0Zm.093.093Zm.093.093Zm.093,0Zm.093.093Zm.093.093Zm.093,0c.093,0,.093.093.185.093-.093,0-.185,0-.185-.093Zm.093.185c.093,0,.093.093.185.093,0-.093-.093-.093-.185-.093Zm.185.093c.093,0,.093.093.185.093-.093,0-.093-.093-.185-.093Zm.185.093c.093,0,.093.093.185.093-.093,0-.093,0-.185-.093Zm.185.185c.093,0,.093.093.185.093-.093-.093-.093-.093-.185-.093Zm.185.093c.093,0,.093.093.185.093-.093,0-.093-.093-.185-.093Zm.185.093.093.093-.093-.093Zm.093.093Zm.093.093Zm.093,0Zm.093.093Zm.093.093Zm.093,0Zm.093.093Zm.093.093Zm.093,0Zm.185.185Z" transform="translate(-799.046 5598.883)" fill="none" stroke="#62cadf" stroke-width="1" fill-rule="evenodd" opacity="0.59"/>
        <path id="XMLID_255_" d="M837.119,600.16a4.26,4.26,0,1,0-4.26,4.26,4.191,4.191,0,0,0,4.26-4.26Z" transform="translate(-797.322 5608.172)" fill="none" stroke="#62cadf" stroke-width="1" fill-rule="evenodd" opacity="0.59"/>
        <path id="XMLID_262_" d="M816.245,517.922a2.222,2.222,0,1,0-2.222,2.222,2.194,2.194,0,0,0,2.222-2.222Z" transform="translate(-796.078 5614.105)" fill="none" stroke="#62cadf" stroke-width="1" fill-rule="evenodd" opacity="0.59"/>
        <path id="XMLID_267_" d="M841.345,715.522a2.222,2.222,0,1,0-2.222,2.222,2.194,2.194,0,0,0,2.222-2.222Z" transform="translate(-797.936 5599.482)" fill="none" stroke="#62cadf" stroke-width="1" fill-rule="evenodd" opacity="0.59"/>
        <path id="XMLID_269_" d="M847.378,710.789a1.389,1.389,0,1,0-1.389,1.389,1.364,1.364,0,0,0,1.389-1.389Z" transform="translate(-798.506 5599.771)" fill="none" stroke="#62cadf" stroke-width="1" fill-rule="evenodd" opacity="0.59"/>
        <path id="XMLID_306_" d="M816.665,444.084l7.778,4.167a1.963,1.963,0,0,1,.833,2.593l-37.688,71.672a1.963,1.963,0,0,1-2.593.833l-7.778-4.167a1.963,1.963,0,0,1-.833-2.593l37.6-71.672a2.1,2.1,0,0,1,2.685-.833Z" transform="translate(-793.442 5619.422)" fill="none" stroke="#62cadf" stroke-width="1" fill-rule="evenodd" opacity="0.59"/>
        <path id="XMLID_307_" d="M825.548,445.084l13.427-25.557a.937.937,0,0,0-.37-1.3l-1.482-.741a.937.937,0,0,0-1.3.37L822.4,443.417Z" transform="translate(-796.863 5621.385)" fill="none" stroke="#62cadf" stroke-width="1" fill-rule="evenodd" opacity="0.59"/>
        <path id="XMLID_308_" d="M832.643,420.587l6.667,3.519a1.273,1.273,0,0,1,.556,1.759l-3.8,7.223a1.273,1.273,0,0,1-1.759.556l-6.667-3.519a1.273,1.273,0,0,1-.556-1.759l3.8-7.223a1.251,1.251,0,0,1,1.759-.556Z" transform="translate(-797.197 5621.158)" fill="none" stroke="#62cadf" stroke-width="1" fill-rule="evenodd" opacity="0.59"/>
        <path id="XMLID_309_" d="M824.843,435.287l6.667,3.519a1.273,1.273,0,0,1,.556,1.759l-3.8,7.223a1.273,1.273,0,0,1-1.759.556l-6.667-3.519a1.273,1.273,0,0,1-.556-1.759l3.8-7.223a1.251,1.251,0,0,1,1.759-.556Z" transform="translate(-796.62 5620.07)" fill="none" stroke="#62cadf" stroke-width="1" fill-rule="evenodd" opacity="0.59"/>
        <path id="XMLID_311_" d="M816.89,469.684C838.466,449.5,864.023,441.256,892.451,442h0a222.127,222.127,0,0,0-7.593,44.54h0c-28.335-.833-52.6,9.26-74.542,25.465L798,505.52Z" transform="translate(-795.057 5619.564)" fill="none" stroke="#62cadf" stroke-width="1" fill-rule="evenodd" opacity="0.59"/>
        <path id="XMLID_325_" d="M835.726,105.1l6.945,6.112,7.964-4.723-3.611,8.519,6.945,6.112-9.167-.833-3.7,8.519-2.037-9.075-9.26-.833,7.964-4.815Z" transform="translate(-797.41 5644.494)" fill="none" stroke="#62cadf" stroke-width="1" fill-rule="evenodd" opacity="0.59"/>
        <path id="XMLID_326_" d="M487.8,765.978s83.71,116.768,180.939,92.877c88.062-21.668,116.3-124.361,116.3-124.361,5.556-28.058-13.7-41.855-31.391-6.389-24.354,48.615-93.618,217.7-265.853,37.873Z" transform="translate(-772.1 5599.957)" fill="none" stroke="#62cadf" stroke-width="1" fill-rule="evenodd" opacity="0.59"/>
      </g>
    </g>
  </g>
</svg>
