<svg xmlns="http://www.w3.org/2000/svg" xmlns:xlink="http://www.w3.org/1999/xlink" width="1050" height="787" viewBox="0 0 1050 787"><defs><clipPath id="a"><rect width="1050" height="787" transform="translate(870 293)" fill="none" stroke="#707070" stroke-width="1"/></clipPath></defs><g transform="translate(-870 -293)" clip-path="url(#a)"><path d="M2865.167-3620.736s-32.431-99.082-14.979-176.241,16.463-69.642,84.788-132.395,66.635-102.486,142.45-203.293,66.624-128.787,160.81-199.94,346.659-102.534,444.236-59.942-122.323,130.676-64.385,182.256,92.066,12.013,139.336,0,86.06-40.66,137.639-29.235,43.242,158.942,43.242,158.942v430.452Z" transform="translate(-1683.23 4832.051)" fill="#63a4e2" opacity="0.41"/><path d="M2865.177-3740.456s-32.446-83.374-14.986-148.3,16.471-58.6,84.827-111.406,76.116-64.842,151.966-149.669,57.2-129.766,151.432-189.639,164.494-35.839,262.116,0,59.944,59.521,117.909,102.923,92.108,10.108,139.4,0,86.1-34.214,137.7-24.6S3938.8-4127.4,3938.8-4127.4v362.211Z" transform="translate(-1636.93 4820.456)" fill="#63a4e2" opacity="0.25"/></g></svg>