<svg xmlns="http://www.w3.org/2000/svg" xmlns:xlink="http://www.w3.org/1999/xlink" width="1920" height="1080" viewBox="0 0 1920 1080"><defs><clipPath id="clip-path"><rect id="Rectangle_242" width="1920" height="1080" fill="#fff" stroke="#707070" stroke-width="1" data-name="Rectangle 242" transform="translate(0 1080)"/></clipPath></defs><g id="bg4" clip-path="url(#clip-path)" transform="translate(0 -1080)"><g id="Group_2302" data-name="Group 2302"><path id="Path_1834" fill="#6da8e2" d="M71,808.977S62.786,797.758,51.944,779.4c-10.825-18.329-24.259-43.76-34.749-72.253C6.721,678.7-.827,647.171.072,616.526S10.319,556.041,33.7,530.914c23.455-25.207,53.119-39.831,86.512-49.074,33.541-9.284,70.879-13.147,109.474-16.832,38.8-3.7,78.876-7.229,117.625-15.9,38.948-8.71,76.538-22.611,110.075-47.087,33.685-24.584,48.417-47.132,53.656-68.618s.967-41.885-3.245-62.22-8.354-40.6-2.872-61.971c5.487-21.386,20.628-43.922,55.115-68.845,34.643-25.036,80.372-46.226,129.68-63.979,49.624-17.867,102.918-32.269,152.1-43.558,49.491-11.361,94.76-19.557,127.746-24.925C1002.687,2.52,1023.32,0,1023.32,0L975.608,832.865Z" data-name="Path 1834" opacity=".67" transform="translate(1331.96 1339.839)"/><path id="Path_1835" fill="#6da8e2" d="M71,808.977S62.786,797.758,51.944,779.4c-10.825-18.329-24.259-43.76-34.749-72.253C6.721,678.7-.827,647.171.072,616.526S10.319,556.042,33.7,530.914c23.455-25.206,53.119-39.831,86.512-49.074,33.541-9.284,70.879-13.147,109.474-16.832,38.8-3.7,78.876-7.229,117.625-15.9,38.948-8.71,76.538-22.611,110.075-47.087,33.685-24.584,48.417-47.132,53.656-68.618s.967-41.885-3.245-62.221-8.354-40.6-2.872-61.971c5.487-21.386,20.628-43.922,55.115-68.845,34.643-25.036,80.372-46.226,129.68-63.979,49.624-17.867,102.918-32.269,152.1-43.558,49.491-11.361,94.76-19.557,127.746-24.925C1002.687,2.52,1023.32,0,1023.32,0L975.608,832.865Z" data-name="Path 1835" opacity=".67" transform="translate(1368.999 1325.874)"/><path id="Path_1837" fill="#60cfe6" d="M7576.032-2805.147s125.041,148.557,382.479,211.153c99.169,24.113,278.766,24.97,283.489,24.994,263.811,10.982,281.313,23.241,513.271,40.423,437.33,52.672,808,88,808,88l-16,673.817L7471.585-1972.71Z" data-name="Path 1837" opacity=".3" transform="translate(-7627.271 4600.578)"/><path id="Path_1836" fill="#4e9ce9" d="M100.081,22.389s7.507,9.016,22.637,23.463a622.894,622.894,0,0,0,68.491,56.133,759.716,759.716,0,0,0,115.435,67.473,837.03,837.03,0,0,0,163.774,57.382A745.354,745.354,0,0,0,549.145,241c26.085,3.337,51.7,5.434,76.022,6.745,24.345,1.312,47.383,1.837,68.275,2.03,20.912.193,39.671.053,55.432.038,22.036-.021,41.219-.266,61.189-.375,19.987-.11,40.766-.084,66,.434,25.261.52,54.995,1.534,92.894,3.4,37.963,1.873,84.148,4.606,142.3,8.564,99.919,6.8,209.586,14.814,318.139,23.028,109.066,8.253,216.994,16.709,312.615,24.332,96.014,7.654,179.516,14.458,239.105,19.357,59.74,4.912,95.32,7.9,95.32,7.9v725.985L0,837.529Z" data-name="Path 1836" transform="translate(-133.434 1792.403)"/></g></g></svg>